<svg width="191" height="139" viewBox="0 0 191 139" fill="none" xmlns="http://www.w3.org/2000/svg">
<g clip-path="url(#clip0_290_16086)">
<path d="M182.083 0H8.67065C3.88198 0 0 3.88198 0 8.67065V130.059C0 134.848 3.88198 138.73 8.67065 138.73H182.083C186.872 138.73 190.754 134.848 190.754 130.059V8.67065C190.754 3.88198 186.872 0 182.083 0Z" fill="white"/>
<path d="M44.9092 28.2578C50.6407 28.2578 55.5202 28.8004 59.5479 29.8848V45.918C55.2104 44.6013 50.9113 43.9434 46.6514 43.9434C42.469 43.9434 39.7578 44.4462 38.5186 45.4531C37.2794 46.3826 36.6602 47.777 36.6602 49.6357V88.6738C36.6602 92.3917 39.5648 94.251 45.374 94.251C51.2605 94.251 56.1012 93.6696 59.8965 92.5078V108.193C55.7139 109.355 50.6406 109.936 44.6768 109.936C36.0018 109.936 29.5345 108.231 25.2744 104.823C21.0919 101.415 19.0001 96.6133 19 90.417V47.8936C19 41.6972 21.1298 36.8944 25.3896 33.4863C29.7272 30.0008 36.2341 28.2578 44.9092 28.2578ZM151.249 28.2578C157.755 28.2578 163.216 28.9942 167.631 30.4658V46.9639C162.983 45.1824 158.336 44.291 153.688 44.291C149.041 44.291 145.904 44.8336 144.277 45.918C142.651 47.0023 141.838 48.4741 141.838 50.333V88.5576C141.838 90.4164 142.418 91.8495 143.58 92.8564C144.742 93.7859 146.446 94.251 148.692 94.251C151.016 94.251 152.798 93.9409 154.037 93.3213V66.1338H171V105.056C164.958 108.309 157.794 109.936 149.506 109.936C141.218 109.936 134.905 108.231 130.567 104.823C126.308 101.415 124.178 96.6132 124.178 90.417V48.2422C124.178 42.1232 126.501 37.2817 131.148 33.7188C135.873 30.0783 142.574 28.2578 151.249 28.2578ZM95.5781 28.8389C108.745 28.839 115.329 34.9971 115.329 47.3125V54.8643C115.329 62.3774 112.579 66.9864 107.08 68.6904C113.044 70.0847 116.026 74.7316 116.026 82.6318V90.8818C116.026 103.197 109.442 109.354 96.2744 109.354H68.042V28.8389H95.5781ZM85.4697 94.7158H93.3701C97.0105 94.7158 98.831 93.0502 98.8311 89.7197V81.4707C98.8311 78.1401 97.0106 76.4746 93.3701 76.4746H85.4697V94.7158ZM85.4697 61.0215H92.6729C96.3132 61.0215 98.1337 59.3568 98.1338 56.0264V48.4736C98.1336 45.1433 96.3131 43.4785 92.6729 43.4785H85.4697V61.0215Z" fill="url(#paint0_linear_290_16086)"/>
</g>
<defs>
<linearGradient id="paint0_linear_290_16086" x1="24.8571" y1="35.2578" x2="169.997" y2="106.191" gradientUnits="userSpaceOnUse">
<stop stop-color="#FE8158"/>
<stop offset="1" stop-color="#FC5C58"/>
</linearGradient>
<clipPath id="clip0_290_16086">
<rect width="191" height="139" fill="white"/>
</clipPath>
</defs>
</svg>
