<svg width="197" height="139" viewBox="0 0 197 139" fill="none" xmlns="http://www.w3.org/2000/svg">
<rect width="196.824" height="138.73" rx="8.67065" fill="white"/>
<path fill-rule="evenodd" clip-rule="evenodd" d="M61.8791 35.7481C62.6676 36.7964 63.178 38.1899 62.3332 40.2718C62.0438 40.985 60.8501 42.187 60.1369 41.8976C59.4237 41.6082 59.5353 40.8735 59.8248 40.1603C61.0511 36.76 57.9442 37.0888 57.9442 37.0888C57.9442 37.0888 53.916 37.0888 45.1671 43.9972C42.1516 46.59 39.3759 49.3458 36.7711 52.1412C35.894 53.0824 34.9249 54.2258 34.084 55.1036C28.2186 62.6805 25.2678 68.3119 23.8936 72.9209C22.5407 77.4581 23.1638 80.3993 25.1456 82.4413C27.2298 84.1317 28.9169 84.8223 30.6918 85.0357C34.7137 85.0357 37.5008 84.0949 37.5008 84.0949C45.7567 81.5246 50.5073 79.2674 56.6202 73.9184C57.6817 72.9895 59.4754 73.929 59.0667 75.4423L58.5089 77.1101C57.9634 78.7414 59.7983 79.9954 60.9862 78.7514C61.1248 78.6063 61.2672 78.4554 61.4145 78.2976C62.8226 76.7449 63.5112 75.8487 64.9263 74.5629C64.9263 74.5629 65.9296 73.6152 66.4871 73.5139C66.9171 73.337 67.802 73.191 68.5432 73.5139C69.4414 73.9052 69.8303 75.2795 69.9431 75.7892C70.0509 76.2763 70.0046 77.6512 70.0046 77.6512C71.3175 76.9881 72.6402 76.3858 73.8667 75.86C75.666 75.0887 77.3108 74.4603 78.5057 74.0247C79.1037 73.8068 79.5902 73.6366 79.9286 73.5205C80.0978 73.4625 80.23 73.4179 80.3207 73.3876C80.3661 73.3724 80.4011 73.3609 80.4251 73.3529L80.4528 73.3438L80.4626 73.3406L80.4633 73.3404C80.4635 73.3403 80.4637 73.3402 80.4637 73.3402C81.1954 73.1017 81.982 73.5016 82.2205 74.2334C82.459 74.9651 82.0591 75.7517 81.3274 75.9902L81.3212 75.9922L81.2982 75.9998C81.2775 76.0066 81.2458 76.0171 81.2038 76.0311C81.1199 76.0592 80.9948 76.1013 80.8331 76.1568C80.5096 76.2678 80.0398 76.4321 79.4603 76.6433C78.3002 77.0662 76.7052 77.6757 74.9649 78.4217C73.4242 79.0822 71.8082 79.8339 70.2928 80.6418C70.3922 83.3865 70.0067 85.9317 69.3329 89.5266L69.3207 89.5921L69.3022 89.6561C67.0918 97.3177 65.6197 100.177 62.8669 104.165L62.8365 104.208L62.8029 104.25C61.181 106.252 59.894 107.542 58.5962 108.459C57.2838 109.386 55.7555 110.573 53.1356 110.35C51.2136 110.111 49.6796 108.459 49.4008 107.117C48.9178 105.358 49.0335 104.529 49.2336 103.047C50.6553 98.2667 51.4365 96.3583 54.1679 92.4563C57.7355 87.6201 59.7422 85.4327 63.5327 82.0324C64.6191 81.0191 66.1999 79.9715 67.7134 79.078C67.7134 79.078 67.8636 77.4262 67.3575 76.4467C67.303 76.3411 67.2055 76.2546 67.0937 76.295C66.6577 76.4528 65.5913 77.4471 63.7557 79.1895C61.9727 81.1853 60.9122 82.2746 58.8882 84.1544C58.3369 84.4972 57.8308 84.778 57.3801 84.9567C56.9874 85.1123 56.3474 85.3129 55.6849 85.0997C54.8512 84.8313 54.5281 84.1236 54.4186 83.636C54.317 83.1833 54.3325 82.6817 54.3662 82.2495L54.3763 82.1199L55.3232 78.6138C50.2084 82.5998 48.6494 83.3702 42.9079 85.7672C42.9079 85.7672 37.1106 88.4428 30.359 87.8029C26.5195 87.3412 24.68 85.9902 23.1749 84.5966C20.1795 81.5679 19.69 77.2646 21.2226 72.1245C22.7407 67.0333 25.7102 60.5622 31.997 52.9418C34.6258 50.1203 39.8719 43.9179 43.0156 41.2149C47.2066 37.6115 52.3345 34.8092 57.6638 34.3157C59.1291 34.1268 60.8522 34.383 61.8791 35.7481ZM67.5069 82.2832C66.6682 82.838 65.9178 83.4065 65.3018 83.9794C61.6824 87.5136 58.7656 90.0036 56.1234 94.0984C54.1402 97.4229 53.3245 99.0932 52.0208 103.438C52.0208 103.438 50.6829 107.802 53.7488 107.802C55.0309 107.802 56.112 106.801 56.9882 106.182C57.9797 105.482 59.0719 104.424 60.6036 102.537C63.1273 98.8763 64.4813 96.2991 66.6058 88.9475C67.1166 86.2177 67.4368 84.2027 67.5069 82.2832Z" fill="#0335C5"/>
<path d="M166.898 87.6946V76.1074L174.81 84.385V76.8452H176.448V88.3551L168.536 80.0986V87.6946H166.898Z" fill="#4085D9"/>
<path d="M153.498 82.2209C153.498 80.6937 154.058 79.382 155.178 78.2859C156.293 77.1897 157.632 76.6416 159.197 76.6416C160.743 76.6416 162.069 77.1944 163.174 78.2999C164.285 79.4055 164.84 80.7335 164.84 82.2841C164.84 83.8441 164.282 85.1674 163.167 86.2542C162.048 87.3457 160.696 87.8915 159.113 87.8915C157.712 87.8915 156.454 87.4066 155.339 86.4369C154.112 85.3642 153.498 83.9588 153.498 82.2209ZM155.15 82.2419C155.15 83.4412 155.553 84.4273 156.358 85.2002C157.159 85.9732 158.085 86.3596 159.134 86.3596C160.272 86.3596 161.233 85.9661 162.015 85.1791C162.797 84.3828 163.188 83.4131 163.188 82.2701C163.188 81.113 162.802 80.1433 162.029 79.361C161.261 78.574 160.31 78.1805 159.176 78.1805C158.047 78.1805 157.094 78.574 156.316 79.361C155.539 80.1386 155.15 81.0989 155.15 82.2419Z" fill="#4085D9"/>
<path d="M151.432 76.8457V87.6951H149.795V76.8457H151.432Z" fill="#4085D9"/>
<path d="M145.846 78.3846V87.6951H144.209V78.3846H141.714V76.8457H148.334V78.3846H145.846Z" fill="#4085D9"/>
<path d="M139.164 85.06H134.519L133.311 87.695H131.547L136.915 76.1641L142.094 87.695H140.302L139.164 85.06ZM138.496 83.5211L136.887 79.832L135.201 83.5211H138.496Z" fill="#4085D9"/>
<path d="M130.183 76.8457V87.6951H128.546V76.8457H130.183Z" fill="#4085D9"/>
<path d="M126.473 77.4288V79.3682C125.527 78.5765 124.548 78.1807 123.536 78.1807C122.421 78.1807 121.482 78.5812 120.718 79.3822C119.95 80.1786 119.566 81.153 119.566 82.3054C119.566 83.4437 119.95 84.404 120.718 85.1864C121.487 85.9687 122.428 86.3598 123.543 86.3598C124.119 86.3598 124.609 86.2661 125.012 86.0788C125.237 85.9851 125.468 85.8586 125.707 85.6993C125.951 85.54 126.206 85.348 126.473 85.1231V87.0976C125.536 87.627 124.553 87.8917 123.522 87.8917C121.971 87.8917 120.648 87.3506 119.552 86.2685C118.46 85.177 117.915 83.8606 117.915 82.3194C117.915 80.9375 118.371 79.7055 119.285 78.6233C120.409 77.2976 121.864 76.6348 123.649 76.6348C124.623 76.6348 125.565 76.8994 126.473 77.4288Z" fill="#4085D9"/>
<path d="M105.056 82.2209C105.056 80.6937 105.615 79.382 106.735 78.2859C107.85 77.1897 109.19 76.6416 110.754 76.6416C112.3 76.6416 113.626 77.1944 114.731 78.2999C115.842 79.4055 116.397 80.7335 116.397 82.2841C116.397 83.8441 115.839 85.1674 114.724 86.2542C113.605 87.3457 112.253 87.8915 110.67 87.8915C109.269 87.8915 108.012 87.4066 106.897 86.4369C105.669 85.3642 105.056 83.9588 105.056 82.2209ZM106.707 82.2419C106.707 83.4412 107.11 84.4273 107.916 85.2002C108.717 85.9732 109.642 86.3596 110.691 86.3596C111.829 86.3596 112.79 85.9661 113.572 85.1791C114.354 84.3828 114.746 83.4131 114.746 82.2701C114.746 81.113 114.359 80.1433 113.586 79.361C112.818 78.574 111.867 78.1805 110.733 78.1805C109.604 78.1805 108.651 78.574 107.873 79.361C107.096 80.1386 106.707 81.0989 106.707 82.2419Z" fill="#4085D9"/>
<path d="M103.341 78.4617L102.013 79.2487C101.765 78.8178 101.528 78.5367 101.304 78.4055C101.069 78.2556 100.767 78.1807 100.397 78.1807C99.9427 78.1807 99.5656 78.3095 99.2658 78.5671C98.966 78.8201 98.8161 79.1386 98.8161 79.5228C98.8161 80.0521 99.2096 80.4784 99.9966 80.8016L101.079 81.2443C101.959 81.6004 102.604 82.036 103.011 82.5513C103.419 83.0619 103.622 83.6897 103.622 84.4345C103.622 85.4323 103.29 86.2568 102.625 86.9079C101.955 87.5638 101.123 87.8917 100.13 87.8917C99.1885 87.8917 98.4109 87.6129 97.7972 87.0555C97.1929 86.498 96.8158 85.7134 96.6659 84.7015L98.3242 84.3361C98.3992 84.9732 98.5303 85.4136 98.7177 85.6572C99.055 86.1256 99.5469 86.3598 100.193 86.3598C100.704 86.3598 101.128 86.1888 101.465 85.8469C101.802 85.5049 101.971 85.0716 101.971 84.5469C101.971 84.3361 101.941 84.1441 101.88 83.9707C101.824 83.7927 101.732 83.6311 101.606 83.4859C101.484 83.336 101.325 83.1978 101.128 83.0713C100.931 82.9401 100.697 82.816 100.425 82.6989L99.3782 82.2632C97.8932 81.6355 97.1507 80.7173 97.1507 79.5087C97.1507 78.6936 97.4623 78.012 98.0853 77.4639C98.7083 76.9112 99.4836 76.6348 100.411 76.6348C101.662 76.6348 102.639 77.2438 103.341 78.4617Z" fill="#4085D9"/>
<path d="M94.9512 78.4617L93.6231 79.2487C93.3748 78.8178 93.1383 78.5367 92.9134 78.4055C92.6792 78.2556 92.377 78.1807 92.007 78.1807C91.5526 78.1807 91.1755 78.3095 90.8756 78.5671C90.5758 78.8201 90.4259 79.1386 90.4259 79.5228C90.4259 80.0521 90.8194 80.4784 91.6064 80.8016L92.6886 81.2443C93.5692 81.6004 94.2134 82.036 94.6209 82.5513C95.0285 83.0619 95.2322 83.6897 95.2322 84.4345C95.2322 85.4323 94.8996 86.2568 94.2344 86.9079C93.5646 87.5638 92.7331 87.8917 91.7399 87.8917C90.7984 87.8917 90.0207 87.6129 89.4071 87.0555C88.8027 86.498 88.4256 85.7134 88.2757 84.7015L89.9341 84.3361C90.009 84.9732 90.1402 85.4136 90.3276 85.6572C90.6648 86.1256 91.1567 86.3598 91.8032 86.3598C92.3138 86.3598 92.7377 86.1888 93.075 85.8469C93.4123 85.5049 93.581 85.0716 93.581 84.5469C93.581 84.3361 93.5505 84.1441 93.4896 83.9707C93.4334 83.7927 93.342 83.6311 93.2156 83.4859C93.0938 83.336 92.9345 83.1978 92.7377 83.0713C92.541 82.9401 92.3068 82.816 92.0351 82.6989L90.9881 82.2632C89.5031 81.6355 88.7606 80.7173 88.7606 79.5087C88.7606 78.6936 89.0721 78.012 89.6951 77.4639C90.3182 76.9112 91.0935 76.6348 92.021 76.6348C93.2718 76.6348 94.2485 77.2438 94.9512 78.4617Z" fill="#4085D9"/>
<path d="M84.5235 85.06H79.8788L78.6702 87.695H76.9064L82.2749 76.1641L87.4536 87.695H85.6618L84.5235 85.06ZM83.8559 83.5211L82.2468 79.832L80.5604 83.5211H83.8559Z" fill="#4085D9"/>
<path d="M71.2563 44.5278H93.0452V28.3525H98.2047V70.2712H93.0452V49.3587H71.2563V70.2712H66.0968V28.3525H71.2563V44.5278Z" fill="#0335C5"/>
<path d="M113.644 50.2887L129.644 70.2712H123.125L108.019 50.4371H107.324V70.2712H102.441V28.3525H109.86C115.404 28.3525 119.631 28.7244 122.094 30.8058C124.812 33.1226 125.725 36.8503 125.725 40.6512C125.519 44.741 124.181 46.7477 121.944 48.4188C119.443 50.5382 113.644 50.2887 113.644 50.2887ZM107.324 46.5981H110.784C116.781 46.5981 120.446 47.7511 120.894 39.9523C120.279 32.812 119.61 33.1834 111.029 33.1834H107.324V46.5981Z" fill="#0336C7"/>
</svg>
