<svg width="191" height="139" viewBox="0 0 191 139" fill="none" xmlns="http://www.w3.org/2000/svg">
<rect width="190.754" height="138.73" rx="8.67065" fill="white"/>
<path d="M31.9261 109.858C32.0053 113.987 29.4689 118.195 23.7618 118.195H17.3414V101.76H23.7618C29.3895 101.76 31.9261 105.73 31.9261 109.858ZM20.4327 115.178H23.8411C27.5665 115.178 29.0725 112.478 28.9933 109.779C28.914 107.238 27.408 104.697 23.8411 104.697H20.4327V115.178Z" fill="black"/>
<path d="M38.0295 101.76H34.9382V118.195H38.0295V101.76Z" fill="black"/>
<path d="M53.3274 105.729C52.2177 104.697 50.5531 104.062 49.1264 104.062C45.6388 104.062 43.4986 106.761 43.4986 110.096C43.4986 112.795 45.0839 115.574 49.1264 115.574C50.3946 115.574 51.5044 115.257 52.8518 114.225V111.287H48.6507V108.508H55.7053V115.416C54.12 117.242 52.0591 118.353 49.2056 118.353C43.023 118.353 40.5659 114.304 40.5659 110.017C40.5659 105.411 43.4194 101.124 49.2056 101.124C51.425 101.124 53.5652 101.997 55.309 103.665L53.3274 105.729Z" fill="black"/>
<path d="M61.8088 101.76H58.7175V118.195H61.8088V101.76Z" fill="black"/>
<path d="M69.8937 104.539H64.6623V101.76H78.1373V104.539H72.985V118.195H69.8937V104.539Z" fill="black"/>
<path d="M90.978 115.099H82.4175L80.9907 118.195H77.6617L85.0332 101.76H88.4416L95.8131 118.195H92.4841L90.978 115.099ZM86.6977 105.174L83.6857 112.161H89.789L86.6977 105.174Z" fill="black"/>
<path d="M100.807 101.76V115.337H109.209V118.195H97.7155V101.76H100.807Z" fill="black"/>
<path d="M119.83 104.539H114.678V101.76H128.153V104.539H122.922V118.195H119.83V104.539Z" fill="black"/>
<path d="M144.799 118.195H141.152L136.397 112.717H133.464V118.195H130.372V101.76C132.988 101.76 135.603 101.76 138.141 101.76C142.025 101.76 144.006 104.38 144.006 107.159C144.006 109.382 142.975 111.685 139.884 112.32L144.878 117.957V118.195H144.799ZM133.385 104.618V109.858H138.062C140.043 109.858 140.835 108.509 140.835 107.238C140.835 105.888 139.964 104.618 138.062 104.618H133.385Z" fill="black"/>
<path d="M158.749 118.195H146.464V101.76H158.749V104.777H149.554V108.509H158.433V111.446H149.554V115.099H158.749V118.195Z" fill="black"/>
<path d="M173.413 118.195H161.127V101.76H173.413V104.777H164.139V108.509H173.017V111.446H164.139V115.099H173.413V118.195Z" fill="black"/>
<path d="M103.105 38.6385C104.453 38.3209 105.483 37.13 105.483 35.7008C105.483 34.0335 104.136 32.6837 102.471 32.6837C100.807 32.6837 99.4593 34.0335 99.4593 35.7008C99.4593 37.13 100.49 38.4003 101.837 38.6385V53.089L95.8132 61.9021V26.3318C97.1607 26.0142 98.1911 24.8232 98.1911 23.3941C98.1911 21.7267 96.8436 20.377 95.1791 20.377C93.5145 20.377 92.167 21.7267 92.167 23.3941C92.167 24.8232 93.1974 26.0936 94.545 26.3318V48.325L88.6794 41.4174V34.8274C90.0269 34.5892 91.1366 33.3188 91.1366 31.8897C91.1366 30.2223 89.7892 28.8725 88.1245 28.8725C86.46 28.8725 85.1126 30.2223 85.1126 31.8897C85.1126 33.3188 86.143 34.5098 87.4904 34.8274V41.8938L94.545 50.2306L94.6242 50.1512V63.7283V67.3012V86.595H95.8132V67.3806V64.2047L103.026 53.4859V38.6385H103.105ZM86.3808 31.8897C86.3808 30.9369 87.1734 30.1429 88.1245 30.1429C89.0757 30.1429 89.8684 30.9369 89.8684 31.8897C89.8684 32.8425 89.0757 33.6364 88.1245 33.6364C87.1734 33.6364 86.3808 32.8425 86.3808 31.8897ZM95.2584 25.2202C94.3072 25.2202 93.5145 24.4263 93.5145 23.4735C93.5145 22.5207 94.3072 21.7267 95.2584 21.7267C96.2095 21.7267 97.0022 22.5207 97.0022 23.4735C97.0022 24.4263 96.2095 25.2202 95.2584 25.2202ZM100.648 35.6214C100.648 34.6686 101.441 33.8747 102.392 33.8747C103.343 33.8747 104.136 34.6686 104.136 35.6214C104.136 36.5741 103.343 37.3681 102.392 37.3681C101.441 37.4475 100.648 36.6536 100.648 35.6214Z" fill="#224A82"/>
<path d="M115.867 52.6915C114.361 52.6915 113.172 53.8823 113.172 55.3909C113.172 56.185 113.489 56.8202 113.965 57.2965L109.288 64.0453H103.423L108.654 56.979V49.9919L110.874 47.1335C111.27 47.3718 111.745 47.5306 112.3 47.5306C113.806 47.5306 115.074 46.2601 115.074 44.7517C115.074 43.2431 113.806 41.9727 112.3 41.9727C110.794 41.9727 109.526 43.2431 109.526 44.7517C109.526 45.3074 109.605 45.8632 109.922 46.2601L107.386 49.5155V56.4231L97.6363 70.3972V86.5944H98.9046V70.8736L102.63 65.1569H110.002L114.995 57.9317C115.312 58.0112 115.629 58.0905 115.946 58.0905C117.452 58.0905 118.641 56.8995 118.641 55.3909C118.562 53.8823 117.373 52.6915 115.867 52.6915ZM112.142 43.0843C113.014 43.0843 113.727 43.7988 113.727 44.6722C113.727 45.5456 113.014 46.2601 112.142 46.2601C111.27 46.2601 110.556 45.5456 110.556 44.6722C110.556 43.8783 111.27 43.0843 112.142 43.0843ZM115.788 56.979C114.916 56.979 114.203 56.2643 114.203 55.3909C114.203 54.5176 114.916 53.803 115.788 53.803C116.66 53.803 117.373 54.5176 117.373 55.3909C117.373 56.2643 116.66 56.979 115.788 56.979Z" fill="#224A82"/>
<path d="M89.7892 67.3008V53.0093L80.5945 43.1639C81.0701 42.608 81.3079 41.9729 81.3079 41.2584C81.3079 39.591 79.9604 38.2412 78.2959 38.2412C76.6313 38.2412 75.2838 39.591 75.2838 41.2584C75.2838 42.9256 76.6313 44.2754 78.2959 44.2754C78.7714 44.2754 79.1677 44.1961 79.5641 43.9578L88.4417 53.4856V66.1099L84.0821 61.6636L77.5032 54.6766C77.8995 54.2001 78.1373 53.4856 78.1373 52.8505C78.1373 51.1831 76.7898 49.8333 75.1252 49.8333C73.4607 49.8333 72.1132 51.1831 72.1132 52.8505C72.1132 54.5178 73.4607 55.8675 75.1252 55.8675C75.6009 55.8675 76.0764 55.7087 76.4728 55.5499L83.131 62.6164L91.6123 71.1119V86.7534H92.8805V70.5562L89.7892 67.3008ZM78.2166 43.0051C77.2654 43.0051 76.4728 42.2111 76.4728 41.2584C76.4728 40.3055 77.2654 39.5115 78.2166 39.5115C79.1677 39.5115 79.9604 40.3055 79.9604 41.2584C79.9604 42.2111 79.1677 43.0051 78.2166 43.0051ZM75.046 54.5972C74.0948 54.5972 73.3022 53.8032 73.3022 52.8505C73.3022 51.8976 74.0948 51.1037 75.046 51.1037C75.9972 51.1037 76.7898 51.8976 76.7898 52.8505C76.7898 53.8032 75.9972 54.5972 75.046 54.5972Z" fill="#224A82"/>
</svg>
