<svg width="191" height="139" viewBox="0 0 191 139" fill="none" xmlns="http://www.w3.org/2000/svg">
<rect width="190.754" height="138.73" rx="8.67065" fill="white"/>
<mask id="path-2-outside-1_19_987" maskUnits="userSpaceOnUse" x="43.0148" y="49.7373" width="103" height="34" fill="black">
<rect fill="white" x="43.0148" y="49.7373" width="103" height="34"/>
<path fill-rule="evenodd" clip-rule="evenodd" d="M132.605 56.3627C130.057 60.7606 128.827 63.1308 126.763 67.1101L126.521 67.5758C125.686 69.3055 128.072 69.4248 131.65 69.0073C134.162 68.7272 136.183 67.7548 137.854 65.4883L143.341 56.1241C144.819 52.6276 141.969 52.3664 138.39 53.0226C135.17 53.6786 134.118 54.1211 132.605 56.3627ZM137.021 56.1837L131.709 65.9058C131.173 66.9197 132.724 67.1583 133.382 65.8461L138.51 56.3626C139.106 55.4083 137.555 55.2294 137.021 56.1837Z"/>
<path fill-rule="evenodd" clip-rule="evenodd" d="M112.982 71.3931L121.454 55.4557C121.49 55.3884 121.555 55.3423 121.631 55.3315L127.356 54.5136C130.266 54.172 130.517 55.9451 129.98 57.973C128.99 60.3036 128.167 60.9059 126.581 61.671C127.455 61.9164 127.682 62.1665 127.356 62.9235L123.508 69.909C123.49 69.9421 123.457 69.9646 123.42 69.9696L119.065 70.558L122.729 63.6955C122.772 63.616 122.714 63.52 122.624 63.52H121.414C121.327 63.52 121.246 63.5677 121.204 63.6443L117.392 70.633C117.357 70.6985 117.292 70.7435 117.219 70.7546L112.982 71.3931ZM122.858 60.545L124.55 57.4894C124.589 57.419 124.661 57.373 124.741 57.3671L126.223 57.2573C126.64 57.1977 126.768 57.6097 126.64 58.152C126.329 59.6007 125.05 60.7081 122.96 60.7189C122.87 60.7193 122.815 60.6232 122.858 60.545Z"/>
<path fill-rule="evenodd" clip-rule="evenodd" d="M100.039 73.1228L108.411 57.233C108.447 57.1653 108.514 57.1193 108.59 57.1093L115.746 56.1709C119.205 55.7534 118.374 58.198 116.879 60.7039C114.793 63.9929 113.598 64.7597 111.57 65.0579L107.986 65.627C107.877 65.6443 107.782 65.7109 107.728 65.8075L104.052 72.4709C104.016 72.5354 103.953 72.5798 103.88 72.5913L100.039 73.1228ZM109.52 62.3813L111.034 59.6899C111.272 59.2724 111.511 59.2128 111.749 59.2128H112.824C112.929 59.2128 113.024 59.2822 113.043 59.3861C113.316 60.8933 111.407 62.4925 109.62 62.5526C109.53 62.5556 109.476 62.4594 109.52 62.3813Z"/>
<path d="M79.0439 61.4324L77.5633 63.8452C77.511 63.9305 77.5806 64.0384 77.6798 64.026L80.0636 63.728C80.1604 63.7159 80.23 63.8189 80.1827 63.9042L72.9602 76.94L77.0757 76.4032L84.2036 63.3254C84.2594 63.2231 84.3616 63.1543 84.4775 63.1411L86.8185 62.8751C86.8816 62.8679 86.9392 62.8359 86.9786 62.7861L89.1835 60.001L79.0439 61.4324Z"/>
<path d="M65.1467 63.3411L55.8425 64.5856C55.8048 64.5906 55.7718 64.6133 55.7536 64.6468L47.0148 80.6976L56.5579 79.3855L58.1055 76.3636C58.149 76.2786 58.0802 76.1796 57.9854 76.1907L53.8615 76.6749C53.7659 76.6861 53.6971 76.5853 53.7423 76.5004L55.5737 73.0597C55.5924 73.0246 55.6273 73.0011 55.6669 72.9971L59.5373 72.6044C59.6515 72.5928 59.7532 72.5272 59.8108 72.428L61.4341 69.6302C61.4833 69.5454 61.4148 69.4407 61.3173 69.4519L57.6195 69.876C57.5238 69.8869 57.4553 69.7859 57.5008 69.701L59.0941 66.7342C59.112 66.7008 59.1447 66.678 59.1821 66.6725L63.5386 66.042C63.6124 66.0313 63.6769 65.9868 63.713 65.9217L65.1467 63.3411Z"/>
<path fill-rule="evenodd" clip-rule="evenodd" d="M66.6992 63.1506L58.2876 79.1469L62.1607 78.6844C62.2379 78.6752 62.3057 78.629 62.3425 78.5605L66.0165 71.7252C66.0698 71.6285 66.1648 71.5619 66.2738 71.5446L69.8586 70.9756C71.8866 70.6773 76.0633 64.8407 78.1493 61.5517L66.6992 63.1506ZM69.3218 65.6075L67.8079 68.2989C67.764 68.377 67.8187 68.4732 67.9082 68.4702C69.6953 68.4101 71.6039 66.8109 71.3314 65.3038C71.3126 65.1998 71.2176 65.1304 71.112 65.1304H70.0376C69.799 65.1304 69.5604 65.19 69.3218 65.6075Z"/>
<path fill-rule="evenodd" clip-rule="evenodd" d="M89.1835 60.001L80.2965 75.9261L84.0695 75.4037C84.1357 75.3945 84.1951 75.358 84.2331 75.3029L86.3794 72.1964C86.4179 72.1406 86.4783 72.1039 86.5455 72.0953L89.0153 71.78C89.1112 71.7678 89.181 71.8686 89.1359 71.9541L87.5732 74.9121L91.6201 74.334C91.7001 74.3226 91.7688 74.2715 91.8028 74.1982L99.0249 58.6291L89.1835 60.001ZM93.2991 61.9692L88.4286 69.101C88.3722 69.1835 88.4363 69.2946 88.5359 69.2872L89.8331 69.1911C89.8743 69.1881 89.9088 69.1681 89.9279 69.1314C90.2685 68.4782 93.5407 62.2016 93.5973 62.0885C93.6867 61.9096 93.478 61.7306 93.2991 61.9692Z"/>
</mask>
<path fill-rule="evenodd" clip-rule="evenodd" d="M132.605 56.3627C130.057 60.7606 128.827 63.1308 126.763 67.1101L126.521 67.5758C125.686 69.3055 128.072 69.4248 131.65 69.0073C134.162 68.7272 136.183 67.7548 137.854 65.4883L143.341 56.1241C144.819 52.6276 141.969 52.3664 138.39 53.0226C135.17 53.6786 134.118 54.1211 132.605 56.3627ZM137.021 56.1837L131.709 65.9058C131.173 66.9197 132.724 67.1583 133.382 65.8461L138.51 56.3626C139.106 55.4083 137.555 55.2294 137.021 56.1837Z" fill="black"/>
<path fill-rule="evenodd" clip-rule="evenodd" d="M112.982 71.3931L121.454 55.4557C121.49 55.3884 121.555 55.3423 121.631 55.3315L127.356 54.5136C130.266 54.172 130.517 55.9451 129.98 57.973C128.99 60.3036 128.167 60.9059 126.581 61.671C127.455 61.9164 127.682 62.1665 127.356 62.9235L123.508 69.909C123.49 69.9421 123.457 69.9646 123.42 69.9696L119.065 70.558L122.729 63.6955C122.772 63.616 122.714 63.52 122.624 63.52H121.414C121.327 63.52 121.246 63.5677 121.204 63.6443L117.392 70.633C117.357 70.6985 117.292 70.7435 117.219 70.7546L112.982 71.3931ZM122.858 60.545L124.55 57.4894C124.589 57.419 124.661 57.373 124.741 57.3671L126.223 57.2573C126.64 57.1977 126.768 57.6097 126.64 58.152C126.329 59.6007 125.05 60.7081 122.96 60.7189C122.87 60.7193 122.815 60.6232 122.858 60.545Z" fill="black"/>
<path fill-rule="evenodd" clip-rule="evenodd" d="M100.039 73.1228L108.411 57.233C108.447 57.1653 108.514 57.1193 108.59 57.1093L115.746 56.1709C119.205 55.7534 118.374 58.198 116.879 60.7039C114.793 63.9929 113.598 64.7597 111.57 65.0579L107.986 65.627C107.877 65.6443 107.782 65.7109 107.728 65.8075L104.052 72.4709C104.016 72.5354 103.953 72.5798 103.88 72.5913L100.039 73.1228ZM109.52 62.3813L111.034 59.6899C111.272 59.2724 111.511 59.2128 111.749 59.2128H112.824C112.929 59.2128 113.024 59.2822 113.043 59.3861C113.316 60.8933 111.407 62.4925 109.62 62.5526C109.53 62.5556 109.476 62.4594 109.52 62.3813Z" fill="black"/>
<path d="M79.0439 61.4324L77.5633 63.8452C77.511 63.9305 77.5806 64.0384 77.6798 64.026L80.0636 63.728C80.1604 63.7159 80.23 63.8189 80.1827 63.9042L72.9602 76.94L77.0757 76.4032L84.2036 63.3254C84.2594 63.2231 84.3616 63.1543 84.4775 63.1411L86.8185 62.8751C86.8816 62.8679 86.9392 62.8359 86.9786 62.7861L89.1835 60.001L79.0439 61.4324Z" fill="black"/>
<path d="M65.1467 63.3411L55.8425 64.5856C55.8048 64.5906 55.7718 64.6133 55.7536 64.6468L47.0148 80.6976L56.5579 79.3855L58.1055 76.3636C58.149 76.2786 58.0802 76.1796 57.9854 76.1907L53.8615 76.6749C53.7659 76.6861 53.6971 76.5853 53.7423 76.5004L55.5737 73.0597C55.5924 73.0246 55.6273 73.0011 55.6669 72.9971L59.5373 72.6044C59.6515 72.5928 59.7532 72.5272 59.8108 72.428L61.4341 69.6302C61.4833 69.5454 61.4148 69.4407 61.3173 69.4519L57.6195 69.876C57.5238 69.8869 57.4553 69.7859 57.5008 69.701L59.0941 66.7342C59.112 66.7008 59.1447 66.678 59.1821 66.6725L63.5386 66.042C63.6124 66.0313 63.6769 65.9868 63.713 65.9217L65.1467 63.3411Z" fill="black"/>
<path fill-rule="evenodd" clip-rule="evenodd" d="M66.6992 63.1506L58.2876 79.1469L62.1607 78.6844C62.2379 78.6752 62.3057 78.629 62.3425 78.5605L66.0165 71.7252C66.0698 71.6285 66.1648 71.5619 66.2738 71.5446L69.8586 70.9756C71.8866 70.6773 76.0633 64.8407 78.1493 61.5517L66.6992 63.1506ZM69.3218 65.6075L67.8079 68.2989C67.764 68.377 67.8187 68.4732 67.9082 68.4702C69.6953 68.4101 71.6039 66.8109 71.3314 65.3038C71.3126 65.1998 71.2176 65.1304 71.112 65.1304H70.0376C69.799 65.1304 69.5604 65.19 69.3218 65.6075Z" fill="black"/>
<path fill-rule="evenodd" clip-rule="evenodd" d="M89.1835 60.001L80.2965 75.9261L84.0695 75.4037C84.1357 75.3945 84.1951 75.358 84.2331 75.3029L86.3794 72.1964C86.4179 72.1406 86.4783 72.1039 86.5455 72.0953L89.0153 71.78C89.1112 71.7678 89.181 71.8686 89.1359 71.9541L87.5732 74.9121L91.6201 74.334C91.7001 74.3226 91.7688 74.2715 91.8028 74.1982L99.0249 58.6291L89.1835 60.001ZM93.2991 61.9692L88.4286 69.101C88.3722 69.1835 88.4363 69.2946 88.5359 69.2872L89.8331 69.1911C89.8743 69.1881 89.9088 69.1681 89.9279 69.1314C90.2685 68.4782 93.5407 62.2016 93.5973 62.0885C93.6867 61.9096 93.478 61.7306 93.2991 61.9692Z" fill="black"/>
<path d="M126.763 67.1101L128.669 68.0989L128.669 68.0988L126.763 67.1101ZM132.605 56.3627L130.825 55.1613L130.784 55.2224L130.747 55.2862L132.605 56.3627ZM126.521 67.5758L124.615 66.587L124.601 66.6144L124.588 66.6422L126.521 67.5758ZM131.65 69.0073L131.413 66.8733L131.402 66.8745L131.65 69.0073ZM137.854 65.4883L139.582 66.7621L139.649 66.6712L139.706 66.5739L137.854 65.4883ZM143.341 56.1241L145.193 57.2097L145.264 57.089L145.319 56.9601L143.341 56.1241ZM138.39 53.0226L138.003 50.9105L137.982 50.9143L137.962 50.9186L138.39 53.0226ZM131.709 65.9058L129.825 64.8763L129.818 64.8892L129.811 64.9021L131.709 65.9058ZM137.021 56.1837L135.147 55.1343L135.142 55.1442L135.136 55.1542L137.021 56.1837ZM133.382 65.8461L131.494 64.8249L131.478 64.8538L131.463 64.8832L133.382 65.8461ZM138.51 56.3626L136.689 55.2246L136.653 55.282L136.621 55.3415L138.51 56.3626ZM121.454 55.4557L119.558 54.4478L119.558 54.4478L121.454 55.4557ZM112.982 71.3931L111.086 70.3852L109.083 74.1519L113.302 73.5163L112.982 71.3931ZM121.631 55.3315L121.934 57.4571L121.934 57.4571L121.631 55.3315ZM127.356 54.5136L127.106 52.3811L127.079 52.3842L127.052 52.388L127.356 54.5136ZM129.98 57.973L131.957 58.8127L132.017 58.6712L132.056 58.5225L129.98 57.973ZM126.581 61.671L125.648 59.737L120.533 62.2045L126.001 63.7384L126.581 61.671ZM127.356 62.9235L129.237 63.9595L129.287 63.8682L129.328 63.7724L127.356 62.9235ZM123.508 69.909L121.627 68.873V68.873L123.508 69.909ZM123.42 69.9696L123.132 67.8418H123.132L123.42 69.9696ZM119.065 70.558L117.171 69.5468L115.195 73.2477L119.353 72.6859L119.065 70.558ZM122.729 63.6955L120.835 62.6841L120.835 62.6842L122.729 63.6955ZM121.204 63.6443L123.089 64.6725V64.6725L121.204 63.6443ZM117.392 70.633L119.277 71.6613L119.277 71.6611L117.392 70.633ZM117.219 70.7546L117.538 72.8779L117.219 70.7546ZM124.55 57.4894L122.671 56.4495L122.671 56.4495L124.55 57.4894ZM122.858 60.545L124.737 61.585L124.737 61.5849L122.858 60.545ZM124.741 57.3671L124.9 59.5084L124.9 59.5084L124.741 57.3671ZM126.223 57.2573L126.381 59.3986L126.454 59.3932L126.526 59.3829L126.223 57.2573ZM126.64 58.152L124.55 57.6602L124.545 57.6802L124.541 57.7003L126.64 58.152ZM122.96 60.7189L122.971 62.866H122.971L122.96 60.7189ZM108.411 57.233L106.519 56.217L106.515 56.2245L106.511 56.232L108.411 57.233ZM100.039 73.1228L98.1391 72.1219L96.1889 75.8231L100.333 75.2497L100.039 73.1228ZM108.59 57.1093L108.869 59.2383L108.869 59.2383L108.59 57.1093ZM115.746 56.1709L115.488 54.0391L115.477 54.0405L115.466 54.0419L115.746 56.1709ZM116.879 60.7039L118.692 61.8539L118.708 61.8293L118.723 61.8042L116.879 60.7039ZM111.57 65.0579L111.258 62.9336L111.246 62.9353L111.234 62.9373L111.57 65.0579ZM107.986 65.627L107.649 63.5063L107.649 63.5063L107.986 65.627ZM107.728 65.8075L105.848 64.7702L105.848 64.7703L107.728 65.8075ZM104.052 72.4709L105.932 73.5081L105.932 73.5081L104.052 72.4709ZM103.88 72.5913L104.174 74.7182L104.194 74.7155L104.213 74.7125L103.88 72.5913ZM111.034 59.6899L109.169 58.6246L109.166 58.6309L109.162 58.6372L111.034 59.6899ZM109.52 62.3813L111.391 63.434L111.391 63.434L109.52 62.3813ZM113.043 59.3861L115.156 59.004L115.156 59.004L113.043 59.3861ZM109.62 62.5526L109.692 64.6985H109.692L109.62 62.5526ZM77.5633 63.8452L79.3935 64.9683V64.9683L77.5633 63.8452ZM79.0439 61.4324L78.7438 59.3063L77.7426 59.4476L77.2138 60.3094L79.0439 61.4324ZM77.6798 64.026L77.4135 61.8954L77.6798 64.026ZM80.0636 63.728L80.3299 65.8587L80.3299 65.8587L80.0636 63.728ZM80.1827 63.9042L82.0609 64.9448L82.0609 64.9448L80.1827 63.9042ZM72.9602 76.94L71.082 75.8994L69.021 79.6192L73.2379 79.0692L72.9602 76.94ZM77.0757 76.4032L77.3534 78.5324L78.4377 78.391L78.961 77.4308L77.0757 76.4032ZM84.2036 63.3254L86.089 64.353L86.089 64.353L84.2036 63.3254ZM84.4775 63.1411L84.235 61.0076L84.4775 63.1411ZM86.8185 62.8751L87.0609 65.0086L87.0609 65.0086L86.8185 62.8751ZM86.9786 62.7861L88.6621 64.119L88.6621 64.1189L86.9786 62.7861ZM89.1835 60.001L88.8871 57.8743L88.8834 57.8748L89.1835 60.001ZM55.8425 64.5856L55.5579 62.4573L55.5579 62.4573L55.8425 64.5856ZM65.1467 63.3411L67.0237 64.3838L69.1004 60.6459L64.8621 61.2128L65.1467 63.3411ZM55.7536 64.6468L53.8678 63.62L53.8678 63.62L55.7536 64.6468ZM47.0148 80.6976L45.1289 79.6709L43.0966 83.4038L47.3073 82.8248L47.0148 80.6976ZM56.5579 79.3855L56.8504 81.5126L57.959 81.3602L58.469 80.3642L56.5579 79.3855ZM58.1055 76.3636L60.0167 77.3423L60.0167 77.3423L58.1055 76.3636ZM57.9854 76.1907L57.7351 74.0581L57.735 74.0581L57.9854 76.1907ZM53.8615 76.6749L54.1119 78.8074H54.1119L53.8615 76.6749ZM53.7423 76.5004L55.6378 77.5092L55.6378 77.5092L53.7423 76.5004ZM55.5737 73.0597L53.6782 72.0508L53.6782 72.0508L55.5737 73.0597ZM55.6669 72.9971L55.8836 75.1333L55.8836 75.1333L55.6669 72.9971ZM59.5373 72.6044L59.3206 70.4682L59.3206 70.4682L59.5373 72.6044ZM59.8108 72.428L57.9535 71.3503L57.9535 71.3504L59.8108 72.428ZM61.4341 69.6302L59.5769 68.5526L59.5769 68.5526L61.4341 69.6302ZM61.3173 69.4519L61.0727 67.3186L61.0727 67.3186L61.3173 69.4519ZM57.6195 69.876L57.3748 67.7427L57.3748 67.7427L57.6195 69.876ZM57.5008 69.701L59.3925 70.7169L59.3925 70.7169L57.5008 69.701ZM59.0941 66.7342L57.2025 65.7182L57.2025 65.7183L59.0941 66.7342ZM59.1821 66.6725L59.4897 68.7976L59.4897 68.7976L59.1821 66.6725ZM63.5386 66.042L63.2311 63.9169L63.2311 63.9169L63.5386 66.042ZM63.713 65.9217L65.59 66.9645L65.59 66.9645L63.713 65.9217ZM58.2876 79.1469L56.3872 78.1475L54.4858 81.7633L58.5422 81.2789L58.2876 79.1469ZM66.6992 63.1506L66.4023 61.024L65.3114 61.1764L64.7988 62.1512L66.6992 63.1506ZM62.1607 78.6844L62.4152 80.8165L62.4153 80.8165L62.1607 78.6844ZM62.3425 78.5605L64.2338 79.5771L64.2338 79.5771L62.3425 78.5605ZM66.0165 71.7252L64.1365 70.6879L64.1308 70.6982L64.1252 70.7086L66.0165 71.7252ZM66.2738 71.5446L65.9372 69.4239L65.9371 69.4239L66.2738 71.5446ZM69.8586 70.9756L69.5462 68.8512L69.5341 68.853L69.522 68.8549L69.8586 70.9756ZM78.1493 61.5517L79.9625 62.7018L82.4477 58.7834L77.8523 59.4251L78.1493 61.5517ZM67.8079 68.2989L65.9365 67.2462L65.9365 67.2463L67.8079 68.2989ZM69.3218 65.6075L67.4575 64.5422L67.4539 64.5485L67.4504 64.5549L69.3218 65.6075ZM67.9082 68.4702L67.9803 70.6162H67.9804L67.9082 68.4702ZM71.3314 65.3038L69.2184 65.6859L69.2184 65.6859L71.3314 65.3038ZM80.2965 75.9261L78.4215 74.8797L76.3207 78.6443L80.591 78.053L80.2965 75.9261ZM84.0695 75.4037L84.364 77.5306L84.364 77.5306L84.0695 75.4037ZM84.2331 75.3029L85.9996 76.5235V76.5235L84.2331 75.3029ZM86.3794 72.1964L84.6129 70.9758L84.6129 70.9758L86.3794 72.1964ZM86.5455 72.0953L86.2736 69.9654L86.2736 69.9654L86.5455 72.0953ZM89.0153 71.78L89.2872 73.91L89.2872 73.91L89.0153 71.78ZM89.1359 71.9541L87.2374 70.951L87.2374 70.9511L89.1359 71.9541ZM87.5732 74.9121L85.6746 73.9091L83.7071 77.6334L87.8768 77.0377L87.5732 74.9121ZM91.6201 74.334L91.3164 72.2083L91.3164 72.2084L91.6201 74.334ZM91.8028 74.1982L93.7506 75.1018L93.7506 75.1018L91.8028 74.1982ZM99.0249 58.6291L100.973 59.5327L102.631 55.9585L98.7285 56.5025L99.0249 58.6291ZM88.4286 69.101L90.2017 70.312L90.2018 70.3119L88.4286 69.101ZM93.2991 61.9692L91.5813 60.681L91.5527 60.719L91.5259 60.7583L93.2991 61.9692ZM88.5359 69.2872L88.6945 71.4286L88.6945 71.4286L88.5359 69.2872ZM89.8331 69.1911L89.6745 67.0498L89.6744 67.0498L89.8331 69.1911ZM89.9279 69.1314L88.0239 68.1388L88.0239 68.1388L89.9279 69.1314ZM93.5973 62.0885L91.6767 61.1283L91.6767 61.1283L93.5973 62.0885ZM126.763 67.1101L128.669 68.0988C130.729 64.1273 131.94 61.7928 134.463 57.4391L132.605 56.3627L130.747 55.2862C128.173 59.7285 126.925 62.1342 124.857 66.1213L126.763 67.1101ZM126.521 67.5758L128.427 68.5647L128.669 68.0989L126.763 67.1101L124.857 66.1212L124.615 66.587L126.521 67.5758ZM131.65 69.0073L131.402 66.8745C129.585 67.0865 128.42 67.1085 127.865 66.9939C127.544 66.9278 127.941 66.9193 128.264 67.4126C128.693 68.069 128.4 68.6223 128.455 68.5095L126.521 67.5758L124.588 66.6422C124.224 67.3943 123.916 68.6111 124.67 69.7632C125.317 70.7523 126.377 71.0719 126.997 71.1997C128.32 71.4727 130.137 71.3456 131.899 71.14L131.65 69.0073ZM137.854 65.4883L136.125 64.2145C134.853 65.9414 133.404 66.6512 131.413 66.8733L131.65 69.0073L131.888 71.1413C134.92 70.8032 137.514 69.5681 139.582 66.7621L137.854 65.4883ZM143.341 56.1241L141.488 55.0385L136.001 64.4027L137.854 65.4883L139.706 66.5739L145.193 57.2097L143.341 56.1241ZM138.39 53.0226L138.778 55.1346C139.61 54.982 140.333 54.8959 140.919 54.8856C141.539 54.8746 141.832 54.9532 141.912 54.9879C141.932 54.9966 141.863 54.9706 141.775 54.873C141.678 54.7658 141.622 54.6427 141.601 54.549C141.571 54.4183 141.658 54.5915 141.363 55.288L143.341 56.1241L145.319 56.9601C145.763 55.9084 146.048 54.7378 145.788 53.5952C145.492 52.2977 144.603 51.4715 143.612 51.0443C142.717 50.6586 141.718 50.5764 140.844 50.5918C139.936 50.6078 138.96 50.7351 138.003 50.9105L138.39 53.0226ZM132.605 56.3627L134.385 57.564C135.045 56.5855 135.457 56.2201 135.897 55.9769C136.427 55.6837 137.188 55.4588 138.819 55.1266L138.39 53.0226L137.962 50.9186C136.372 51.2424 134.997 51.5668 133.818 52.2192C132.548 52.9217 131.678 53.8983 130.825 55.1613L132.605 56.3627ZM131.709 65.9058L133.594 66.9352L138.905 57.2131L137.021 56.1837L135.136 55.1542L129.825 64.8763L131.709 65.9058ZM133.382 65.8461L131.463 64.8832C131.451 64.9082 131.626 64.5716 132.217 64.6043C132.501 64.6201 133.144 64.7734 133.529 65.4657C133.926 66.1804 133.672 66.787 133.608 66.9094L131.709 65.9058L129.811 64.9021C129.478 65.5316 129.217 66.5482 129.775 67.5518C130.321 68.533 131.292 68.854 131.979 68.8922C133.376 68.9697 134.656 68.0962 135.302 66.809L133.382 65.8461ZM138.51 56.3626L136.621 55.3415L131.494 64.8249L133.382 65.8461L135.271 66.8673L140.399 57.3838L138.51 56.3626ZM137.021 56.1837L138.894 57.2331C138.705 57.5713 138.352 57.7386 137.938 57.6899C137.737 57.6662 137.074 57.5194 136.694 56.7786C136.28 55.9721 136.63 55.3195 136.689 55.2246L138.51 56.3626L140.331 57.5007C140.688 56.9286 141.068 55.8958 140.514 54.8171C139.994 53.8042 139.022 53.4934 138.44 53.425C137.267 53.2868 135.872 53.8417 135.147 55.1343L137.021 56.1837ZM121.454 55.4557L119.558 54.4478L111.086 70.3852L112.982 71.3931L114.878 72.4009L123.35 56.4636L121.454 55.4557ZM121.631 55.3315L121.327 53.2059C120.573 53.3136 119.916 53.7751 119.558 54.4478L121.454 55.4557L123.35 56.4636C123.064 57.0018 122.538 57.371 121.934 57.4571L121.631 55.3315ZM127.356 54.5136L127.052 52.388L121.327 53.2059L121.631 55.3315L121.934 57.4571L127.66 56.6393L127.356 54.5136ZM129.98 57.973L132.056 58.5225C132.34 57.4498 132.635 55.7627 131.842 54.3206C130.859 52.5315 128.916 52.1686 127.106 52.3811L127.356 54.5136L127.606 56.6462C127.864 56.6159 128.051 56.6143 128.177 56.6231C128.304 56.6319 128.355 56.6499 128.354 56.6495C128.349 56.6477 128.298 56.6281 128.232 56.5726C128.164 56.516 128.112 56.4493 128.079 56.3889C128.02 56.2825 128.062 56.2784 128.059 56.4978C128.056 56.7099 128.012 57.0173 127.905 57.4236L129.98 57.973ZM126.581 61.671L127.514 63.6049C128.359 63.1972 129.239 62.7254 130.036 61.9136C130.829 61.1065 131.41 60.1001 131.957 58.8127L129.98 57.973L128.004 57.1333C127.561 58.1766 127.235 58.6366 126.972 58.9046C126.713 59.1678 126.388 59.3797 125.648 59.737L126.581 61.671ZM127.356 62.9235L129.328 63.7724C129.523 63.3208 129.994 62.0976 129.205 60.9143C128.858 60.3943 128.4 60.1052 128.079 59.9444C127.758 59.7833 127.426 59.6781 127.161 59.6036L126.581 61.671L126.001 63.7384C126.172 63.7866 126.197 63.8047 126.154 63.7831C126.112 63.7619 125.853 63.6287 125.632 63.2965C125.379 62.9169 125.334 62.524 125.355 62.2682C125.372 62.068 125.424 61.9799 125.384 62.0747L127.356 62.9235ZM123.508 69.909L125.389 70.945L129.237 63.9595L127.356 62.9235L125.475 61.8875L121.627 68.873L123.508 69.909ZM123.42 69.9696L123.707 72.0975C124.418 72.0014 125.042 71.5739 125.389 70.945L123.508 69.909L121.627 68.873C121.937 68.3103 122.496 67.9278 123.132 67.8418L123.42 69.9696ZM119.065 70.558L119.353 72.6859L123.707 72.0975L123.42 69.9696L123.132 67.8418L118.778 68.4302L119.065 70.558ZM122.729 63.6955L120.835 62.6842L117.171 69.5468L119.065 70.558L120.96 71.5693L124.623 64.7067L122.729 63.6955ZM122.624 63.52V65.6672C121.093 65.6672 120.114 64.0351 120.835 62.6841L122.729 63.6955L124.623 64.7068C125.43 63.1969 124.335 61.3728 122.624 61.3728V63.52ZM121.414 63.52V65.6672H122.624V63.52V61.3728H121.414V63.52ZM121.204 63.6443L123.089 64.6725C122.755 65.2857 122.112 65.6672 121.414 65.6672V63.52V61.3728C120.541 61.3728 119.737 61.8496 119.319 62.6161L121.204 63.6443ZM117.392 70.633L119.277 71.6611L123.089 64.6725L121.204 63.6443L119.319 62.6161L115.507 69.6048L117.392 70.633ZM117.219 70.7546L117.538 72.8779C118.277 72.7666 118.92 72.3164 119.277 71.6613L117.392 70.633L115.507 69.6046C115.793 69.0806 116.308 68.7204 116.899 68.6314L117.219 70.7546ZM112.982 71.3931L113.302 73.5163L117.538 72.8779L117.219 70.7546L116.899 68.6314L112.662 69.2698L112.982 71.3931ZM124.55 57.4894L122.671 56.4495L120.98 59.505L122.858 60.545L124.737 61.5849L126.428 58.5294L124.55 57.4894ZM124.741 57.3671L124.582 55.2257C123.78 55.2852 123.061 55.7454 122.671 56.4495L124.55 57.4894L126.428 58.5294C126.117 59.0927 125.542 59.4608 124.9 59.5084L124.741 57.3671ZM126.223 57.2573L126.064 55.116L124.582 55.2257L124.741 57.3671L124.9 59.5084L126.381 59.3986L126.223 57.2573ZM126.64 58.152L128.73 58.6438C128.838 58.1859 128.939 57.4215 128.618 56.6522C128.438 56.2223 128.102 55.744 127.536 55.4251C126.971 55.1066 126.386 55.065 125.919 55.1317L126.223 57.2573L126.526 59.3829C126.268 59.4198 125.856 59.4073 125.428 59.1662C124.999 58.9248 124.765 58.5722 124.654 58.3056C124.551 58.0573 124.541 57.8624 124.54 57.7852C124.54 57.7393 124.543 57.7065 124.546 57.6882C124.547 57.6786 124.548 57.6715 124.549 57.6671C124.55 57.6627 124.55 57.6604 124.55 57.6602L126.64 58.152ZM122.96 60.7189L122.971 62.866C125.902 62.851 128.182 61.1922 128.739 58.6036L126.64 58.152L124.541 57.7003C124.492 57.9283 124.378 58.1092 124.189 58.2495C123.993 58.3942 123.615 58.5683 122.949 58.5717L122.96 60.7189ZM122.858 60.545L120.98 59.505C120.169 60.9695 121.185 62.8752 122.971 62.866L122.96 60.7189L122.949 58.5717C124.556 58.5634 125.461 60.277 124.737 61.585L122.858 60.545ZM108.411 57.233L106.511 56.232L98.1391 72.1219L100.039 73.1228L101.938 74.1237L110.311 58.2339L108.411 57.233ZM108.59 57.1093L108.311 54.9803C107.549 55.0802 106.883 55.5405 106.519 56.217L108.411 57.233L110.303 58.2489C110.012 58.7901 109.479 59.1584 108.869 59.2383L108.59 57.1093ZM115.746 56.1709L115.466 54.0419L108.311 54.9803L108.59 57.1093L108.869 59.2383L116.025 58.2999L115.746 56.1709ZM116.879 60.7039L118.723 61.8042C119.124 61.1321 119.516 60.4055 119.808 59.6894C120.083 59.0129 120.354 58.144 120.315 57.2481C120.271 56.2138 119.791 55.1024 118.619 54.4646C117.646 53.9355 116.507 53.9161 115.488 54.0391L115.746 56.1709L116.003 58.3026C116.325 58.2638 116.523 58.2679 116.627 58.2787C116.732 58.2896 116.685 58.3017 116.566 58.2367C116.426 58.1606 116.263 58.0197 116.147 57.8142C116.041 57.6242 116.027 57.4729 116.025 57.4341C116.024 57.4104 116.023 57.5965 115.83 58.0701C115.654 58.504 115.382 59.0228 115.035 59.6035L116.879 60.7039ZM111.57 65.0579L111.883 67.1823C113.143 66.9969 114.339 66.6286 115.531 65.6894C116.637 64.8183 117.615 63.5526 118.692 61.8539L116.879 60.7039L115.066 59.5538C114.057 61.1441 113.394 61.9064 112.874 62.3155C112.441 62.6565 112.025 62.8207 111.258 62.9336L111.57 65.0579ZM107.986 65.627L108.322 67.7476L111.907 67.1786L111.57 65.0579L111.234 62.9373L107.649 63.5063L107.986 65.627ZM107.728 65.8075L109.608 66.8448C109.342 67.328 108.867 67.6611 108.322 67.7476L107.986 65.627L107.649 63.5063C106.886 63.6274 106.221 64.0938 105.848 64.7702L107.728 65.8075ZM104.052 72.4709L105.932 73.5081L109.608 66.8448L107.728 65.8075L105.848 64.7703L102.172 71.4336L104.052 72.4709ZM103.88 72.5913L104.213 74.7125C104.942 74.598 105.576 74.1535 105.932 73.5081L104.052 72.4709L102.172 71.4336C102.457 70.9173 102.964 70.5617 103.547 70.4701L103.88 72.5913ZM100.039 73.1228L100.333 75.2497L104.174 74.7182L103.88 72.5913L103.586 70.4643L99.7445 70.9958L100.039 73.1228ZM111.034 59.6899L109.162 58.6372L107.648 61.3286L109.52 62.3813L111.391 63.434L112.905 60.7426L111.034 59.6899ZM111.749 59.2128V57.0655C111.444 57.0655 110.908 57.1031 110.339 57.4233C109.783 57.736 109.416 58.1921 109.169 58.6246L111.034 59.6899L112.898 60.7552C112.889 60.7702 112.761 60.9877 112.444 61.1662C112.114 61.3522 111.816 61.36 111.749 61.36V59.2128ZM112.824 59.2128V57.0655H111.749V59.2128V61.36H112.824V59.2128ZM113.043 59.3861L115.156 59.004C114.928 57.741 113.822 57.0655 112.824 57.0655V59.2128V61.36C112.037 61.36 111.121 60.8233 110.93 59.7683L113.043 59.3861ZM109.62 62.5526L109.692 64.6985C111.154 64.6494 112.545 63.9976 113.535 63.1129C114.482 62.2668 115.48 60.7952 115.156 59.004L113.043 59.3861L110.93 59.7683C110.905 59.63 110.946 59.5626 110.927 59.6037C110.904 59.6532 110.832 59.7687 110.673 59.9111C110.33 60.2178 109.873 60.3956 109.548 60.4066L109.62 62.5526ZM109.52 62.3813L107.648 61.3286C106.844 62.7588 107.808 64.7619 109.692 64.6985L109.62 62.5526L109.548 60.4066C111.253 60.3492 112.108 62.1599 111.391 63.434L109.52 62.3813ZM77.5633 63.8452L79.3935 64.9683L80.874 62.5554L79.0439 61.4324L77.2138 60.3094L75.7332 62.7222L77.5633 63.8452ZM77.6798 64.026L77.4135 61.8954C79.1007 61.6845 80.2829 63.5189 79.3935 64.9683L77.5633 63.8452L75.7332 62.7222C74.7392 64.3421 76.0604 66.3923 77.9461 66.1566L77.6798 64.026ZM80.0636 63.728L79.7973 61.5974L77.4135 61.8954L77.6798 64.026L77.9461 66.1566L80.3299 65.8587L80.0636 63.728ZM80.1827 63.9042L82.0609 64.9448C82.9594 63.3231 81.6369 61.3674 79.7972 61.5974L80.0636 63.728L80.3299 65.8587C78.6839 66.0644 77.5006 64.3146 78.3045 62.8636L80.1827 63.9042ZM72.9602 76.94L74.8384 77.9806L82.0609 64.9448L80.1827 63.9042L78.3045 62.8636L71.082 75.8994L72.9602 76.94ZM77.0757 76.4032L76.7979 74.2741L72.6825 74.8109L72.9602 76.94L73.2379 79.0692L77.3534 78.5324L77.0757 76.4032ZM84.2036 63.3254L82.3183 62.2978L75.1903 75.3756L77.0757 76.4032L78.961 77.4308L86.089 64.353L84.2036 63.3254ZM84.4775 63.1411L84.235 61.0076C83.4241 61.0998 82.7089 61.5812 82.3183 62.2979L84.2036 63.3254L86.089 64.353C85.81 64.8649 85.2991 65.2088 84.7199 65.2746L84.4775 63.1411ZM86.8185 62.8751L86.576 60.7416L84.235 61.0076L84.4775 63.1411L84.7199 65.2746L87.0609 65.0086L86.8185 62.8751ZM86.9786 62.7861L85.2951 61.4533C85.6104 61.0551 86.0713 60.799 86.576 60.7416L86.8185 62.8751L87.0609 65.0086C87.6918 64.9369 88.268 64.6167 88.6621 64.119L86.9786 62.7861ZM89.1835 60.001L87.5 58.6682L85.2951 61.4534L86.9786 62.7861L88.6621 64.1189L90.867 61.3337L89.1835 60.001ZM79.0439 61.4324L79.3441 63.5585L89.4837 62.1271L89.1835 60.001L88.8834 57.8748L78.7438 59.3063L79.0439 61.4324ZM55.8425 64.5856L56.1272 66.7138L65.4314 65.4693L65.1467 63.3411L64.8621 61.2128L55.5579 62.4573L55.8425 64.5856ZM55.7536 64.6468L57.6394 65.6735C57.3301 66.2416 56.7684 66.628 56.1272 66.7138L55.8425 64.5856L55.5579 62.4573C54.8413 62.5532 54.2135 62.9851 53.8678 63.62L55.7536 64.6468ZM47.0148 80.6976L48.9006 81.7244L57.6394 65.6735L55.7536 64.6468L53.8678 63.62L45.1289 79.6709L47.0148 80.6976ZM56.5579 79.3855L56.2654 77.2583L46.7223 78.5704L47.0148 80.6976L47.3073 82.8248L56.8504 81.5126L56.5579 79.3855ZM58.1055 76.3636L56.1944 75.3848L54.6467 78.4067L56.5579 79.3855L58.469 80.3642L60.0167 77.3423L58.1055 76.3636ZM57.9854 76.1907L58.2358 78.3233C56.6252 78.5123 55.4551 76.8283 56.1944 75.3848L58.1055 76.3636L60.0167 77.3423C60.8429 75.729 59.5351 73.8468 57.7351 74.0581L57.9854 76.1907ZM53.8615 76.6749L54.1119 78.8074L58.2358 78.3233L57.9854 76.1907L57.735 74.0581L53.6112 74.5423L53.8615 76.6749ZM53.7423 76.5004L51.8469 75.4915C50.9876 77.1058 52.2956 79.0207 54.1119 78.8074L53.8615 76.6749L53.6112 74.5423C55.2363 74.3515 56.4066 76.0648 55.6378 77.5092L53.7423 76.5004ZM55.5737 73.0597L53.6782 72.0508L51.8469 75.4915L53.7423 76.5004L55.6378 77.5092L57.4691 74.0685L55.5737 73.0597ZM55.6669 72.9971L55.4502 70.8608C54.698 70.9371 54.0335 71.3834 53.6782 72.0508L55.5737 73.0597L57.4691 74.0686C57.1513 74.6657 56.5566 75.065 55.8836 75.1333L55.6669 72.9971ZM59.5373 72.6044L59.3206 70.4682L55.4502 70.8608L55.6669 72.9971L55.8836 75.1333L59.7541 74.7406L59.5373 72.6044ZM59.8108 72.428L57.9535 71.3504C58.2415 70.8541 58.7499 70.5261 59.3206 70.4682L59.5373 72.6044L59.754 74.7406C60.5531 74.6596 61.2649 74.2003 61.668 73.5056L59.8108 72.428ZM61.4341 69.6302L59.5769 68.5526L57.9535 71.3503L59.8108 72.428L61.668 73.5056L63.2913 70.7079L61.4341 69.6302ZM61.3173 69.4519L61.562 71.5851C59.9051 71.7751 58.7398 69.9952 59.5769 68.5526L61.4341 69.6302L63.2913 70.7079C64.2268 69.0956 62.9245 67.1063 61.0727 67.3186L61.3173 69.4519ZM57.6195 69.876L57.8642 72.0092L61.562 71.5851L61.3173 69.4519L61.0727 67.3186L57.3748 67.7427L57.6195 69.876ZM57.5008 69.701L55.6091 68.6851C54.7434 70.2972 56.0463 72.2177 57.8642 72.0092L57.6195 69.876L57.3748 67.7427C59.0014 67.5562 60.1671 69.2745 59.3925 70.7169L57.5008 69.701ZM59.0941 66.7342L57.2025 65.7183L55.6091 68.6851L57.5008 69.701L59.3925 70.7169L60.9858 67.7501L59.0941 66.7342ZM59.1821 66.6725L58.8746 64.5475C58.163 64.6504 57.5426 65.0849 57.2025 65.7182L59.0941 66.7342L60.9858 67.7501C60.6815 68.3167 60.1264 68.7055 59.4897 68.7976L59.1821 66.6725ZM63.5386 66.042L63.2311 63.9169L58.8746 64.5475L59.1821 66.6725L59.4897 68.7976L63.8462 68.1671L63.5386 66.042ZM63.713 65.9217L61.836 64.8789C62.1254 64.3581 62.6414 64.0023 63.2311 63.9169L63.5386 66.042L63.8462 68.1671C64.5833 68.0604 65.2283 67.6156 65.59 66.9645L63.713 65.9217ZM65.1467 63.3411L63.2697 62.2983L61.836 64.879L63.713 65.9217L65.59 66.9645L67.0237 64.3838L65.1467 63.3411ZM58.2876 79.1469L60.1881 80.1462L68.5997 64.15L66.6992 63.1506L64.7988 62.1512L56.3872 78.1475L58.2876 79.1469ZM62.1607 78.6844L61.9061 76.5524L58.033 77.0148L58.2876 79.1469L58.5422 81.2789L62.4152 80.8165L62.1607 78.6844ZM62.3425 78.5605L60.4512 77.5439C60.7457 76.9961 61.2886 76.6261 61.9061 76.5524L62.1607 78.6844L62.4153 80.8165C63.1872 80.7243 63.8658 80.2618 64.2338 79.5771L62.3425 78.5605ZM66.0165 71.7252L64.1252 70.7086L60.4512 77.5439L62.3425 78.5605L64.2338 79.5771L67.9078 72.7417L66.0165 71.7252ZM66.2738 71.5446L65.9371 69.4239C65.1742 69.545 64.5097 70.0114 64.1365 70.6879L66.0165 71.7252L67.8966 72.7624C67.63 73.2456 67.1554 73.5787 66.6104 73.6652L66.2738 71.5446ZM69.8586 70.9756L69.522 68.8549L65.9372 69.4239L66.2738 71.5446L66.6104 73.6652L70.1953 73.0962L69.8586 70.9756ZM78.1493 61.5517L76.336 60.4017C75.3222 62.0002 73.8068 64.206 72.3193 66.0267C71.5722 66.9412 70.8724 67.7087 70.2772 68.2461C69.9798 68.5147 69.7455 68.692 69.5763 68.7973C69.386 68.9159 69.3879 68.8745 69.5462 68.8512L69.8586 70.9756L70.171 73.0999C70.8363 73.0021 71.4124 72.7131 71.8468 72.4425C72.3024 72.1587 72.7433 71.8054 73.1553 71.4334C73.9788 70.6898 74.8337 69.7367 75.645 68.7437C77.2744 66.7492 78.8904 64.3922 79.9625 62.7018L78.1493 61.5517ZM66.6992 63.1506L66.9962 65.2772L78.4462 63.6783L78.1493 61.5517L77.8523 59.4251L66.4023 61.024L66.6992 63.1506ZM67.8079 68.2989L69.6794 69.3516L71.1933 66.6602L69.3218 65.6075L67.4504 64.5549L65.9365 67.2462L67.8079 68.2989ZM67.9082 68.4702L67.8361 66.3242C69.5414 66.2669 70.3961 68.0775 69.6794 69.3516L67.8079 68.2989L65.9365 67.2463C65.132 68.6765 66.096 70.6795 67.9803 70.6162L67.9082 68.4702ZM71.3314 65.3038L69.2184 65.6859C69.1934 65.5476 69.2345 65.4802 69.2154 65.5213C69.1925 65.5708 69.1206 65.6863 68.9612 65.8287C68.6181 66.1354 68.1616 66.3133 67.8361 66.3242L67.9082 68.4702L67.9804 70.6162C69.442 70.5671 70.8333 69.9153 71.8231 69.0306C72.7698 68.1844 73.7682 66.7128 73.4443 64.9216L71.3314 65.3038ZM71.112 65.1304V67.2776C70.325 67.2776 69.4092 66.741 69.2184 65.6859L71.3314 65.3038L73.4443 64.9217C73.2159 63.6587 72.1102 62.9832 71.112 62.9832V65.1304ZM70.0376 65.1304V67.2776H71.112V65.1304V62.9832H70.0376V65.1304ZM69.3218 65.6075L71.1861 66.6729C71.1776 66.6878 71.0497 66.9054 70.7324 67.0839C70.4018 67.2698 70.1044 67.2776 70.0376 67.2776V65.1304V62.9832C69.7322 62.9832 69.1962 63.0208 68.627 63.3409C68.0711 63.6536 67.7047 64.1097 67.4575 64.5422L69.3218 65.6075ZM80.2965 75.9261L82.1715 76.9724L91.0585 61.0473L89.1835 60.001L87.3085 58.9546L78.4215 74.8797L80.2965 75.9261ZM84.0695 75.4037L83.775 73.2767L80.002 73.7992L80.2965 75.9261L80.591 78.053L84.364 77.5306L84.0695 75.4037ZM84.2331 75.3029L82.4665 74.0824C82.7705 73.6424 83.2452 73.3501 83.775 73.2767L84.0695 75.4037L84.364 77.5306C85.0263 77.4389 85.6196 77.0735 85.9996 76.5235L84.2331 75.3029ZM86.3794 72.1964L84.6129 70.9758L82.4665 74.0824L84.2331 75.3029L85.9996 76.5235L88.146 73.4169L86.3794 72.1964ZM86.5455 72.0953L86.2736 69.9654C85.6017 70.0512 84.9979 70.4185 84.6129 70.9758L86.3794 72.1964L88.146 73.4169C87.838 73.8628 87.3549 74.1566 86.8174 74.2253L86.5455 72.0953ZM89.0153 71.78L88.7434 69.6501L86.2736 69.9654L86.5455 72.0953L86.8174 74.2253L89.2872 73.91L89.0153 71.78ZM89.1359 71.9541L91.0344 72.9571C91.8922 71.3337 90.5645 69.4176 88.7434 69.6501L89.0153 71.78L89.2872 73.91C87.6578 74.118 86.4699 72.4036 87.2374 70.951L89.1359 71.9541ZM87.5732 74.9121L89.4717 75.9151L91.0344 72.9571L89.1359 71.9541L87.2374 70.9511L85.6746 73.9091L87.5732 74.9121ZM91.6201 74.334L91.3164 72.2084L87.2695 72.7865L87.5732 74.9121L87.8768 77.0377L91.9238 76.4596L91.6201 74.334ZM91.8028 74.1982L89.855 73.2946C90.1269 72.7085 90.6768 72.2997 91.3164 72.2083L91.6201 74.334L91.9238 76.4596C92.7233 76.3454 93.4108 75.8344 93.7506 75.1018L91.8028 74.1982ZM99.0249 58.6291L97.0771 57.7256L89.855 73.2946L91.8028 74.1982L93.7506 75.1018L100.973 59.5327L99.0249 58.6291ZM89.1835 60.001L89.48 62.1276L99.3214 60.7558L99.0249 58.6291L98.7285 56.5025L88.8871 57.8743L89.1835 60.001ZM88.4286 69.101L90.2018 70.3119L95.0722 63.1802L93.2991 61.9692L91.5259 60.7583L86.6554 67.8901L88.4286 69.101ZM88.5359 69.2872L88.3773 67.1459C90.0715 67.0204 91.1599 68.909 90.2017 70.312L88.4286 69.101L86.6554 67.89C85.5845 69.4581 86.801 71.5688 88.6945 71.4286L88.5359 69.2872ZM89.8331 69.1911L89.6744 67.0498L88.3773 67.1459L88.5359 69.2872L88.6945 71.4286L89.9917 71.3325L89.8331 69.1911ZM89.9279 69.1314L88.0239 68.1388C88.3923 67.4323 89.0738 67.0943 89.6745 67.0498L89.8331 69.1911L89.9917 71.3325C90.6747 71.2819 91.4253 70.9039 91.8319 70.1241L89.9279 69.1314ZM93.5973 62.0885L91.6767 61.1283C91.6798 61.1222 91.6359 61.207 91.5324 61.4061C91.4371 61.5892 91.3035 61.8458 91.1436 62.153C90.8237 62.7673 90.3988 63.5826 89.965 64.415C89.0973 66.0798 88.1942 67.8122 88.0239 68.1388L89.9279 69.1314L91.8319 70.1241C92.1616 69.4916 95.4504 63.1835 95.5178 63.0487L93.5973 62.0885ZM93.2991 61.9692L95.0169 63.2575C94.8729 63.4495 94.5804 63.7483 94.093 63.9055C93.5773 64.0719 92.9786 64.028 92.4602 63.7231C91.4278 63.1158 91.2826 61.9166 91.6767 61.1283L93.5973 62.0885L95.5178 63.0487C96.0014 62.0815 95.7966 60.7034 94.6375 60.0215C93.2785 59.2222 92.0471 60.0598 91.5813 60.681L93.2991 61.9692Z" fill="url(#paint0_linear_19_987)" mask="url(#path-2-outside-1_19_987)"/>
<path d="M64.9108 63.3721C65.0079 63.3591 65.0783 63.4621 65.0309 63.5479L63.7125 65.9209C63.6764 65.986 63.6123 66.0313 63.5387 66.042L59.1823 66.6719C59.1449 66.6773 59.1123 66.7003 59.0944 66.7334L57.5006 69.7002C57.455 69.785 57.5241 69.8869 57.6198 69.876L61.317 69.4512C61.4145 69.44 61.4834 69.545 61.4342 69.6299L59.8102 72.4277C59.7526 72.5268 59.6508 72.5919 59.5367 72.6035L55.6666 72.9971C55.6271 73.0011 55.5925 73.0245 55.5739 73.0596L53.7418 76.5C53.6969 76.5848 53.7657 76.6856 53.861 76.6748L57.985 76.1904C58.0797 76.1793 58.1486 76.2784 58.1051 76.3633L56.6432 79.2188C56.5899 79.3228 56.4885 79.3942 56.3727 79.4102L47.2487 80.665C47.1518 80.6783 47.0811 80.5761 47.1276 80.4902L55.7535 64.6465C55.7717 64.6131 55.8047 64.59 55.8424 64.585L64.9108 63.3721ZM74.0338 62.0879C77.4928 61.6706 76.662 64.1153 75.1666 66.6211C73.0806 69.9101 71.8859 70.6774 69.858 70.9756L66.2731 71.5439C66.1643 71.5613 66.0695 71.6281 66.0162 71.7246L62.3395 78.3877C62.3039 78.4522 62.2404 78.4973 62.1676 78.5088L58.3453 79.1094C58.2481 79.1245 58.1757 79.0214 58.2223 78.9346L66.6989 63.1504C66.7352 63.0827 66.8024 63.0364 66.8785 63.0264L74.0338 62.0879ZM88.65 59.9746C88.7471 59.9608 88.8188 60.0633 88.7721 60.1494L87.4508 62.5811C87.4152 62.6465 87.3506 62.6908 87.277 62.7021L84.4684 63.1348C84.3576 63.1518 84.2609 63.2197 84.2076 63.3184L77.1334 76.415C77.097 76.4823 77.0305 76.5281 76.9547 76.5381L73.193 77.0283C73.0962 77.0409 73.0259 76.9381 73.0729 76.8525L80.1842 63.9033C80.2309 63.818 80.1606 63.7155 80.0641 63.7275L77.6569 64.0283C77.5618 64.0402 77.4922 63.9407 77.5358 63.8555L78.777 61.4277C78.7946 61.3933 78.8276 61.3688 78.8658 61.3633L88.65 59.9746ZM98.8121 58.6553C98.9048 58.6442 98.9735 58.7395 98.9342 58.8242L91.8024 74.1982C91.7684 74.2713 91.6996 74.3225 91.6198 74.334L87.8043 74.8789C87.7082 74.8923 87.6371 74.7911 87.6823 74.7051L89.1364 71.9541C89.1811 71.8688 89.1109 71.7682 89.0153 71.7803L86.5455 72.0957C86.4785 72.1043 86.418 72.1407 86.3795 72.1963L84.233 75.3027C84.1951 75.3575 84.1359 75.395 84.0699 75.4043L80.5592 75.8896C80.4575 75.9035 80.3871 75.7906 80.444 75.7051L91.1207 59.7207C91.1786 59.634 91.2712 59.5761 91.3746 59.5635L98.8121 58.6553ZM115.746 56.1709C119.205 55.7536 118.374 58.1984 116.879 60.7041C114.793 63.9928 113.598 64.7594 111.57 65.0576L107.985 65.627C107.876 65.6443 107.781 65.7111 107.728 65.8076L104.051 72.4707C104.016 72.5351 103.952 72.5794 103.88 72.5908L100.057 73.1914C99.9599 73.2066 99.8876 73.1044 99.9342 73.0176L108.411 57.2324C108.447 57.165 108.514 57.1195 108.589 57.1094L115.746 56.1709ZM127.356 54.5137C130.266 54.1722 130.517 55.9449 129.98 57.9727C128.99 60.303 128.166 60.9059 126.581 61.6709C127.455 61.9163 127.682 62.1669 127.356 62.9238L123.508 69.9092C123.49 69.942 123.457 69.9646 123.42 69.9697L119.297 70.5264C119.2 70.5394 119.13 70.4383 119.175 70.3525L122.729 63.6953C122.771 63.6161 122.714 63.5201 122.625 63.5195H121.414C121.327 63.5196 121.246 63.568 121.205 63.6445L117.392 70.6328C117.356 70.6981 117.292 70.7437 117.218 70.7549L113.216 71.3574C113.12 71.372 113.048 71.2701 113.093 71.1836L121.454 55.4561C121.489 55.3888 121.556 55.3418 121.631 55.3311L127.356 54.5137ZM93.5973 62.0889C93.6867 61.91 93.4783 61.7309 93.2994 61.9688L88.4283 69.1006C88.3723 69.1831 88.4363 69.2944 88.5358 69.2871L89.8326 69.1914C89.8736 69.1883 89.9092 69.1682 89.9283 69.1318C90.2684 68.4796 93.531 62.2206 93.5973 62.0889ZM138.39 53.0225C141.969 52.3664 144.818 52.6276 143.34 56.124L137.854 65.4883C136.184 67.7547 134.162 68.7268 131.65 69.0068C128.071 69.4243 125.686 69.3048 126.521 67.5752C128.735 63.3093 129.959 60.9291 132.605 56.3623C134.118 54.1208 135.17 53.6785 138.39 53.0225ZM70.0377 65.1299C69.7991 65.1299 69.5605 65.1899 69.3219 65.6074L67.8073 68.2988C67.7638 68.3768 67.8185 68.4727 67.9078 68.4697C69.6948 68.4097 71.603 66.8108 71.3307 65.3037C71.3119 65.1998 71.2175 65.13 71.1119 65.1299H70.0377ZM138.509 56.3623C139.106 55.408 137.556 55.2294 137.021 56.1836L131.71 65.9053C131.173 66.9192 132.724 67.1579 133.382 65.8457L138.509 56.3623ZM111.749 59.2129C111.51 59.213 111.272 59.2725 111.034 59.6895L109.519 62.3809C109.475 62.4589 109.53 62.5557 109.62 62.5527C111.407 62.4926 113.315 60.8929 113.043 59.3857C113.024 59.282 112.929 59.2131 112.824 59.2129H111.749ZM126.222 57.2568L124.741 57.3672C124.661 57.3732 124.588 57.4189 124.549 57.4893L122.858 60.5449C122.815 60.6231 122.87 60.7191 122.96 60.7188C125.05 60.7079 126.328 59.6006 126.64 58.1523C126.768 57.6101 126.64 57.1974 126.222 57.2568Z" fill="white"/>
<path d="M136.72 5.1875L94.755 54.513C94.6839 54.5965 94.7539 54.7237 94.8625 54.7084L110.597 52.4931C110.896 52.4509 111.158 52.2693 111.303 52.0034L136.72 5.1875Z" fill="url(#paint1_linear_19_987)"/>
<path d="M71.3215 81.7558L61.0553 93.82C60.9843 93.9035 61.054 94.0305 61.1626 94.0155L79.1086 91.5262C79.2055 91.5128 79.2764 91.6152 79.2299 91.7012L56.558 133.543L104.903 77.1209C104.975 77.0374 104.905 76.9098 104.796 76.9252L71.5439 81.6334C71.4573 81.6457 71.3782 81.6892 71.3215 81.7558Z" fill="url(#paint2_linear_19_987)" fill-opacity="0.8"/>
<defs>
<linearGradient id="paint0_linear_19_987" x1="43.1379" y1="83.3816" x2="145.249" y2="52.7839" gradientUnits="userSpaceOnUse">
<stop stop-color="#1A2633"/>
<stop offset="1" stop-color="#273C59"/>
</linearGradient>
<linearGradient id="paint1_linear_19_987" x1="136.78" y1="5.1875" x2="94.5515" y2="54.6925" gradientUnits="userSpaceOnUse">
<stop stop-color="#F7DA7C"/>
<stop offset="1" stop-color="#FEEFC1"/>
</linearGradient>
<linearGradient id="paint2_linear_19_987" x1="105.168" y1="76.8809" x2="56.6176" y2="133.543" gradientUnits="userSpaceOnUse">
<stop stop-color="#FEF7E0"/>
<stop offset="1" stop-color="#FDDF7E"/>
</linearGradient>
</defs>
</svg>
