<svg width="191" height="139" viewBox="0 0 191 139" fill="none" xmlns="http://www.w3.org/2000/svg">
<rect width="190.754" height="138.73" rx="8.67065" fill="white"/>
<path d="M59.4103 60.542V78.2041L67.3872 72.2645V66.4659L59.4103 60.542Z" fill="#FF0075"/>
<path d="M79.2664 69.3652L67.3871 60.542V66.4659L71.2894 69.3652L67.3871 72.2645V78.2041L79.2664 69.3652Z" fill="#FF0075"/>
<path d="M114.042 60.6826H119.919L121.925 66.7476L123.931 60.6826H127.724L129.73 66.7476L131.736 60.6826H137.613L131.893 78.0313H127.567L125.828 72.7813L124.088 78.0313H119.763L114.042 60.6826Z" fill="#00082F"/>
<path d="M73.4209 60.6826H83.639V65.2274H78.9531V67.1551H83.5606V71.4805H78.9531V78.0313H73.4052V60.6826H73.4209Z" fill="#00082F"/>
<path d="M84.0306 69.3651C84.0306 68.1114 84.2657 66.936 84.7515 65.8233C85.2217 64.7106 85.8799 63.7389 86.6948 62.924C87.5254 62.0934 88.4814 61.4508 89.5941 60.9807C90.7068 60.5105 91.8822 60.2598 93.1359 60.2598C94.3897 60.2598 95.5651 60.4948 96.6778 60.9807C97.7905 61.4508 98.7621 62.109 99.5771 62.924C100.408 63.7546 101.05 64.7106 101.52 65.8233C101.991 66.936 102.241 68.1114 102.241 69.3651C102.241 70.6188 102.006 71.7942 101.52 72.9069C101.05 74.0196 100.392 74.9913 99.5771 75.8062C98.7465 76.6368 97.7905 77.2794 96.6778 77.7495C95.5651 78.2197 94.3897 78.4704 93.1359 78.4704C91.8822 78.4704 90.7068 78.2354 89.5941 77.7495C88.4814 77.2794 87.5098 76.6212 86.6948 75.8062C85.8642 74.9756 85.2217 74.0196 84.7515 72.9069C84.2657 71.7942 84.0306 70.6188 84.0306 69.3651ZM89.5001 69.3651C89.5001 69.8666 89.5941 70.3368 89.7822 70.7756C89.9702 71.2144 90.2367 71.6062 90.5658 71.9353C90.8949 72.2644 91.2867 72.5308 91.7255 72.7189C92.1643 72.9069 92.6344 73.001 93.1359 73.001C93.6374 73.001 94.1076 72.9069 94.5464 72.7189C94.9852 72.5308 95.377 72.2644 95.7061 71.9353C96.0352 71.6062 96.3017 71.2144 96.4897 70.7756C96.6778 70.3368 96.7718 69.8666 96.7718 69.3651C96.7718 68.8636 96.6778 68.3934 96.4897 67.9546C96.3017 67.5158 96.0352 67.124 95.7061 66.7949C95.377 66.4658 94.9852 66.1994 94.5464 66.0113C94.1076 65.8233 93.6374 65.7292 93.1359 65.7292C92.6344 65.7292 92.1643 65.8233 91.7255 66.0113C91.2867 66.1994 90.8949 66.4658 90.5658 66.7949C90.2367 67.124 89.9702 67.5158 89.7822 67.9546C89.5941 68.3934 89.5001 68.8636 89.5001 69.3651Z" fill="#00082F"/>
<path d="M102.633 60.6826H108.62C109.732 60.6826 110.751 60.8237 111.707 61.1214C112.647 61.4192 113.478 61.8423 114.168 62.4222C114.857 63.002 115.406 63.7073 115.797 64.5379C116.189 65.3842 116.377 66.3401 116.377 67.4372C116.377 68.2991 116.252 69.0357 116.017 69.6469C115.766 70.2581 115.5 70.7596 115.218 71.1514C114.873 71.6059 114.481 71.982 114.042 72.2954L117.286 78.0157H110.783L108.181 73.6119V78.0157H102.633V60.6826ZM108.181 69.2081H108.463C109.121 69.2081 109.685 69.067 110.14 68.7693C110.594 68.4715 110.83 67.9857 110.83 67.2805C110.83 66.5909 110.594 66.0894 110.14 65.7916C109.685 65.4939 109.121 65.3528 108.463 65.3528H108.181V69.2081Z" fill="#00082F"/>
<path d="M138.929 60.6826H143.082L149.664 78.0313H144.195L143.615 76.4642H138.381L137.801 78.0313H132.331L138.929 60.6826ZM142.173 72.6559L140.998 69.6156L139.822 72.6559H142.173Z" fill="#00082F"/>
<path d="M148.144 60.6826H154.131C155.243 60.6826 156.262 60.8237 157.218 61.1214C158.158 61.4192 158.989 61.8423 159.679 62.4222C160.368 63.002 160.917 63.7073 161.308 64.5379C161.7 65.3842 161.888 66.3401 161.888 67.4372C161.888 68.2991 161.763 69.0357 161.528 69.6469C161.277 70.2581 161.011 70.7596 160.729 71.1514C160.384 71.6059 159.992 71.982 159.553 72.2954L162.797 78.0157H156.293L153.692 73.6119V78.0157H148.144V60.6826ZM153.676 69.2238H153.958C154.617 69.2238 155.181 69.0827 155.635 68.785C156.09 68.4872 156.325 68.0014 156.325 67.2961C156.325 66.6066 156.09 66.1051 155.635 65.8073C155.181 65.5095 154.617 65.3685 153.958 65.3685H153.676V69.2238Z" fill="#00082F"/>
<path d="M162.656 78.047V60.6826H167.467C169.097 60.6826 170.555 60.8707 171.824 61.2311C173.094 61.5916 174.175 62.1401 175.053 62.8767C175.93 63.5976 176.588 64.5065 177.059 65.5879C177.513 66.6693 177.748 67.923 177.748 69.3491C177.748 70.7753 177.513 72.029 177.059 73.1104C176.604 74.1917 175.93 75.1007 175.053 75.8216C174.175 76.5425 173.094 77.1067 171.824 77.4672C170.555 77.8433 169.097 78.0313 167.467 78.0313H162.656V78.047ZM168.204 73.0947C169.505 73.0947 170.508 72.7813 171.229 72.1701C171.934 71.5589 172.294 70.6186 172.294 69.3491C172.294 68.0797 171.934 67.1394 171.229 66.5439C170.523 65.9327 169.505 65.6349 168.204 65.6349V73.0947Z" fill="#00082F"/>
<path d="M13.006 60.6826H23.224V65.2274H18.5538V67.1551H23.1614V71.4805H18.5538V78.0313H13.006V60.6826Z" fill="#00082F"/>
<path d="M27.8003 60.6826H31.969L38.5512 78.0313H33.0817L32.5019 76.4642H27.2518L26.672 78.0313H21.2182L27.8003 60.6826ZM31.0444 72.6402L29.869 69.5999L28.7093 72.6402H31.0444Z" fill="#00082F"/>
<path d="M37.2348 72.6405C37.6109 72.7659 38.0184 72.8599 38.4258 72.9226C38.7706 73.0166 39.1624 73.0793 39.6169 73.1263C40.0557 73.1734 40.5102 73.2047 40.949 73.2047C41.7482 73.2047 42.14 72.9069 42.14 72.3271C42.14 72.1077 42.0147 71.8726 41.7796 71.6375C41.5288 71.4024 41.2311 71.136 40.855 70.8539C40.4788 70.5718 40.087 70.2584 39.6639 69.8979C39.2408 69.5532 38.8333 69.1457 38.4728 68.7069C38.0967 68.2524 37.7989 67.7509 37.5482 67.1867C37.2974 66.6225 37.1877 65.98 37.1877 65.2434C37.1877 64.4285 37.3288 63.7076 37.6266 63.0807C37.9243 62.4538 38.3318 61.9367 38.849 61.5135C39.3661 61.0904 39.9773 60.7769 40.6826 60.5575C41.3721 60.3695 42.1244 60.2598 42.9236 60.2598C43.3468 60.2598 43.7542 60.2754 44.1774 60.3225C44.6005 60.3695 44.961 60.4008 45.2901 60.4322C45.6662 60.4792 46.0423 60.5419 46.4028 60.5889V65.4471C46.2617 65.4315 46.105 65.4158 45.9326 65.4001C45.7916 65.3845 45.6349 65.3688 45.4625 65.3531C45.2901 65.3374 45.102 65.3218 44.914 65.3218C44.8043 65.3218 44.6789 65.3218 44.5222 65.3374C44.3654 65.3531 44.2244 65.3688 44.0834 65.4001C43.9423 65.4315 43.8169 65.4942 43.7229 65.5882C43.6132 65.6822 43.5662 65.7919 43.5662 65.9486C43.5662 66.0897 43.6759 66.2621 43.911 66.4658C44.146 66.6695 44.4281 66.9203 44.7729 67.1867C45.1177 67.4688 45.4781 67.7822 45.8856 68.1427C46.2931 68.5031 46.6692 68.9263 46.9983 69.3964C47.3431 69.8666 47.6252 70.3994 47.8603 70.9793C48.0953 71.5748 48.205 72.233 48.205 72.954C48.205 73.7219 48.0797 74.4271 47.8446 75.101C47.5938 75.7749 47.2177 76.3547 46.7162 76.8406C46.199 77.3421 45.5565 77.7182 44.7572 78.016C43.958 78.298 43.0177 78.4391 41.9206 78.4391C41.2624 78.4391 40.6512 78.4077 40.087 78.3451C39.5228 78.2824 39.0213 78.204 38.5982 78.1257C38.0967 78.0316 37.6422 77.9376 37.2191 77.8122V72.6405H37.2348Z" fill="#00082F"/>
<path d="M50.0698 65.2274H46.8728V60.6826H59.0028V65.2274H55.79V78.0313H50.0698V65.2274Z" fill="#00082F"/>
</svg>
