<svg width="191" height="139" viewBox="0 0 191 139" fill="none" xmlns="http://www.w3.org/2000/svg">
<rect width="190.754" height="138.73" rx="8.67065" fill="white"/>
<path d="M109.694 115.641C110.525 115.641 111.273 115.776 111.936 116.047C112.608 116.318 113.172 116.715 113.63 117.237L112.481 118.357C112.099 117.975 111.682 117.695 111.234 117.518C110.796 117.331 110.31 117.237 109.778 117.237C109.265 117.237 108.788 117.321 108.35 117.489C107.911 117.657 107.533 117.896 107.216 118.204C106.898 118.512 106.651 118.876 106.474 119.296C106.306 119.716 106.221 120.178 106.221 120.683C106.221 121.177 106.306 121.635 106.474 122.055C106.651 122.475 106.898 122.844 107.216 123.161C107.533 123.469 107.906 123.708 108.336 123.876C108.765 124.044 109.242 124.128 109.765 124.128C110.25 124.128 110.717 124.053 111.165 123.903C111.376 123.83 111.581 123.735 111.781 123.618V120.57H113.504V124.478L113.308 124.628C112.84 124.966 112.307 125.228 111.711 125.416C111.039 125.621 110.357 125.725 109.666 125.725C108.901 125.725 108.196 125.603 107.552 125.36C106.917 125.108 106.361 124.758 105.885 124.31C105.409 123.852 105.04 123.315 104.778 122.699C104.517 122.083 104.387 121.411 104.387 120.683C104.387 119.954 104.517 119.282 104.778 118.666C105.04 118.05 105.409 117.517 105.885 117.069C106.37 116.612 106.935 116.261 107.579 116.019C108.223 115.766 108.929 115.641 109.694 115.641ZM78.8379 125.585H77.0176V115.781H78.8379V125.585ZM92.2109 115.781C93.0792 115.781 93.8223 115.921 94.4385 116.201C95.0638 116.481 95.5448 116.883 95.8809 117.405C96.217 117.928 96.3848 118.55 96.3848 119.269C96.3847 119.987 96.2169 120.608 95.8809 121.131C95.5448 121.654 95.0638 122.055 94.4385 122.335C93.8223 122.615 93.0792 122.756 92.2109 122.756H89.998V125.584H88.1777V115.781H92.2109ZM89.998 121.215H92.127C92.9297 121.215 93.5321 121.047 93.9336 120.711C94.3443 120.366 94.5497 119.885 94.5498 119.269C94.5498 118.643 94.3444 118.162 93.9336 117.826C93.5321 117.49 92.9299 117.321 92.127 117.321H89.998V121.215Z" fill="#455261"/>
<ellipse cx="115.105" cy="19.6494" rx="6.46384" ry="6.46382" fill="#455261"/>
<path d="M108.102 60.2277C107.384 41.0158 96.0722 27.5495 77.5785 22.7016C97.1495 21.6243 113.59 35.0883 114.925 55.9185C127.397 45.2492 133.239 33.1155 135.573 13.0059C139.883 27.729 136.83 54.6616 114.207 67.5893C111.254 83.1559 104.152 94.881 96.0722 106.013C102.716 92.0081 106.504 82.2048 107.563 70.2825C92.1221 75.4895 66.8054 70.103 53.5186 59.689C63.3939 62.7414 85.3693 70.7857 108.102 60.2277Z" fill="#FADD5C"/>
</svg>
