<svg width="191" height="139" viewBox="0 0 191 139" fill="none" xmlns="http://www.w3.org/2000/svg">
<rect width="190.754" height="138.73" rx="8.67065" fill="white"/>
<g clip-path="url(#clip0_19_1055)">
<path d="M60.2848 115.281C60.3284 115.687 60.407 116.311 60.8962 116.473C61.1465 116.55 61.4073 116.587 61.6691 116.582C61.7215 116.582 61.7608 116.608 61.7608 116.661C61.7608 116.713 61.6517 116.77 61.5163 116.77C61.2455 116.77 59.9179 116.77 59.4856 116.717C59.2017 116.691 59.1493 116.648 59.1493 116.595C59.1497 116.573 59.1577 116.551 59.172 116.534C59.1862 116.516 59.2059 116.504 59.2279 116.499C59.2978 116.499 59.3109 116.311 59.2847 116.093L58.7126 110.232H58.6864L55.8172 116.11C55.5726 116.613 55.5027 116.722 55.3805 116.722C55.2582 116.722 55.2014 116.613 54.9699 116.193C54.6599 115.626 53.8738 114.15 53.5768 113.525C53.2231 112.796 52.2667 110.857 52.0614 110.381H52.0396L51.6029 115.582C51.6029 115.761 51.6029 115.975 51.6029 116.167C51.6013 116.247 51.6296 116.324 51.6821 116.384C51.7346 116.444 51.8076 116.482 51.8867 116.49C52.0289 116.531 52.1756 116.555 52.3235 116.56C52.3671 116.56 52.4195 116.6 52.4195 116.639C52.4195 116.678 52.3366 116.748 52.2012 116.748C51.7645 116.748 51.188 116.709 51.0919 116.709C50.9959 116.709 50.415 116.748 50.0919 116.748C49.9696 116.748 49.8866 116.722 49.8866 116.639C49.8866 116.556 49.939 116.56 50.0089 116.56C50.1278 116.556 50.2462 116.541 50.3626 116.517C50.7557 116.451 50.7688 116.032 50.8212 115.599L51.6946 108.079C51.6946 107.957 51.7601 107.878 51.83 107.878C51.8769 107.886 51.9211 107.905 51.958 107.935C51.9948 107.965 52.023 108.004 52.0396 108.049L55.6425 115.202L59.11 108.062C59.1668 107.953 59.2192 107.874 59.3021 107.874C59.3851 107.874 59.4506 107.966 59.4768 108.184L60.2848 115.281Z" fill="black"/>
<path d="M73.5172 108.28C73.6657 107.901 73.7224 107.844 73.801 107.844C73.8797 107.844 73.9626 108.005 74.0849 108.28C74.3033 108.77 76.2117 113.521 76.9454 115.268C77.3821 116.299 77.7009 116.447 77.9586 116.526C78.1128 116.573 78.2733 116.596 78.4346 116.595C78.5001 116.595 78.5831 116.622 78.5831 116.687C78.5831 116.753 78.4477 116.783 78.3123 116.783C78.1769 116.783 77.2555 116.783 76.4301 116.757C76.1986 116.757 75.9934 116.757 75.9934 116.674C75.9934 116.591 76.0196 116.622 76.072 116.595C76.102 116.585 76.1292 116.567 76.1516 116.545C76.1741 116.522 76.1912 116.494 76.2016 116.464C76.2121 116.434 76.2157 116.402 76.2121 116.37C76.2086 116.339 76.198 116.308 76.1811 116.281L75.1112 113.661C75.085 113.604 75.0719 113.591 75.002 113.591H72.2725C72.2442 113.59 72.2165 113.599 72.1942 113.617C72.1719 113.635 72.1563 113.659 72.1503 113.687L71.4734 115.473C71.3711 115.718 71.3106 115.977 71.2943 116.242C71.2943 116.473 71.4996 116.556 71.7005 116.556H71.8096C71.9057 116.556 71.9319 116.595 71.9319 116.648C71.9319 116.7 71.8664 116.744 71.7572 116.744C71.4734 116.744 70.8227 116.705 70.6873 116.705C70.5519 116.705 69.9667 116.744 69.4819 116.744C69.3335 116.744 69.2505 116.718 69.2505 116.648C69.2516 116.635 69.2553 116.622 69.2614 116.61C69.2675 116.598 69.2758 116.588 69.286 116.579C69.2961 116.571 69.3079 116.564 69.3205 116.56C69.3332 116.556 69.3465 116.555 69.3597 116.556C69.4765 116.553 69.5931 116.545 69.709 116.53C70.2549 116.46 70.482 116.054 70.7135 115.473L73.5172 108.28ZM74.8273 113.084C74.8797 113.084 74.8797 113.054 74.8666 113.001L73.6875 109.844C73.622 109.669 73.5521 109.669 73.4866 109.844L72.3774 113.001C72.3774 113.054 72.3774 113.084 72.4167 113.084H74.8273Z" fill="black"/>
<path d="M88.8242 113.438C88.8242 115.133 88.8504 115.823 89.0644 116.028C89.2784 116.233 89.7151 116.299 90.6496 116.299C91.2741 116.299 91.8026 116.299 92.0864 115.945C92.2357 115.756 92.3334 115.532 92.3703 115.294C92.3703 115.216 92.4271 115.146 92.4926 115.146C92.5581 115.146 92.5755 115.198 92.5755 115.321C92.547 115.709 92.4871 116.095 92.3965 116.473C92.3179 116.744 92.2742 116.784 91.641 116.784C90.7675 116.784 90.1212 116.784 89.5666 116.744C89.012 116.705 88.6189 116.718 88.2564 116.718C88.204 116.718 87.9988 116.718 87.7717 116.718C87.5446 116.718 87.2695 116.744 87.0773 116.744C86.9594 116.744 86.8895 116.718 86.8895 116.648C86.8895 116.636 86.892 116.623 86.8969 116.612C86.9018 116.601 86.9089 116.59 86.9179 116.582C86.9269 116.573 86.9375 116.566 86.9492 116.562C86.9608 116.558 86.9732 116.556 86.9856 116.556C87.1097 116.553 87.2329 116.533 87.3524 116.5C87.5795 116.447 87.6057 116.229 87.6625 115.893C87.7269 115.063 87.7488 114.231 87.728 113.399V111.368C87.728 109.578 87.728 109.255 87.7018 108.888C87.6756 108.521 87.6057 108.307 87.2171 108.25C87.0808 108.234 86.9437 108.226 86.8066 108.224C86.7835 108.22 86.7621 108.21 86.7456 108.193C86.7291 108.177 86.7183 108.155 86.7148 108.132C86.7148 108.062 86.7672 108.036 86.9026 108.036C87.4442 108.036 88.2128 108.062 88.2564 108.062C88.3001 108.062 89.2041 108.036 89.5666 108.036C89.6889 108.036 89.7587 108.062 89.7587 108.132C89.7587 108.202 89.702 108.211 89.6627 108.211C89.6234 108.211 89.405 108.211 89.2696 108.237C88.9159 108.307 88.8329 108.482 88.8329 108.888C88.8329 109.294 88.8329 109.578 88.8329 111.368L88.8242 113.438Z" fill="black"/>
<path d="M103.651 113.412C103.651 114.521 103.651 115.429 103.707 115.905C103.747 116.242 103.786 116.46 104.144 116.512C104.323 116.543 104.504 116.562 104.686 116.569C104.698 116.569 104.71 116.57 104.722 116.575C104.734 116.579 104.744 116.586 104.753 116.594C104.762 116.603 104.769 116.613 104.774 116.625C104.779 116.636 104.782 116.648 104.782 116.661C104.782 116.718 104.725 116.757 104.59 116.757C103.926 116.757 103.157 116.718 103.1 116.718C103.044 116.718 102.288 116.757 101.921 116.757C101.799 116.757 101.733 116.731 101.733 116.661C101.733 116.648 101.736 116.636 101.741 116.625C101.746 116.613 101.753 116.603 101.762 116.594C101.771 116.586 101.781 116.579 101.793 116.575C101.805 116.57 101.817 116.569 101.83 116.569C101.952 116.566 102.074 116.546 102.192 116.512C102.423 116.46 102.463 116.242 102.506 115.905C102.559 115.429 102.572 114.521 102.572 113.412V111.381C102.572 109.59 102.572 109.267 102.546 108.9C102.52 108.534 102.423 108.333 102.166 108.28C102.045 108.254 101.922 108.239 101.799 108.237C101.775 108.235 101.753 108.224 101.736 108.208C101.72 108.191 101.709 108.169 101.707 108.145C101.707 108.075 101.76 108.049 101.895 108.049C102.288 108.049 103.035 108.075 103.1 108.075C103.166 108.075 103.926 108.049 104.293 108.049C104.428 108.049 104.485 108.075 104.485 108.145C104.48 108.168 104.468 108.189 104.451 108.206C104.434 108.222 104.412 108.233 104.389 108.237C104.289 108.234 104.189 108.243 104.092 108.263C103.764 108.333 103.699 108.494 103.655 108.9C103.611 109.307 103.655 109.59 103.655 111.381L103.651 113.412Z" fill="black"/>
<path d="M115.651 115.185C115.678 116.133 115.787 116.421 116.114 116.495C116.309 116.541 116.508 116.564 116.708 116.565C116.721 116.565 116.733 116.567 116.745 116.571C116.756 116.575 116.767 116.582 116.776 116.591C116.785 116.599 116.792 116.609 116.797 116.621C116.802 116.632 116.804 116.645 116.804 116.657C116.804 116.727 116.721 116.753 116.586 116.753C115.909 116.753 115.437 116.714 115.328 116.714C115.219 116.714 114.717 116.753 114.175 116.753C114.053 116.753 113.988 116.753 113.988 116.657C113.988 116.633 113.997 116.609 114.014 116.592C114.032 116.575 114.055 116.565 114.079 116.565C114.245 116.565 114.409 116.541 114.568 116.495C114.865 116.417 114.909 116.102 114.909 115.059V108.486C114.909 108.028 114.975 107.905 115.071 107.905C115.167 107.905 115.407 108.132 115.507 108.255C115.699 108.447 117.433 110.29 119.272 112.185C120.451 113.404 121.726 114.77 122.093 115.15L121.993 109.36C121.993 108.613 121.91 108.355 121.556 108.29C121.364 108.254 121.17 108.235 120.975 108.233C120.892 108.233 120.879 108.167 120.879 108.124C120.879 108.08 120.975 108.045 121.11 108.045C121.652 108.045 122.22 108.071 122.355 108.071C122.49 108.071 122.883 108.045 123.373 108.045C123.495 108.045 123.591 108.045 123.591 108.124C123.585 108.155 123.568 108.183 123.543 108.203C123.518 108.223 123.487 108.233 123.456 108.233C123.359 108.232 123.262 108.24 123.167 108.259C122.774 108.342 122.731 108.573 122.731 109.263L122.704 116.011C122.704 116.766 122.704 116.836 122.608 116.836C122.512 116.836 122.368 116.74 121.704 116.129C121.582 116.024 119.861 114.329 118.599 113.015C117.219 111.565 115.879 110.159 115.512 109.753L115.651 115.185Z" fill="black"/>
<path d="M135.832 108.28C135.98 107.901 136.037 107.844 136.116 107.844C136.194 107.844 136.282 108.005 136.4 108.28C136.618 108.77 138.526 113.521 139.26 115.268C139.697 116.299 140.02 116.447 140.273 116.526C140.427 116.573 140.588 116.596 140.749 116.595C140.819 116.595 140.898 116.622 140.898 116.687C140.898 116.753 140.762 116.783 140.627 116.783C140.492 116.783 139.57 116.783 138.745 116.757C138.513 116.757 138.308 116.757 138.308 116.674C138.308 116.591 138.334 116.622 138.387 116.595C138.417 116.585 138.444 116.567 138.466 116.545C138.489 116.522 138.506 116.494 138.516 116.464C138.527 116.434 138.53 116.402 138.527 116.37C138.523 116.339 138.513 116.308 138.496 116.281L137.426 113.661C137.4 113.604 137.387 113.591 137.317 113.591H134.578C134.55 113.59 134.522 113.599 134.5 113.617C134.478 113.635 134.462 113.659 134.456 113.687L133.788 115.473C133.687 115.718 133.628 115.978 133.613 116.242C133.613 116.473 133.814 116.556 134.02 116.556H134.142C134.238 116.556 134.264 116.595 134.264 116.648C134.264 116.7 134.199 116.744 134.089 116.744C133.806 116.744 133.155 116.705 133.019 116.705C132.884 116.705 132.303 116.744 131.814 116.744C131.666 116.744 131.583 116.718 131.583 116.648C131.586 116.622 131.599 116.598 131.619 116.581C131.639 116.564 131.665 116.555 131.692 116.556C131.81 116.553 131.928 116.545 132.046 116.53C132.587 116.46 132.814 116.054 133.046 115.473L135.832 108.28ZM137.142 113.084C137.199 113.084 137.199 113.054 137.181 113.001L136.007 109.844C135.937 109.669 135.871 109.669 135.801 109.844L134.692 113.001C134.692 113.054 134.692 113.084 134.731 113.084H137.142Z" fill="black"/>
<path d="M66.8879 127.884C66.8879 128.496 66.8879 128.994 66.9185 129.26C66.9185 129.443 66.9753 129.583 67.1631 129.609C67.2586 129.623 67.3548 129.632 67.4513 129.636C67.4906 129.636 67.5037 129.636 67.5037 129.675C67.5037 129.714 67.4688 129.723 67.3989 129.723C67.0495 129.723 66.6521 129.723 66.6215 129.723C66.591 129.723 66.1848 129.723 65.997 129.723C65.9272 129.723 65.8966 129.723 65.8966 129.675C65.8966 129.627 65.8966 129.636 65.9446 129.636C66.0094 129.633 66.0738 129.625 66.1368 129.609C66.2634 129.583 66.294 129.443 66.3202 129.26C66.3508 128.994 66.3508 128.496 66.3508 127.884V127.216C66.3515 127.211 66.3511 127.207 66.3496 127.202C66.3481 127.197 66.3456 127.193 66.3422 127.19C66.3388 127.186 66.3346 127.184 66.33 127.182C66.3255 127.181 66.3206 127.181 66.3158 127.181H63.6169C63.6169 127.181 63.582 127.181 63.582 127.216V127.884C63.582 128.496 63.582 128.994 63.6126 129.26C63.6126 129.443 63.6693 129.583 63.8615 129.609C63.9556 129.623 64.0503 129.632 64.1454 129.636C64.1847 129.636 64.1978 129.636 64.1978 129.675C64.1978 129.714 64.1628 129.723 64.093 129.723C63.7436 129.723 63.3462 129.723 63.3156 129.723C63.285 129.723 62.8789 129.723 62.6911 129.723C62.6212 129.723 62.5907 129.723 62.5907 129.675C62.5907 129.627 62.5907 129.636 62.6431 129.636C62.7064 129.633 62.7693 129.625 62.8309 129.609C62.9575 129.583 62.9881 129.443 63.0143 129.26C63.0492 128.994 63.0492 128.496 63.0492 127.884V126.766C63.0492 125.775 63.0492 125.6 63.0492 125.395C63.0492 125.19 62.9837 125.076 62.7741 125.033C62.7029 125.026 62.6313 125.026 62.5601 125.033C62.5339 125.033 62.5077 125.033 62.5077 124.993C62.5077 124.954 62.5383 124.945 62.6081 124.945C62.8964 124.945 63.2938 124.945 63.3287 124.945C63.3637 124.945 63.7654 124.945 63.9488 124.945C64.0187 124.945 64.0493 124.945 64.0493 124.993C64.0493 125.041 64.0493 125.033 64.0013 125.033C63.9475 125.028 63.8934 125.028 63.8397 125.033C63.6693 125.063 63.6213 125.172 63.6082 125.395C63.5951 125.618 63.6082 125.775 63.6082 126.766V126.897C63.6082 126.932 63.6082 126.937 63.6431 126.937H66.3377C66.3377 126.937 66.3726 126.937 66.3726 126.897V126.766C66.3726 125.775 66.3726 125.6 66.3726 125.395C66.3726 125.19 66.3071 125.076 66.0975 125.033C66.0263 125.026 65.9547 125.026 65.8835 125.033C65.8573 125.033 65.8311 125.033 65.8311 124.993C65.8311 124.954 65.8617 124.945 65.9315 124.945C66.2198 124.945 66.6172 124.945 66.6521 124.945C66.687 124.945 67.0888 124.945 67.2722 124.945C67.3421 124.945 67.3727 124.945 67.3727 124.993C67.3721 124.999 67.3705 125.005 67.3677 125.01C67.365 125.015 67.3613 125.019 67.3569 125.023C67.3524 125.027 67.3472 125.029 67.3417 125.031C67.3362 125.033 67.3304 125.033 67.3246 125.033C67.2709 125.028 67.2168 125.028 67.1631 125.033C66.9927 125.063 66.9403 125.172 66.9272 125.395C66.9141 125.618 66.9272 125.775 66.9272 126.766L66.8879 127.884Z" fill="black"/>
<path d="M70.993 125.749C71.0629 125.575 71.0891 125.544 71.1284 125.544C71.1677 125.544 71.2026 125.618 71.2594 125.74C71.3642 125.968 72.2551 128.195 72.6001 129.016C72.8054 129.496 72.9538 129.566 73.0761 129.605C73.1484 129.627 73.2235 129.637 73.2988 129.636C73.3294 129.636 73.3687 129.636 73.3687 129.68C73.3687 129.723 73.3032 129.723 73.2421 129.723C73.1809 129.723 72.7442 129.723 72.3686 129.723C72.2595 129.723 72.1721 129.723 72.1721 129.684C72.1721 129.645 72.1721 129.658 72.2071 129.645C72.2213 129.64 72.2343 129.633 72.245 129.622C72.2558 129.612 72.2641 129.6 72.2691 129.586C72.2742 129.572 72.276 129.557 72.2743 129.542C72.2726 129.527 72.2675 129.513 72.2595 129.501L71.7572 128.26C71.7572 128.234 71.7572 128.23 71.7092 128.23H70.3991C70.3856 128.23 70.3725 128.234 70.3616 128.242C70.3507 128.25 70.3424 128.261 70.3379 128.273L70.0235 129.147C69.9748 129.262 69.9467 129.385 69.9405 129.509C69.9405 129.614 70.0366 129.653 70.1283 129.653H70.1807C70.2244 129.653 70.2375 129.653 70.2375 129.697C70.2375 129.741 70.2069 129.741 70.1545 129.741C70.0235 129.741 69.7178 129.741 69.6523 129.741C69.5868 129.741 69.316 129.741 69.0889 129.741C69.019 129.741 68.9797 129.741 68.9797 129.697C68.9803 129.691 68.9821 129.685 68.985 129.679C68.9879 129.673 68.992 129.668 68.9968 129.664C69.0017 129.66 69.0073 129.657 69.0134 129.655C69.0195 129.653 69.0258 129.653 69.0321 129.653C69.0874 129.658 69.1429 129.658 69.1981 129.653C69.4514 129.623 69.5606 129.431 69.6654 129.16L70.993 125.749ZM71.6175 127.998C71.6393 127.998 71.6393 127.998 71.6175 127.959L71.0672 126.483C71.0323 126.4 71.0017 126.4 70.9712 126.483L70.4515 127.959C70.4515 127.985 70.4515 127.998 70.4515 127.998H71.6175Z" fill="black"/>
<path d="M75.7575 128.138C75.7575 128.658 75.7575 129.086 75.7837 129.309C75.8056 129.466 75.823 129.566 75.989 129.592C76.0728 129.606 76.1574 129.615 76.2423 129.619C76.248 129.619 76.2537 129.62 76.259 129.622C76.2643 129.624 76.2691 129.627 76.2732 129.631C76.2772 129.635 76.2804 129.64 76.2826 129.646C76.2848 129.651 76.286 129.657 76.286 129.662C76.286 129.688 76.2598 129.706 76.1986 129.706C75.8842 129.706 75.5261 129.706 75.4999 129.706C75.4737 129.706 75.1156 129.706 74.9453 129.706C74.8885 129.706 74.8579 129.706 74.8579 129.662C74.8579 129.657 74.859 129.651 74.8612 129.646C74.8634 129.64 74.8666 129.635 74.8707 129.631C74.8748 129.627 74.8796 129.624 74.8849 129.622C74.8902 129.62 74.8958 129.619 74.9016 129.619C74.9592 129.617 75.0164 129.608 75.0719 129.592C75.1811 129.566 75.1985 129.466 75.2204 129.309C75.2466 129.086 75.251 128.658 75.251 128.138V127.186C75.251 126.348 75.251 126.199 75.251 126.024C75.251 125.85 75.1942 125.758 75.0719 125.732H74.9016C74.8903 125.731 74.8798 125.726 74.8718 125.718C74.8638 125.71 74.8589 125.699 74.8579 125.688C74.8579 125.658 74.8841 125.645 74.9453 125.645H75.513H76.072C76.1331 125.645 76.1593 125.645 76.1593 125.688C76.157 125.699 76.1517 125.709 76.1439 125.716C76.1362 125.724 76.1264 125.73 76.1156 125.732C76.0692 125.726 76.0223 125.726 75.9759 125.732C75.823 125.762 75.7925 125.841 75.7794 126.029C75.7663 126.217 75.7794 126.352 75.7794 127.19L75.7575 128.138Z" fill="black"/>
<path d="M78.7404 127.203C78.7404 126.365 78.7404 126.216 78.7404 126.042C78.7404 125.867 78.6967 125.771 78.5089 125.745H78.3211C78.3104 125.743 78.3006 125.737 78.2928 125.729C78.2851 125.722 78.2798 125.712 78.2775 125.701C78.2775 125.671 78.3037 125.657 78.3648 125.657C78.6181 125.657 78.9937 125.657 79.0242 125.657H79.723C80.0861 125.63 80.4491 125.711 80.7667 125.889C80.8825 125.975 80.9772 126.086 81.0438 126.214C81.1104 126.342 81.147 126.483 81.151 126.627C81.1401 126.871 81.0725 127.11 80.9535 127.324C80.8345 127.537 80.6674 127.721 80.4654 127.859C80.9021 128.431 81.3126 128.92 81.6358 129.256C81.7902 129.452 82.0106 129.586 82.2559 129.632C82.3213 129.637 82.3871 129.637 82.4524 129.632C82.4588 129.631 82.4651 129.632 82.4712 129.634C82.4773 129.635 82.4829 129.638 82.4878 129.643C82.4926 129.647 82.4966 129.652 82.4996 129.657C82.5025 129.663 82.5043 129.669 82.5049 129.675C82.5049 129.71 82.4743 129.719 82.3695 129.719H82.0201C81.8163 129.738 81.6113 129.701 81.4262 129.614C81.1229 129.401 80.8634 129.131 80.6619 128.819C80.4261 128.527 80.1815 128.177 80.0593 128.033C80.0507 128.022 80.0394 128.013 80.0265 128.006C80.0135 128 79.9993 127.998 79.985 127.998H79.2732C79.247 127.998 79.2339 127.998 79.2339 128.042V128.169C79.2339 128.688 79.2339 129.108 79.2601 129.33C79.2601 129.487 79.3125 129.588 79.4828 129.614C79.5651 129.628 79.6483 129.637 79.7317 129.64C79.7376 129.64 79.7436 129.64 79.7492 129.642C79.7548 129.644 79.76 129.647 79.7642 129.652C79.7684 129.656 79.7716 129.661 79.7735 129.666C79.7754 129.672 79.7761 129.678 79.7754 129.684C79.7754 129.71 79.7492 129.728 79.6837 129.728C79.3824 129.728 79.0242 129.728 78.998 129.728C78.9718 129.728 78.6181 129.728 78.4478 129.728C78.391 129.728 78.3604 129.728 78.3604 129.684C78.3604 129.672 78.365 129.661 78.3732 129.653C78.3814 129.645 78.3925 129.64 78.4041 129.64C78.4617 129.638 78.5188 129.629 78.5744 129.614C78.6836 129.588 78.6967 129.487 78.7185 129.33C78.7529 128.941 78.7645 128.55 78.7535 128.16L78.7404 127.203ZM79.2208 127.662C79.2209 127.676 79.2245 127.69 79.2314 127.702C79.2383 127.714 79.2482 127.725 79.2601 127.732C79.4594 127.793 79.6674 127.821 79.8758 127.815C80.0278 127.828 80.1802 127.795 80.3126 127.719C80.4302 127.618 80.5222 127.49 80.5806 127.347C80.6391 127.203 80.6625 127.048 80.6488 126.893C80.6675 126.758 80.6562 126.62 80.6157 126.489C80.5751 126.359 80.5064 126.238 80.4144 126.137C80.3223 126.036 80.2092 125.956 80.0829 125.903C79.9567 125.851 79.8204 125.826 79.6837 125.832C79.549 125.832 79.4146 125.844 79.2819 125.867C79.2692 125.872 79.2582 125.88 79.2504 125.891C79.2426 125.902 79.2384 125.915 79.2382 125.928L79.2208 127.662Z" fill="black"/>
<path d="M86.693 128.408C86.7033 128.089 86.7991 127.779 86.9705 127.51C87.1418 127.241 87.3824 127.024 87.6669 126.88C87.4668 126.632 87.356 126.324 87.3524 126.006C87.3878 125.673 87.5496 125.365 87.8048 125.148C88.0599 124.93 88.3888 124.818 88.7237 124.836C88.9887 124.827 89.2519 124.881 89.4923 124.993C89.5216 125.008 89.5455 125.031 89.5604 125.06C89.5754 125.089 89.5806 125.122 89.5753 125.155C89.5733 125.398 89.5573 125.642 89.5273 125.884C89.5273 125.98 89.4923 125.993 89.4661 125.993C89.4399 125.993 89.4268 125.967 89.4268 125.871C89.4315 125.773 89.4165 125.675 89.3827 125.582C89.349 125.49 89.2972 125.406 89.2303 125.334C89.1497 125.246 89.052 125.175 88.9431 125.126C88.8342 125.077 88.7164 125.051 88.5971 125.05C88.4875 125.045 88.3782 125.064 88.2763 125.104C88.1744 125.145 88.0823 125.207 88.006 125.286C87.9297 125.364 87.8709 125.458 87.8335 125.562C87.7962 125.665 87.781 125.775 87.7891 125.884C87.7891 126.377 88.1342 126.792 88.7936 127.508C89.0076 127.744 89.7893 128.474 89.9946 128.644C90.201 128.331 90.3132 127.966 90.3177 127.591C90.3196 127.476 90.2756 127.364 90.1954 127.281C90.1089 127.209 89.9978 127.173 89.8854 127.181C89.8461 127.181 89.8068 127.181 89.8068 127.133C89.8068 127.085 89.8592 127.089 89.9116 127.089C90.1655 127.089 90.4192 127.104 90.6715 127.133C90.7675 127.133 90.785 127.198 90.785 127.26C90.7301 127.811 90.5111 128.332 90.1561 128.757C90.4251 128.996 90.7178 129.207 91.0296 129.386C91.2589 129.526 91.5174 129.611 91.7851 129.635C91.8419 129.635 91.8724 129.635 91.8724 129.679C91.8724 129.723 91.8244 129.723 91.7676 129.723H91.1431C90.6758 129.723 90.523 129.679 89.833 129.129C89.6302 129.347 89.3841 129.521 89.1104 129.639C88.8367 129.757 88.5414 129.817 88.2433 129.814C88.0483 129.828 87.8525 129.802 87.6677 129.738C87.483 129.674 87.3131 129.573 87.1682 129.442C87.0234 129.311 86.9066 129.151 86.825 128.974C86.7433 128.796 86.6984 128.604 86.693 128.408ZM89.6583 129.011C89.3045 128.718 88.6757 128.115 88.5097 127.941C88.2444 127.663 87.9937 127.371 87.7586 127.067C87.5792 127.18 87.4325 127.338 87.3329 127.525C87.2333 127.712 87.1843 127.921 87.1908 128.133C87.1832 128.306 87.2101 128.479 87.2698 128.642C87.3295 128.804 87.4209 128.954 87.5387 129.081C87.6565 129.208 87.7983 129.31 87.956 129.382C88.1137 129.454 88.2841 129.494 88.4573 129.5C88.6803 129.505 88.902 129.464 89.1086 129.38C89.3152 129.296 89.5023 129.17 89.6583 129.011Z" fill="black"/>
<path d="M96.7811 126.766C96.7811 125.775 96.7811 125.6 96.7811 125.395C96.7811 125.19 96.7199 125.076 96.5103 125.033C96.4377 125.026 96.3646 125.026 96.2919 125.033C96.2862 125.033 96.2804 125.033 96.2749 125.031C96.2693 125.029 96.2642 125.027 96.2597 125.023C96.2552 125.019 96.2516 125.015 96.2488 125.01C96.2461 125.005 96.2444 124.999 96.2439 124.993C96.2439 124.954 96.2745 124.945 96.3443 124.945C96.6282 124.945 97.03 124.945 97.0605 124.945C97.2134 124.945 97.4623 124.945 97.7549 124.945C98.7943 124.945 99.0214 125.579 99.0214 125.893C99.0073 126.114 98.9472 126.331 98.8449 126.528C98.7426 126.725 98.6005 126.898 98.4275 127.037C98.7271 127.118 98.9939 127.291 99.1905 127.532C99.387 127.772 99.5035 128.068 99.5236 128.378C99.5236 129.055 98.9908 129.762 97.9078 129.762L97.4711 129.74H97.0824H96.8291H96.4623C96.3924 129.74 96.3618 129.74 96.3618 129.692C96.3618 129.644 96.3618 129.653 96.4098 129.653C96.4746 129.651 96.539 129.642 96.602 129.627C96.7286 129.601 96.7592 129.461 96.7854 129.278C96.816 129.011 96.816 128.513 96.816 127.902L96.7811 126.766ZM97.2876 126.906C97.2851 126.922 97.2886 126.938 97.2976 126.951C97.3065 126.964 97.3202 126.973 97.3357 126.976C97.4629 126.995 97.5914 127.004 97.72 127.002C98.0781 127.002 98.1567 127.002 98.3008 126.836C98.4499 126.656 98.5304 126.428 98.5279 126.194C98.5279 125.666 98.2921 125.103 97.6545 125.103C97.5518 125.101 97.4492 125.111 97.3488 125.133C97.292 125.133 97.2702 125.168 97.2702 125.203L97.2876 126.906ZM97.2876 127.579C97.2876 128.068 97.2876 128.854 97.2876 128.95C97.2876 129.26 97.2876 129.352 97.5016 129.443C97.6802 129.511 97.8699 129.543 98.0606 129.54C98.1786 129.543 98.2961 129.523 98.4056 129.478C98.5151 129.434 98.6141 129.368 98.6963 129.283C98.7786 129.198 98.8422 129.097 98.8831 128.987C98.9241 128.876 98.9414 128.758 98.9341 128.64C98.9415 128.394 98.8895 128.15 98.7822 127.929C98.675 127.708 98.5158 127.516 98.3183 127.369C98.1633 127.262 97.9822 127.199 97.7942 127.186C97.7113 127.186 97.3925 127.186 97.2964 127.186C97.2702 127.186 97.2571 127.186 97.2571 127.229L97.2876 127.579Z" fill="black"/>
<path d="M102.043 127.203C102.043 126.365 102.043 126.216 102.043 126.042C102.043 125.867 102 125.771 101.812 125.745H101.624C101.613 125.743 101.603 125.738 101.595 125.73C101.587 125.722 101.582 125.712 101.58 125.701C101.58 125.67 101.58 125.657 101.668 125.657C101.921 125.657 102.284 125.657 102.314 125.657H103.65C103.735 125.65 103.82 125.638 103.904 125.622C103.93 125.622 103.952 125.601 103.978 125.601C104.004 125.601 104.004 125.622 104.004 125.649C104.004 125.675 103.974 125.749 103.961 125.902C103.961 125.954 103.961 126.195 103.93 126.26C103.899 126.326 103.904 126.317 103.878 126.317C103.851 126.317 103.834 126.291 103.834 126.247C103.833 126.181 103.821 126.116 103.799 126.055C103.764 125.967 103.707 125.928 103.402 125.893C103.305 125.893 102.659 125.871 102.594 125.871C102.528 125.871 102.563 125.893 102.563 125.928V127.395C102.563 127.435 102.563 127.452 102.594 127.452C102.624 127.452 103.402 127.452 103.528 127.452C103.655 127.452 103.742 127.452 103.799 127.378C103.856 127.304 103.864 127.308 103.882 127.308C103.899 127.308 103.917 127.308 103.917 127.352C103.895 127.45 103.879 127.549 103.869 127.649C103.869 127.758 103.847 127.959 103.847 127.998C103.847 128.037 103.847 128.099 103.795 128.099C103.742 128.099 103.755 128.099 103.755 128.051C103.758 127.99 103.749 127.929 103.729 127.872C103.729 127.797 103.664 127.732 103.445 127.706C103.227 127.679 102.698 127.679 102.602 127.679C102.506 127.679 102.563 127.701 102.563 127.719V128.155C102.563 128.343 102.563 128.968 102.563 129.077C102.563 129.439 102.677 129.514 103.231 129.514C103.419 129.523 103.608 129.503 103.79 129.457C103.863 129.423 103.925 129.371 103.969 129.304C104.014 129.238 104.04 129.161 104.044 129.081C104.044 129.02 104.07 128.998 104.1 128.998C104.131 128.998 104.135 129.042 104.135 129.081C104.12 129.256 104.096 129.429 104.061 129.601C104.022 129.741 103.965 129.741 103.751 129.741C103.314 129.741 103.008 129.741 102.777 129.741C102.546 129.741 102.397 129.741 102.314 129.741H102.074H101.751C101.694 129.741 101.663 129.741 101.663 129.697C101.663 129.685 101.668 129.674 101.676 129.666C101.684 129.658 101.696 129.653 101.707 129.653C101.764 129.649 101.821 129.64 101.877 129.627C101.987 129.627 102 129.5 102.022 129.343C102.056 128.954 102.068 128.563 102.056 128.173L102.043 127.203Z" fill="black"/>
<path d="M107.537 125.749C107.607 125.575 107.633 125.544 107.668 125.544C107.703 125.544 107.747 125.618 107.804 125.74C107.904 125.968 108.799 128.195 109.144 129.016C109.345 129.496 109.498 129.566 109.62 129.605C109.693 129.627 109.768 129.637 109.843 129.636C109.874 129.636 109.913 129.636 109.913 129.68C109.913 129.723 109.848 129.723 109.782 129.723C109.717 129.723 109.289 129.723 108.909 129.723C108.804 129.723 108.712 129.723 108.712 129.684C108.712 129.645 108.712 129.658 108.751 129.645C108.765 129.639 108.777 129.631 108.786 129.62C108.796 129.61 108.804 129.598 108.809 129.584C108.814 129.571 108.816 129.556 108.815 129.542C108.814 129.527 108.81 129.513 108.804 129.501L108.302 128.26C108.302 128.234 108.28 128.23 108.249 128.23H106.961C106.948 128.229 106.935 128.234 106.925 128.241C106.914 128.249 106.907 128.261 106.904 128.273L106.585 129.147C106.54 129.263 106.513 129.385 106.507 129.509C106.507 129.614 106.598 129.653 106.694 129.653H106.747C106.791 129.653 106.804 129.653 106.804 129.697C106.804 129.741 106.773 129.741 106.721 129.741C106.585 129.741 106.284 129.741 106.218 129.741C106.153 129.741 105.882 129.741 105.655 129.741C105.585 129.741 105.546 129.741 105.546 129.697C105.546 129.691 105.548 129.685 105.551 129.679C105.554 129.673 105.558 129.668 105.563 129.664C105.568 129.66 105.574 129.657 105.58 129.655C105.586 129.653 105.592 129.653 105.598 129.653C105.652 129.657 105.706 129.657 105.76 129.653C106.018 129.623 106.122 129.431 106.232 129.16L107.537 125.749ZM108.157 127.998C108.184 127.998 108.184 127.998 108.179 127.959L107.625 126.483C107.594 126.4 107.564 126.4 107.529 126.483L107.009 127.959C107.009 127.985 107.009 127.998 107.009 127.998H108.157Z" fill="black"/>
<path d="M111.507 127.203C111.507 126.365 111.507 126.216 111.507 126.041C111.507 125.867 111.463 125.771 111.28 125.744H111.088C111.077 125.742 111.067 125.737 111.059 125.729C111.052 125.721 111.046 125.712 111.044 125.701C111.044 125.67 111.07 125.657 111.136 125.657C111.389 125.657 111.725 125.657 111.773 125.657H112.341C112.402 125.657 112.437 125.657 112.437 125.701C112.434 125.713 112.428 125.723 112.418 125.731C112.409 125.739 112.397 125.744 112.385 125.744C112.338 125.739 112.291 125.739 112.245 125.744C112.101 125.771 112.066 125.867 112.053 126.041C112.04 126.216 112.053 126.365 112.053 127.203V127.959C112.053 128.74 112.228 129.063 112.468 129.269C112.578 129.372 112.709 129.452 112.852 129.502C112.995 129.552 113.146 129.573 113.298 129.561C113.462 129.564 113.626 129.531 113.776 129.465C113.927 129.399 114.062 129.3 114.171 129.177C114.428 128.791 114.541 128.327 114.49 127.867V127.186C114.49 126.347 114.49 126.199 114.49 126.024C114.49 125.849 114.45 125.753 114.267 125.727H114.075C114.064 125.725 114.054 125.72 114.046 125.712C114.038 125.704 114.033 125.694 114.031 125.683C114.031 125.653 114.057 125.64 114.123 125.64C114.367 125.64 114.691 125.64 114.726 125.64C114.76 125.64 115.027 125.64 115.193 125.64C115.258 125.64 115.285 125.64 115.285 125.683C115.283 125.695 115.277 125.706 115.268 125.713C115.259 125.721 115.248 125.726 115.237 125.727C115.19 125.722 115.143 125.722 115.097 125.727C114.948 125.758 114.913 125.849 114.9 126.024C114.887 126.199 114.9 126.347 114.9 127.186V127.766C114.9 128.347 114.822 129.002 114.381 129.382C114.054 129.656 113.636 129.797 113.21 129.775C112.79 129.793 112.377 129.658 112.049 129.395C111.867 129.211 111.729 128.988 111.645 128.743C111.56 128.498 111.531 128.238 111.559 127.98L111.507 127.203Z" fill="black"/>
<path d="M118.805 128.138C118.805 128.657 118.805 129.085 118.831 129.308C118.853 129.465 118.879 129.566 119.049 129.592C119.133 129.606 119.218 129.615 119.302 129.618C119.308 129.617 119.314 129.618 119.32 129.62C119.326 129.622 119.331 129.625 119.335 129.629C119.339 129.633 119.342 129.639 119.344 129.644C119.346 129.65 119.347 129.656 119.346 129.662C119.346 129.688 119.32 129.705 119.259 129.705C118.953 129.705 118.599 129.705 118.564 129.705C118.529 129.705 118.154 129.705 117.988 129.705C117.927 129.705 117.901 129.705 117.901 129.662C117.901 129.656 117.902 129.651 117.904 129.646C117.906 129.64 117.909 129.636 117.914 129.632C117.918 129.628 117.923 129.626 117.928 129.624C117.933 129.622 117.939 129.622 117.944 129.622C118 129.621 118.056 129.614 118.11 129.601C118.224 129.574 118.254 129.465 118.272 129.308C118.298 129.085 118.298 128.657 118.298 128.138V125.875H117.494C117.145 125.875 117.01 125.923 116.927 126.046C116.891 126.1 116.862 126.159 116.839 126.22C116.839 126.264 116.809 126.273 116.783 126.273C116.771 126.271 116.761 126.265 116.754 126.256C116.747 126.247 116.743 126.236 116.743 126.225C116.743 126.168 116.857 125.688 116.866 125.64C116.874 125.591 116.901 125.539 116.922 125.539C116.944 125.539 117.018 125.583 117.167 125.605C117.315 125.626 117.542 125.631 117.604 125.631H119.73C119.865 125.632 119.999 125.623 120.132 125.605L120.289 125.578C120.316 125.578 120.316 125.609 120.316 125.64C120.316 125.805 120.316 126.194 120.316 126.255C120.316 126.316 120.289 126.33 120.263 126.33C120.237 126.33 120.224 126.308 120.22 126.233V126.177C120.198 126.011 120.08 125.888 119.543 125.875H118.844L118.805 128.138Z" fill="black"/>
<path d="M123.368 128.322C123.384 128.13 123.341 127.938 123.246 127.771C123.202 127.688 122.447 126.487 122.259 126.204C122.163 126.048 122.036 125.913 121.888 125.806C121.817 125.765 121.738 125.74 121.656 125.732C121.649 125.732 121.641 125.732 121.634 125.729C121.627 125.727 121.62 125.723 121.615 125.718C121.609 125.714 121.604 125.708 121.601 125.701C121.598 125.694 121.596 125.687 121.595 125.679C121.595 125.658 121.595 125.645 121.669 125.645H122.22C122.259 125.645 122.486 125.645 122.7 125.645C122.765 125.645 122.779 125.645 122.779 125.679C122.779 125.714 122.739 125.719 122.691 125.741C122.671 125.745 122.653 125.756 122.64 125.772C122.628 125.788 122.621 125.808 122.621 125.828C122.628 125.903 122.653 125.975 122.696 126.038L123.713 127.719C123.827 127.492 124.525 126.335 124.626 126.155C124.683 126.073 124.716 125.976 124.722 125.876C124.727 125.846 124.72 125.815 124.703 125.79C124.686 125.765 124.66 125.747 124.63 125.741C124.582 125.741 124.547 125.701 124.547 125.675C124.547 125.649 124.582 125.645 124.639 125.645C124.783 125.645 124.98 125.645 125.028 125.645H125.574C125.608 125.645 125.643 125.645 125.643 125.675C125.641 125.692 125.633 125.707 125.62 125.717C125.607 125.728 125.59 125.733 125.574 125.732C125.482 125.733 125.392 125.757 125.312 125.802C125.202 125.872 125.108 125.963 125.032 126.068C124.849 126.282 124.063 127.553 123.945 127.784C123.877 127.955 123.853 128.14 123.875 128.322V128.785C123.875 128.876 123.875 129.103 123.875 129.326C123.875 129.483 123.923 129.584 124.089 129.61C124.173 129.624 124.257 129.632 124.342 129.636C124.348 129.635 124.354 129.636 124.36 129.638C124.365 129.64 124.37 129.643 124.374 129.647C124.379 129.652 124.382 129.657 124.384 129.662C124.386 129.668 124.386 129.674 124.386 129.68C124.386 129.706 124.355 129.723 124.298 129.723C123.988 129.723 123.626 129.723 123.595 129.723C123.565 129.723 123.215 129.723 123.049 129.723C122.984 129.723 122.958 129.723 122.958 129.68C122.958 129.674 122.959 129.668 122.961 129.662C122.964 129.656 122.967 129.651 122.972 129.647C122.976 129.643 122.982 129.64 122.988 129.638C122.993 129.636 123 129.635 123.006 129.636C123.06 129.634 123.115 129.625 123.167 129.61C123.285 129.584 123.32 129.483 123.333 129.326C123.333 129.103 123.333 128.889 123.333 128.785L123.368 128.322Z" fill="black"/>
<path d="M88.8109 63.7969C88.9832 63.7958 89.1492 63.7321 89.2782 63.6179C89.4156 63.4939 89.4987 63.3208 89.5093 63.136C89.5199 62.9513 89.4573 62.7698 89.335 62.6309C88.2462 61.5066 86.7889 60.812 85.2298 60.6744C83.0463 60.4255 80.9675 61.1111 79.9281 62.4606C79.8708 62.5331 79.8283 62.6163 79.8031 62.7052C79.7778 62.7942 79.7704 62.8873 79.7811 62.9791C79.7919 63.071 79.8206 63.1598 79.8657 63.2406C79.9108 63.3213 79.9713 63.3924 80.0439 63.4497C80.1164 63.5071 80.1995 63.5496 80.2885 63.5748C80.3775 63.6 80.4706 63.6075 80.5624 63.5967C80.6543 63.586 80.7431 63.5572 80.8238 63.5122C80.9046 63.4671 80.9757 63.4065 81.033 63.334C81.4784 62.8181 82.0689 62.4483 82.7275 62.2728C82.7275 62.2728 82.7275 62.299 82.7275 62.3165C82.7254 62.8449 82.9259 63.354 83.2878 63.7391C83.6496 64.1241 84.1453 64.3559 84.6728 64.3867C85.2004 64.4174 85.7196 64.2449 86.1238 63.9045C86.528 63.5641 86.7863 63.0817 86.8457 62.5566C87.3891 62.7904 87.8794 63.1321 88.2868 63.5611C88.3525 63.6353 88.4332 63.6947 88.5235 63.7354C88.6139 63.776 88.7118 63.797 88.8109 63.7969ZM85.422 62.1287C85.4396 62.1867 85.4484 62.2471 85.4482 62.3077C85.45 62.4079 85.4292 62.5072 85.3872 62.5982C85.3452 62.6892 85.2831 62.7694 85.2056 62.833C85.1282 62.8966 85.0373 62.9418 84.9399 62.9653C84.8425 62.9887 84.741 62.9898 84.6431 62.9685C84.5452 62.9471 84.4534 62.9039 84.3746 62.842C84.2958 62.7801 84.232 62.7012 84.188 62.6112C84.1441 62.5211 84.121 62.4223 84.1207 62.3221C84.1204 62.2219 84.1427 62.1229 84.1861 62.0326C84.4778 62.0243 84.7697 62.0374 85.0595 62.0719C85.1818 62.0719 85.2997 62.1025 85.4176 62.1243L85.422 62.1287Z" fill="black"/>
<path d="M105.755 62.2641C106.414 62.4397 107.004 62.8095 107.45 63.3253C107.507 63.3979 107.578 63.4584 107.659 63.5035C107.74 63.5486 107.829 63.5773 107.921 63.5881C108.012 63.5988 108.105 63.5914 108.194 63.5661C108.283 63.5409 108.367 63.4984 108.439 63.4411C108.512 63.3837 108.572 63.3126 108.617 63.2319C108.662 63.1511 108.691 63.0623 108.702 62.9705C108.713 62.8786 108.705 62.7855 108.68 62.6966C108.655 62.6076 108.612 62.5245 108.555 62.4519C107.515 61.1418 105.432 60.4168 103.257 60.6658C101.696 60.8001 100.235 61.4933 99.1436 62.6179C99.0199 62.757 98.9565 62.9394 98.9671 63.1253C98.9777 63.3111 99.0616 63.4851 99.2004 63.6092C99.3293 63.7235 99.4954 63.7871 99.6677 63.7883C99.7668 63.7884 99.8647 63.7674 99.9551 63.7267C100.045 63.6861 100.126 63.6266 100.192 63.5524C100.601 63.1193 101.094 62.7745 101.642 62.5393C101.701 63.0643 101.959 63.5467 102.364 63.8871C102.768 64.2275 103.287 64.4 103.814 64.3693C104.342 64.3385 104.838 64.1067 105.2 63.7217C105.561 63.3366 105.762 62.8275 105.76 62.2991C105.76 62.2991 105.755 62.2772 105.755 62.2641ZM103.694 62.9672C103.519 62.9672 103.351 62.8979 103.226 62.7744C103.102 62.6508 103.032 62.4831 103.03 62.3078C103.03 62.2471 103.039 62.1868 103.057 62.1287C103.174 62.1287 103.292 62.0894 103.415 62.0763C103.704 62.0419 103.996 62.0287 104.288 62.037C104.334 62.1374 104.354 62.2478 104.347 62.358C104.339 62.4682 104.304 62.5747 104.244 62.6677C104.185 62.7607 104.103 62.8373 104.006 62.8904C103.909 62.9435 103.8 62.9714 103.69 62.9716L103.694 62.9672Z" fill="black"/>
<path d="M125.892 53.307C125.889 51.5104 125.336 49.7579 124.306 48.2859C123.276 46.8139 121.819 45.6932 120.132 45.075C120.626 43.8631 120.88 42.5667 120.879 41.2581C120.876 38.9789 120.109 36.7664 118.702 34.9736C117.294 33.1808 115.327 31.9109 113.114 31.3665C113.028 28.7226 111.918 26.2154 110.019 24.3741C108.12 22.5327 105.58 21.501 102.934 21.4968C102.282 21.4991 101.631 21.562 100.991 21.6846C101.266 21.3133 101.537 20.9247 101.79 20.5142C103.39 17.8403 104.33 14.8238 104.533 11.7144L104.568 10.6619L103.637 11.1685C100.944 12.7374 98.663 14.9244 96.9818 17.5489C96.7198 17.971 96.484 18.3946 96.2743 18.8197C96.2161 18.4995 96.1506 18.1807 96.0778 17.8633C95.3161 14.8352 93.8429 12.0325 91.7806 9.68802L91.0731 8.91504L90.7674 9.92822C89.9764 12.943 89.9106 16.1022 90.5752 19.1472C90.9002 20.5086 91.3824 21.8276 92.012 23.0777C90.5052 22.1285 88.7758 21.5912 86.9964 21.5194C85.2171 21.4477 83.45 21.8439 81.8716 22.6687C80.2933 23.4934 78.959 24.7178 78.0018 26.2195C77.0446 27.7212 76.4982 29.4478 76.417 31.2268C74.9254 31.4873 73.5108 32.0772 72.2761 32.9536C71.0414 33.83 70.0178 34.9708 69.2798 36.2929C68.5418 37.6149 68.108 39.085 68.01 40.5959C67.912 42.1068 68.1523 43.6206 68.7133 45.0269C67.1052 45.5815 65.6933 46.5923 64.6501 47.9359C63.6068 49.2795 62.9773 50.8978 62.8384 52.5932C62.6994 54.2886 63.0571 55.9878 63.8677 57.4833C64.6783 58.9788 65.9068 60.206 67.4032 61.015C66.7384 61.8827 66.3122 62.9091 66.1667 63.9924C66.0213 65.0757 66.1617 66.1782 66.574 67.1904C66.9863 68.2027 67.6562 69.0895 68.5172 69.7628C69.3782 70.4362 70.4003 70.8726 71.4821 71.0289C71.1754 71.8263 71.0626 72.6851 71.1529 73.5347C71.2431 74.3843 71.5339 75.2003 72.0013 75.9154C72.4687 76.6306 73.0993 77.2245 73.8412 77.6482C74.5831 78.0719 75.415 78.3133 76.2685 78.3526C76.0845 78.8154 75.9897 79.3088 75.989 79.8068C75.9892 80.5313 76.1858 81.2423 76.5578 81.864C76.9298 82.4858 77.4634 82.9951 78.1018 83.3378C78.7401 83.6805 79.4594 83.8438 80.1832 83.8103C80.907 83.7768 81.6081 83.5478 82.2122 83.1477C83.3672 85.0683 84.7387 86.8501 86.2998 88.4581C89.0031 91.1876 91.8242 92.6899 94.248 92.6899C96.6718 92.6899 99.4886 91.1876 102.192 88.4581C103.913 86.6747 105.404 84.6822 106.629 82.5275C107.178 83.1149 107.891 83.5235 108.675 83.7001C109.459 83.8768 110.279 83.8132 111.026 83.5178C111.774 83.2224 112.416 82.7088 112.867 82.0438C113.319 81.3789 113.56 80.5933 113.559 79.7893C113.558 79.2918 113.465 78.7988 113.284 78.3351C114.147 78.2952 114.987 78.0487 115.734 77.6164C116.481 77.1841 117.113 76.5787 117.578 75.8511C118.042 75.1235 118.325 74.295 118.402 73.4353C118.48 72.5756 118.35 71.7098 118.023 70.911C119.048 70.6647 119.994 70.1636 120.774 69.4542C121.554 68.7447 122.142 67.8498 122.484 66.8524C122.826 65.855 122.911 64.7875 122.73 63.7487C122.549 62.7099 122.109 61.7336 121.451 60.9102C122.795 60.1463 123.914 59.0409 124.694 57.7058C125.474 56.3707 125.887 54.8532 125.892 53.307ZM113.031 76.5096C112.243 76.5112 111.477 76.2512 110.852 75.7704C110.228 75.2896 109.781 74.6152 109.581 73.8529C109.381 73.0906 109.44 72.2835 109.748 71.5583C110.057 70.833 110.597 70.2306 111.284 69.8454C111.61 69.6604 111.964 69.5292 112.332 69.4567C112.528 69.633 112.733 69.7978 112.948 69.9502V70.3257C113.279 70.3118 113.61 70.365 113.92 70.4821C114.231 70.5993 114.514 70.778 114.753 71.0075C114.993 71.2369 115.183 71.5125 115.313 71.8175C115.443 72.1225 115.51 72.4507 115.51 72.7823C115.51 73.1139 115.443 73.442 115.313 73.7471C115.183 74.0521 114.993 74.3276 114.753 74.5571C114.514 74.7866 114.231 74.9653 113.92 75.0824C113.61 75.1996 113.279 75.2528 112.948 75.2388V75.7323C113.501 75.7327 114.042 75.5773 114.511 75.2839C114.979 74.9905 115.355 74.571 115.596 74.0735C115.837 73.576 115.932 73.0208 115.872 72.4714C115.811 71.922 115.597 71.4009 115.254 70.9677C115.516 71.0229 115.782 71.0609 116.049 71.0813C116.401 71.6426 116.589 72.2918 116.59 72.9548C116.587 73.8973 116.211 74.8001 115.544 75.4661C114.877 76.1322 113.974 76.5073 113.031 76.5096ZM109.564 81.9554C109.055 81.9271 108.571 81.7216 108.198 81.3746C107.825 81.0275 107.585 80.5607 107.519 80.0551C107.454 79.5495 107.567 79.037 107.84 78.6064C108.113 78.1758 108.528 77.8543 109.013 77.6975C109.193 77.6487 109.378 77.6237 109.564 77.6232C109.871 77.5841 110.183 77.6109 110.48 77.7019C110.776 77.7928 111.05 77.9458 111.282 78.1508C111.515 78.3557 111.701 78.6078 111.829 78.8903C111.957 79.1728 112.023 79.4793 112.023 79.7893C112.023 80.0994 111.957 80.4058 111.829 80.6884C111.701 80.9709 111.515 81.223 111.282 81.4279C111.05 81.6328 110.776 81.7859 110.48 81.8768C110.183 81.9678 109.871 81.9946 109.564 81.9554ZM81.2863 81.5187C81.0287 81.7244 80.7279 81.8691 80.4064 81.942C80.0849 82.0148 79.7511 82.0139 79.43 81.9393C79.1088 81.8648 78.8088 81.7185 78.5523 81.5114C78.2958 81.3044 78.0895 81.0419 77.9489 80.7437C77.8083 80.4456 77.737 80.1195 77.7404 79.7898C77.7438 79.4602 77.8218 79.1356 77.9685 78.8404C78.1153 78.5452 78.3269 78.2871 78.5876 78.0854C78.8484 77.8836 79.1514 77.7436 79.474 77.6756C79.6452 77.6319 79.8213 77.6098 79.998 77.6101C80.5771 77.6101 81.1325 77.8402 81.542 78.2497C81.9515 78.6592 82.1816 79.2146 82.1816 79.7937C82.1805 79.9093 82.1703 80.0247 82.151 80.1387C82.058 80.6957 81.7528 81.1951 81.2994 81.5318L81.2863 81.5187ZM72.9888 72.9329C72.9879 72.2349 73.1947 71.5524 73.5827 70.9721C74.7529 70.7492 75.8349 70.1961 76.7008 69.3781C76.8472 69.3857 76.993 69.4018 77.1375 69.4261C77.6769 69.5162 78.1882 69.7295 78.6317 70.0494C79.0751 70.3693 79.4388 70.7872 79.6945 71.2705C79.9501 71.7539 80.0908 72.2898 80.1056 72.8364C80.1203 73.383 80.0088 73.9256 79.7797 74.4221C79.5408 74.9331 79.1864 75.3816 78.7446 75.7323C78.2203 76.1489 77.5889 76.4092 76.9233 76.4831C76.2576 76.557 75.5846 76.4416 74.9816 76.1501C74.3786 75.8586 73.87 75.4029 73.5144 74.8354C73.1588 74.2678 72.9706 73.6114 72.9713 72.9417L72.9888 72.9329ZM72.4079 69.2427C71.5412 69.2422 70.6936 68.9873 69.9703 68.5096C69.2471 68.032 68.6799 67.3526 68.339 66.5557C67.9982 65.7587 67.8988 64.8793 68.053 64.0263C68.2073 63.1734 68.6085 62.3845 69.2068 61.7574C69.9773 61.9734 70.7736 62.0836 71.5738 62.085C71.8882 62.085 72.1983 62.085 72.504 62.0369V62.2815C73.2024 62.2815 73.8722 62.5589 74.3661 63.0528C74.8599 63.5466 75.1374 64.2164 75.1374 64.9149C75.1374 65.6133 74.8599 66.2831 74.3661 66.777C73.8722 67.2708 73.2024 67.5482 72.504 67.5482V68.0679C73.2593 68.0618 73.9873 67.7847 74.5556 67.2871C75.1238 66.7895 75.4945 66.1044 75.6003 65.3566C75.7061 64.6087 75.5399 63.8477 75.1319 63.212C74.724 62.5763 74.1014 62.1082 73.3774 61.8928C73.9721 61.7624 74.5517 61.5706 75.1068 61.3207C75.7531 61.8242 76.2474 62.4969 76.5349 63.2641C76.7247 63.7605 76.8224 64.2873 76.8231 64.8188C76.823 65.1935 76.7731 65.5665 76.6746 65.928C76.521 66.5346 76.2379 67.1007 75.8449 67.5876C75.454 68.0771 74.9631 68.4776 74.4051 68.7623C73.847 69.047 73.2346 69.2093 72.6088 69.2383C72.5389 69.2471 72.4647 69.2558 72.3905 69.2558L72.4079 69.2427ZM69.8269 41.2581C69.8302 39.3367 70.495 37.4751 71.7095 35.9862C72.924 34.4974 74.6141 33.4721 76.4956 33.0828C76.7985 33.0174 77.1046 32.9678 77.4127 32.9343C77.666 32.9125 77.9193 32.8994 78.1769 32.8994H78.3385C79.9087 32.9307 81.4382 33.4042 82.7514 34.2655C84.0646 35.1268 85.1083 36.341 85.7626 37.7687C85.8722 38.0003 85.9684 38.238 86.0509 38.4806C85.9461 38.6247 85.8456 38.7775 85.7495 38.9173C85.5459 39.2399 85.3636 39.5754 85.2036 39.9217C85.1294 40.0658 85.0639 40.2143 84.9984 40.3584L84.6971 40.2231C84.6621 40.0789 84.6272 39.9348 84.5879 39.7863C84.1721 38.3071 83.2846 37.0041 82.0604 36.0755C80.8362 35.1469 79.3423 34.6435 77.8057 34.6419V35.8035C77.976 35.8035 78.1376 35.8035 78.2992 35.8035C78.6984 35.8379 79.0933 35.911 79.4783 36.0219C80.2948 36.2653 81.0489 36.6824 81.6889 37.2448C82.3289 37.8072 82.8397 38.5014 83.186 39.2798C83.2559 39.4413 83.3214 39.6073 83.3782 39.7776C82.8338 39.6471 82.278 39.5696 81.7187 39.5462H81.3475C80.9721 39.5465 80.5972 39.5713 80.2251 39.6204C78.74 39.8156 77.3294 40.3871 76.1271 41.2805C74.9249 42.174 73.9709 43.3599 73.3556 44.7256C72.7693 44.6057 72.1723 44.5457 71.5738 44.5465C71.2265 44.5469 70.8794 44.5673 70.5344 44.6077C70.067 43.5529 69.826 42.4118 69.8269 41.2581ZM93.7196 27.3444C93.0769 28.7012 92.7443 30.184 92.7457 31.6853C92.744 32.5696 92.857 33.4504 93.082 34.3056C92.7675 34.3449 92.4531 34.3973 92.1474 34.4672C92.5601 33.4019 92.7072 32.2521 92.576 31.1172C92.4447 29.9823 92.0391 28.8965 91.3941 27.9535C90.7491 27.0106 89.8842 26.2389 88.8741 25.7051C87.864 25.1713 86.7391 24.8916 85.5967 24.89V26.0473C86.6305 26.0524 87.6447 26.3298 88.5372 26.8516C89.4296 27.3734 90.1688 28.1212 90.6802 29.0197C91.1917 29.9181 91.4573 30.9355 91.4504 31.9693C91.4434 33.003 91.1642 34.0167 90.6407 34.9083C89.4459 35.3802 88.3509 36.0737 87.4134 36.9521C86.5999 35.2095 85.3098 33.7328 83.6924 32.6926C82.0749 31.6524 80.196 31.0912 78.273 31.0739C78.401 29.3102 79.0862 27.6329 80.2297 26.284C81.3732 24.9352 82.9157 23.9846 84.6346 23.5696C86.3535 23.1546 88.1599 23.2965 89.7928 23.975C91.4258 24.6535 92.8009 25.8334 93.7196 27.3444ZM91.7806 18.8721C91.2523 16.4286 91.2211 13.9038 91.6888 11.448C93.2046 13.4345 94.3025 15.7074 94.9162 18.1297C95.1436 19.1121 95.2781 20.1136 95.3179 21.1212C95.3537 21.9293 95.3376 22.7389 95.2699 23.545C95.2699 23.641 95.2699 23.7371 95.2699 23.8332V23.7589C95.1651 23.4008 95.0472 22.9991 94.9205 22.5798C94.1825 20.1473 93.1737 17.0292 93.1737 17.0292L94.0209 24.0166C93.0043 22.4324 92.2479 20.6956 91.7806 18.8721ZM103.196 12.8717C102.858 15.3407 102.028 17.7167 100.755 19.8591C100.201 20.7437 99.5637 21.5729 98.851 22.3353C98.4125 22.811 97.9489 23.2629 97.4622 23.6891C97.5801 23.4401 97.7024 23.1563 97.8378 22.8506C98.8772 20.4792 100.397 16.7628 100.397 16.7628L96.5276 22.6628C96.5276 22.2261 96.5276 21.7675 96.5276 21.2871C96.9129 20.1968 97.412 19.1502 98.0168 18.1646C99.3704 16.0705 101.132 14.2703 103.196 12.8717ZM100.371 52.6126C101.783 51.5761 102.905 50.1941 103.629 48.5992C103.768 48.2977 103.891 47.9886 103.995 47.6734C104.114 47.3285 104.213 46.9771 104.292 46.6209C104.636 45.1028 104.623 43.5256 104.253 42.0136C105.859 41.5757 107.569 41.7322 109.068 42.4543C110.568 43.1764 111.756 44.4156 112.415 45.944C112.15 46.1064 111.893 46.2828 111.647 46.4724C111.219 45.3988 110.478 44.4782 109.521 43.8297C108.565 43.1812 107.435 42.8345 106.279 42.8346V43.7866C107.307 43.7832 108.308 44.1091 109.137 44.7167C109.965 45.3243 110.577 46.1815 110.882 47.1624C110.76 47.2891 110.638 47.4201 110.52 47.5555L110.38 47.7171C109.934 48.2526 109.553 48.839 109.245 49.4639C109.109 49.7434 108.987 50.036 108.878 50.3374C108.575 51.1795 108.404 52.0633 108.371 52.9576C107.719 53.2735 107.004 53.4377 106.279 53.438V54.3901C107.003 54.3901 107.72 54.2538 108.393 53.9883C108.421 54.376 108.477 54.7612 108.559 55.1412C107.108 55.7004 105.51 55.7542 104.025 55.2938C102.539 54.8335 101.252 53.8858 100.371 52.6039V52.6126ZM81.3475 55.2329C80.9447 55.2322 80.5428 55.1957 80.1465 55.1237C79.8508 55.0706 79.559 54.9977 79.2731 54.9054C78.9741 54.8113 78.6822 54.696 78.3996 54.5604C76.8369 53.8101 75.6088 52.5058 74.954 50.9007C74.807 50.5417 74.6915 50.1705 74.609 49.7915C74.609 49.7172 74.574 49.6386 74.5609 49.5556C74.506 49.2674 74.4725 48.9754 74.4605 48.6822C74.4605 48.5512 74.4605 48.4202 74.4605 48.2892V48.2499C74.464 47.8382 74.5035 47.4275 74.5784 47.0227C74.6349 46.715 74.7123 46.4115 74.8099 46.1143C74.9058 45.816 75.0211 45.5243 75.1549 45.2409C75.901 43.7056 77.1877 42.4999 78.7682 41.8551C80.3487 41.2103 82.1117 41.1719 83.7188 41.7472C83.9704 41.8385 84.2168 41.9434 84.4569 42.0616C84.3412 42.5585 84.2652 43.0638 84.2298 43.5727C83.9872 43.4571 83.7378 43.3565 83.483 43.2713C82.7906 42.9847 82.0488 42.8363 81.2994 42.8346V43.7866C81.9395 43.7849 82.5735 43.9111 83.1642 44.1579C83.5122 44.3093 83.8418 44.4997 84.1468 44.7256H84.173C84.1939 45.3999 84.2847 46.0702 84.4438 46.7257C84.5247 47.0837 84.6268 47.4366 84.7495 47.7826C84.8577 48.0915 84.9816 48.3946 85.1207 48.6909C85.3403 49.164 85.5958 49.6195 85.8849 50.0535C85.5802 51.039 84.9683 51.9012 84.1385 52.5141C83.3088 53.127 82.3048 53.4584 81.2732 53.4599V54.4119C82.3924 54.4077 83.4862 54.0781 84.4214 53.4632C85.3566 52.8483 86.0927 51.9747 86.54 50.9488C86.7846 51.2399 87.0456 51.5169 87.3217 51.7785C86.7171 52.8293 85.8469 53.7028 84.7984 54.3113C83.7498 54.9199 82.5598 55.2422 81.3475 55.246V55.2329ZM88.086 49.9006C87.376 49.0997 86.8286 48.1682 86.4745 47.1581C86.3392 46.772 86.2326 46.3764 86.1557 45.9746C86.1164 45.7781 86.0858 45.5815 86.064 45.3807C86.0236 45.0532 86.0032 44.7236 86.0028 44.3937C86.0028 44.3107 86.0028 44.2277 86.0028 44.1448C86.0103 43.8526 86.0336 43.561 86.0727 43.2713C86.1198 42.9178 86.1898 42.5677 86.2823 42.2232C86.3129 42.1009 86.3478 41.983 86.3871 41.8607C86.4264 41.7385 86.4657 41.6205 86.5094 41.5026L86.588 41.3017C86.6361 41.1795 86.6885 41.0616 86.7409 40.9436C86.8897 40.6175 87.0589 40.3009 87.2475 39.996L87.3304 39.865C87.74 39.2397 88.2304 38.6714 88.7891 38.1749C89.2794 37.7404 89.817 37.3624 90.3918 37.0481C91.4112 36.4984 92.5343 36.1682 93.689 36.0786H93.737C93.9423 36.0786 94.1432 36.0524 94.3484 36.0524H94.7589C95.0869 36.0672 95.4136 36.1022 95.7372 36.1573L95.9119 36.1878C97.8052 36.5547 99.5133 37.5654 100.746 39.0483C100.978 39.3142 101.192 39.5942 101.388 39.8868L101.515 40.0877C101.674 40.3508 101.82 40.6219 101.952 40.9C101.957 40.9182 101.964 40.9357 101.973 40.9524C102.102 41.2369 102.214 41.5285 102.31 41.8258V41.8651C102.345 41.9655 102.371 42.066 102.401 42.1708C102.454 42.363 102.502 42.5551 102.541 42.7473C102.58 42.9394 102.629 43.2451 102.659 43.5028C102.69 43.8016 102.706 44.1019 102.707 44.4024C102.707 44.859 102.669 45.3147 102.594 45.765C102.396 46.9386 101.952 48.0569 101.289 49.0456C100.627 50.0342 99.7612 50.8705 98.7505 51.499C98.4883 51.66 98.2171 51.8058 97.9382 51.9357C96.4636 52.6348 94.8163 52.8862 93.2002 52.6588C91.5842 52.4313 90.0703 51.7351 88.8458 50.6562C88.5763 50.4212 88.3225 50.1688 88.086 49.9006ZM118.324 44.6295C117.928 44.5732 117.528 44.5454 117.127 44.5465H116.804C117.208 43.6468 117.418 42.672 117.421 41.6857C117.423 40.6994 117.218 39.7237 116.818 38.822C116.419 37.9203 115.834 37.1128 115.101 36.452C114.369 35.7913 113.506 35.292 112.568 34.9869C112.282 34.892 111.991 34.8161 111.695 34.7598C111.383 34.7021 111.068 34.6641 110.751 34.6462H110.398V35.8079C110.674 35.8091 110.949 35.8281 111.223 35.8647C112.618 36.0686 113.894 36.7667 114.818 37.8318C115.742 38.897 116.253 40.2585 116.258 41.6686C116.266 42.7459 115.974 43.8042 115.416 44.7256C114.954 44.8171 114.501 44.9472 114.062 45.1143C113.536 43.9449 112.76 42.905 111.789 42.0676C110.818 41.2301 109.675 40.6154 108.441 40.2667C107.669 40.0513 106.872 39.9397 106.07 39.9348C105.254 39.9359 104.443 40.0506 103.659 40.2755C103.624 40.1925 103.585 40.1052 103.546 40.0222C103.362 39.6389 103.154 39.2683 102.921 38.9129C102.869 38.8299 102.816 38.747 102.76 38.6684C102.869 38.3394 102.997 38.0172 103.144 37.7032C104.077 35.7478 105.729 34.2285 107.756 33.4627C108.165 33.3049 108.587 33.1822 109.018 33.0959C109.568 32.9845 110.129 32.9303 110.69 32.9343C110.856 32.9343 111.022 32.9343 111.188 32.9343C111.494 32.9512 111.799 32.9862 112.101 33.0391C112.406 33.092 112.707 33.1605 113.005 33.2444C114.742 33.7482 116.27 34.8021 117.357 36.2479C118.445 37.6937 119.034 39.4533 119.036 41.2624C119.037 42.4223 118.795 43.5695 118.324 44.6295ZM110.69 31.0695C110.152 31.071 109.615 31.1149 109.083 31.2006C108.906 29.4688 108.094 27.864 106.804 26.6955C105.514 25.5269 103.836 24.8776 102.096 24.8726V26.0299C103.573 26.0352 104.994 26.5961 106.076 27.601C107.159 28.6059 107.824 29.9813 107.939 31.4538C106.504 31.8546 105.175 32.5642 104.043 33.5328C102.912 34.5014 102.006 35.7057 101.388 37.0613C100.004 35.7255 98.2708 34.8081 96.3879 34.4148C96.0967 34.3536 95.791 34.3056 95.4708 34.2707L94.9598 34.227C94.8717 33.9561 94.7988 33.6806 94.7415 33.4016C94.5028 32.2713 94.5028 31.1037 94.7415 29.9734C94.8551 29.4342 95.0219 28.9075 95.2393 28.4012C95.3005 28.2527 95.3703 28.1086 95.4446 27.9645L95.5581 28.0868L95.7809 27.3531C96.7013 25.8425 98.0779 24.6634 99.712 23.986C101.346 23.3086 103.153 23.168 104.872 23.5844C106.592 24.0009 108.134 24.9528 109.277 26.3029C110.42 27.653 111.105 29.3314 111.232 31.0957C111.07 31.0783 110.878 31.0695 110.69 31.0695ZM70.5082 46.4724C70.8609 46.4183 71.217 46.3905 71.5738 46.3895H71.5956C71.9911 46.3923 72.3855 46.4288 72.7748 46.4986C72.7072 46.8261 72.6577 47.1571 72.6263 47.49C72.6242 47.5001 72.6242 47.5105 72.6263 47.5205C72.1972 47.4169 71.7576 47.3627 71.3161 47.359V48.3066C71.6465 48.3058 71.976 48.3409 72.2987 48.4114C72.4036 48.4114 72.5084 48.4595 72.6088 48.4901C72.6088 48.5468 72.6088 48.5992 72.6088 48.656C72.6256 49.0588 72.6694 49.46 72.7398 49.857C73.1013 51.8842 74.165 53.7194 75.7444 55.0408C75.3721 55.9078 74.7538 56.6466 73.966 57.1659C73.1781 57.6852 72.2553 57.9621 71.3118 57.9624V58.9144C72.3954 58.9093 73.4559 58.6 74.3724 58.0217C75.2888 57.4434 76.0245 56.6194 76.4956 55.6434C76.6965 55.7788 76.9061 55.9055 77.1157 56.019C77.3253 56.1325 77.5524 56.2505 77.7926 56.3553C77.0329 57.9208 75.7103 59.142 74.0893 59.7747C73.285 60.0896 72.4288 60.2511 71.5651 60.2508C71.03 60.25 70.4967 60.1885 69.9754 60.0673C68.494 59.7193 67.1685 58.8927 66.2041 57.7155C65.2397 56.5383 64.6901 55.0761 64.6404 53.5551C64.5907 52.0341 65.0436 50.5391 65.929 49.3014C66.8145 48.0637 68.0831 47.1523 69.5387 46.7083C69.8557 46.606 70.1797 46.5272 70.5082 46.4724ZM109.136 56.9012L109.201 57.0496L109.018 56.9448L109.136 56.9012ZM111.909 60.3468C111.957 60.3861 112.014 60.4211 112.066 60.4604L111.922 60.6089L111.909 60.3468ZM116.56 69.2602C116.116 69.2603 115.674 69.194 115.25 69.0636C114.945 68.9639 114.653 68.8322 114.376 68.6706C113.871 68.3862 113.426 68.0065 113.066 67.5526C112.351 66.6421 112.022 65.4874 112.149 64.3368C112.277 63.1861 112.85 62.1314 113.747 61.3993C114.759 61.8237 115.843 62.052 116.94 62.0719V62.2727C117.638 62.2727 118.308 62.5502 118.802 63.044C119.296 63.5379 119.573 64.2077 119.573 64.9061C119.573 65.6046 119.296 66.2744 118.802 66.7682C118.308 67.2621 117.638 67.5395 116.94 67.5395V68.0592C117.665 68.0583 118.368 67.8075 118.93 67.3489C119.491 66.8903 119.878 66.252 120.024 65.5416C120.17 64.8313 120.067 64.0922 119.732 63.449C119.397 62.8058 118.85 62.2979 118.184 62.0107C118.693 61.9474 119.196 61.8408 119.687 61.6919C120.284 62.2876 120.698 63.0415 120.881 63.8648C121.065 64.6881 121.009 65.5467 120.721 66.3394C120.433 67.1321 119.924 67.8261 119.255 68.3396C118.586 68.8532 117.784 69.165 116.944 69.2383C116.816 69.2507 116.688 69.2565 116.56 69.2558V69.2602ZM118.883 60.0106C118.312 60.1575 117.725 60.2323 117.136 60.2333C116.316 60.231 115.503 60.0831 114.734 59.7966C113.864 59.4679 113.068 58.9687 112.393 58.3283C111.718 57.6879 111.178 56.9191 110.804 56.067C110.76 55.971 110.721 55.8749 110.686 55.7788C110.612 55.5823 110.542 55.3814 110.485 55.1761C110.315 54.5662 110.228 53.9359 110.227 53.3026C110.227 53.1454 110.227 52.9882 110.227 52.831C110.282 52.034 110.474 51.2524 110.795 50.5208C110.94 50.1938 111.109 49.8785 111.302 49.5775C111.526 49.2286 111.78 48.8999 112.062 48.5949L112.162 48.4901C112.638 47.9991 113.184 47.5811 113.782 47.2498C114.298 46.9667 114.847 46.7468 115.416 46.5947C115.97 46.4554 116.539 46.385 117.11 46.3851H117.25C117.608 46.3932 117.966 46.4282 118.32 46.4899C118.639 46.5458 118.955 46.6246 119.263 46.7257C120.677 47.1976 121.901 48.1125 122.754 49.3348C123.607 50.557 124.044 52.0216 123.999 53.5115C123.955 55.0014 123.431 56.4372 122.507 57.6063C121.582 58.7753 120.305 59.6153 118.866 60.0018L118.883 60.0106ZM101.192 87.458C98.7592 89.9167 96.2918 91.2706 94.248 91.2706C92.2042 91.2706 89.7367 89.9167 87.2999 87.458C85.7412 85.8534 84.3805 84.0676 83.2472 82.1389C83.6273 81.6129 83.874 81.0025 83.9659 80.3601C84.0578 79.7177 83.9923 79.0626 83.7749 78.4511C83.5574 77.8397 83.1947 77.2902 82.7178 76.8501C82.2409 76.4099 81.6643 76.0923 81.0374 75.9244C81.6254 75.0441 81.9385 74.009 81.937 72.9504C81.9311 71.832 81.5785 70.7429 80.9277 69.8333C80.277 68.9236 79.3602 68.2382 78.3036 67.8714C78.2686 67.6356 78.2424 67.4041 78.2162 67.1727C78.553 66.3314 78.7029 65.427 78.6554 64.5221C78.6079 63.6172 78.3641 62.7334 77.9411 61.9321C77.9411 61.1155 77.9848 60.3032 78.0415 59.4996C78.1857 59.5562 78.3445 59.5633 78.4931 59.5198C78.6417 59.4764 78.7717 59.3848 78.8626 59.2594C79.736 58.0716 81.8672 57.2724 84.1861 57.2724C85.7853 57.2203 87.3641 57.6428 88.7236 58.4864C88.8196 58.5607 88.9244 58.6262 89.0293 58.7004C89.7997 59.1596 90.4015 59.8549 90.7455 60.6831C91.4181 62.1941 91.6757 64.5262 91.5185 67.6181C91.451 69.2818 91.1466 70.9273 90.6145 72.505C90.547 72.6731 90.547 72.8609 90.6145 73.029C90.6451 73.1032 91.4137 74.885 94.2262 74.885C94.4126 74.885 94.5915 74.811 94.7233 74.6791C94.8552 74.5472 94.9293 74.3684 94.9293 74.1819C94.9293 73.9955 94.8552 73.8166 94.7233 73.6848C94.5915 73.5529 94.4126 73.4788 94.2262 73.4788C92.8854 73.4788 92.274 72.9635 92.0426 72.6709C92.5496 71.0551 92.8432 69.3799 92.916 67.688C93.0863 64.3297 92.7981 61.8535 92.0426 60.1154C91.5938 59.044 90.8191 58.141 89.8284 57.5344L89.5708 57.3597C88.4039 56.5759 87.0641 56.0874 85.6666 55.936C86.9417 55.2106 88.0151 54.1777 88.7891 52.9314C90.2576 53.8922 91.9502 54.4556 93.7015 54.5666C95.4529 54.6775 97.203 54.3323 98.7811 53.5647C99.486 54.6061 100.403 55.487 101.471 56.15C100.51 56.3474 99.6111 56.7744 98.851 57.3947C98.7772 57.4541 98.7161 57.5279 98.6716 57.6115C98.627 57.6952 98.5998 57.7869 98.5916 57.8814C98.5834 57.9758 98.5944 58.0709 98.6239 58.1609C98.6534 58.251 98.7008 58.3342 98.7632 58.4055C98.8257 58.4768 98.9019 58.5347 98.9873 58.5758C99.0727 58.6169 99.1655 58.6403 99.2602 58.6446C99.3549 58.6488 99.4494 58.634 99.5382 58.6008C99.627 58.5676 99.7081 58.5168 99.7768 58.4515C100.65 57.6873 102.201 57.2593 104.144 57.2418C104.765 57.3807 105.399 57.451 106.035 57.4514H106.266C107.751 57.7615 108.987 58.4035 109.594 59.2376C109.659 59.3272 109.745 59.4 109.843 59.4501C109.942 59.5002 110.051 59.5262 110.162 59.5258C110.248 59.5251 110.334 59.5088 110.415 59.4778C110.476 60.3512 110.516 61.2246 110.524 62.1417C110.524 62.4343 110.524 62.7269 110.524 63.0152C110.346 63.6043 110.257 64.2165 110.258 64.8319C110.258 65.2277 110.296 65.6225 110.371 66.011C110.299 66.8204 110.2 67.6239 110.075 68.4217C108.92 69.1627 108.091 70.3165 107.759 71.6476C107.426 72.9787 107.614 74.3866 108.284 75.5838C108.227 75.741 108.175 75.8982 108.118 76.0511C107.128 76.4201 106.325 77.1669 105.886 78.1273C105.446 79.0877 105.405 80.1834 105.773 81.1737C104.536 83.464 102.995 85.5764 101.192 87.4537V87.458Z" fill="black"/>
<path d="M118.42 47.8831C118.07 47.787 117.712 47.7241 117.35 47.6953C117.197 47.6953 117.044 47.6953 116.887 47.6953V48.6473C118.167 48.6473 119.394 49.1558 120.299 50.0608C121.204 50.9658 121.713 52.1932 121.713 53.473C121.713 54.7529 121.204 55.9803 120.299 56.8853C119.394 57.7903 118.167 58.2987 116.887 58.2987V59.2508C117.508 59.2491 118.124 59.1488 118.713 58.9538C119.889 58.5638 120.909 57.8055 121.621 56.7911C122.334 55.7766 122.7 54.5599 122.668 53.3208C122.635 52.0817 122.204 50.886 121.439 49.9107C120.674 48.9353 119.616 48.2321 118.42 47.9049V47.8831Z" fill="black"/>
<path d="M79.4348 72.9938C79.4302 72.2157 79.1191 71.4708 78.5689 70.9206C78.0187 70.3704 77.2738 70.0593 76.4957 70.0547V70.5394C76.7941 70.5412 77.0899 70.5959 77.3692 70.701C77.8343 70.8788 78.2345 71.1936 78.5168 71.6038C78.7991 72.014 78.9502 72.5002 78.9501 72.9981C78.9466 73.6476 78.6868 74.2694 78.2271 74.7283C77.7675 75.1871 77.1452 75.4458 76.4957 75.4481V75.9329C77.237 75.9317 77.9506 75.6508 78.4938 75.1465C79.0371 74.6421 79.37 73.9513 79.4261 73.2121C79.4304 73.1379 79.4348 73.0636 79.4348 72.9938Z" fill="black"/>
<path d="M109.686 78.5615V78.7886C109.977 78.8066 110.249 78.9347 110.449 79.1469C110.648 79.3591 110.759 79.6394 110.759 79.9306C110.759 80.2219 110.648 80.5021 110.449 80.7143C110.249 80.9265 109.977 81.0546 109.686 81.0726V81.2954C109.872 81.3059 110.058 81.2784 110.232 81.2145C110.407 81.1507 110.567 81.0519 110.702 80.9241C110.837 80.7963 110.945 80.6423 111.018 80.4715C111.092 80.3007 111.13 80.1166 111.13 79.9306C111.13 79.7446 111.092 79.5606 111.018 79.3897C110.945 79.2189 110.837 79.0649 110.702 78.9371C110.567 78.8094 110.407 78.7106 110.232 78.6467C110.058 78.5829 109.872 78.5554 109.686 78.5659V78.5615Z" fill="black"/>
<path d="M98.3968 50.3197C98.6802 50.1177 98.9501 49.8974 99.2047 49.6602C100.406 48.5421 101.179 47.0389 101.388 45.411C101.428 45.1215 101.448 44.8297 101.449 44.5376C101.448 44.2279 101.426 43.9186 101.384 43.6117C101.34 43.2631 101.268 42.9185 101.17 42.5811C101.081 42.2728 100.972 41.9708 100.842 41.6771C100.742 41.4531 100.629 41.2344 100.506 41.022C100.419 40.8692 100.323 40.7163 100.222 40.5853C99.6316 39.7108 98.8504 38.9814 97.9375 38.452C97.0246 37.9225 96.0036 37.6067 94.9511 37.5283C94.8245 37.5283 94.6935 37.5283 94.5625 37.5283H94.4009V38.6856C94.806 38.6856 95.21 38.728 95.6062 38.8123C97.0825 39.1237 98.383 39.9897 99.2397 41.2317C99.5138 41.6255 99.7368 42.0525 99.9035 42.5025C100.032 42.8374 100.127 43.1841 100.187 43.5375C100.249 43.8776 100.28 44.2225 100.279 44.5681C100.279 44.6992 100.279 44.8258 100.279 44.9568C100.202 46.031 99.8307 47.0632 99.2047 47.9396C98.9296 48.3238 98.6101 48.6741 98.2527 48.9833C97.9798 49.216 97.6876 49.4249 97.3793 49.6078C96.4756 50.1348 95.447 50.4093 94.4009 50.4026V51.5643C95.4977 51.5652 96.5794 51.3079 97.5583 50.8132C97.8487 50.6679 98.1289 50.5031 98.3968 50.3197Z" fill="black"/>
<path d="M99.1087 79.4614C98.382 79.3467 97.6692 79.1564 96.982 78.8937C96.347 78.7438 95.6787 78.8455 95.1172 79.1776C94.9964 79.2871 94.868 79.3878 94.7329 79.4789C94.6492 79.5222 94.5563 79.5448 94.4621 79.5448C94.3679 79.5448 94.275 79.5222 94.1913 79.4789C93.2568 78.6797 92.7284 78.7409 91.8768 78.8151C91.0252 78.8893 89.9596 79.4265 89.0643 79.5007C88.1691 79.575 86.789 79.3479 87.4572 79.6536C88.1254 79.9593 89.4661 81.7105 90.3177 82.3568C91.4764 83.2007 92.8633 83.6742 94.2962 83.715C95.8596 83.715 97.8161 82.6582 98.7506 81.8241C99.6852 80.9899 101.34 79.4614 101.34 79.4614C100.597 79.5047 99.852 79.5047 99.1087 79.4614Z" fill="black"/>
</g>
<defs>
<clipPath id="clip0_19_1055">
<rect width="91.0418" height="120.9" fill="white" transform="translate(49.8561 8.91504)"/>
</clipPath>
</defs>
</svg>
