<svg width="191" height="139" viewBox="0 0 191 139" fill="none" xmlns="http://www.w3.org/2000/svg">
<rect width="190.754" height="138.73" rx="8.67065" fill="white"/>
<path d="M69.1623 59.2344C76.6544 59.2344 79.4484 63.369 79.4484 71.417H63.1837V73.0176C63.1838 81.7943 65.3697 88.8438 71.2853 88.8438C77.2008 88.8437 77.435 86.9271 79.5734 79.5762L80.7287 79.8926C78.2313 89.224 73.9071 91.8857 68.9123 91.8857C61.1861 91.8856 56.3635 85.945 56.3634 75.4414L56.3791 75.4258C56.3791 65.5399 61.6701 59.2344 69.1623 59.2344ZM117.159 59.2344C125.572 59.2346 130.801 64.7315 130.801 75.5518C130.801 86.3722 125.572 91.8699 117.159 91.8701C108.762 91.8701 103.517 86.309 103.517 75.5518C103.517 64.7947 108.746 59.2344 117.159 59.2344ZM100.817 90.999H94.7921V48.7773H95.6974C97.4767 48.7139 98.9283 48.3495 100.208 46.8604H100.817V90.999ZM162.081 46.8604L151.951 72.9062L155.76 83.5371L170.651 46.8604H173.413L156.243 90.999H151.983L148.595 81.5088L144.911 90.999H140.651L129.256 59.1543H135.687L144.428 83.5371L147.034 77.1357L140.588 59.1543H147.019L150.452 68.7236L159.319 46.8604H162.081ZM23.3664 64.082C25.5516 61.5472 28.7203 59.2021 31.8888 59.2021C35.0571 59.2023 37.3673 60.6916 38.2257 64.4619C40.8479 61.547 43.111 59.2022 47.1222 59.2021C51.1337 59.2021 53.8185 61.6108 53.8185 68.043V85.1689C53.8185 89.3195 54.3025 89.7474 56.7375 90.3652V90.9834H47.716V66.5059H47.7316C47.7316 62.7986 47.0596 61.4365 45.1086 61.4365C43.1576 61.4367 41.0969 62.7358 38.4748 65.6982C38.5372 66.3794 38.5998 67.1718 38.5998 68.043V90.9834H32.5128V66.5059C32.5128 62.7989 31.9665 61.4367 29.9533 61.4365C27.9398 61.4365 25.7389 62.8464 23.3664 65.5713V90.9834H17.341V61.1191H18.2462C20.01 61.0558 21.4771 60.6913 22.757 59.2021H23.3664V64.082ZM88.9074 90.9834H82.882V48.7617H83.7873C85.5511 48.6983 87.0191 48.3339 88.299 46.8447H88.9074V90.9834ZM117.144 60.4541C112.336 60.4541 110.385 65.3968 110.385 75.5361C110.385 85.6755 112.336 90.5557 117.144 90.5557C121.951 90.5554 123.902 85.6752 123.902 75.5361C123.901 65.3971 121.951 60.4544 117.144 60.4541ZM68.9904 60.4541C66.1809 60.4542 63.6833 64.1617 63.2619 70.166H73.3146C73.3146 63.2427 71.8 60.4541 68.9904 60.4541Z" fill="#FF6F23"/>
</svg>
