<svg width="191" height="139" viewBox="0 0 191 139" fill="none" xmlns="http://www.w3.org/2000/svg">
<rect width="190.754" height="138.73" rx="8.67065" fill="white"/>
<path d="M85.321 62.9522L95.3647 85.1068L105.408 62.9522L95.7392 20.0604C95.7207 19.975 95.6734 19.8985 95.6053 19.8436C95.5372 19.7887 95.4522 19.7588 95.3647 19.7588C95.2771 19.7588 95.1923 19.7887 95.1241 19.8436C95.056 19.8985 95.0087 19.975 94.9902 20.0604L85.321 62.9522Z" fill="#0043FF"/>
<path fill-rule="evenodd" clip-rule="evenodd" d="M113.649 46.5865L126.74 85.1064H117.383C115.388 85.1064 113.453 84.4284 111.895 83.1842C110.337 81.94 109.251 80.2034 108.813 78.2606L105.408 63.155L112.934 46.552C112.966 46.4812 113.018 46.4216 113.084 46.381C113.15 46.3404 113.226 46.3206 113.304 46.3244C113.381 46.3281 113.455 46.3552 113.517 46.402C113.579 46.4488 113.624 46.5131 113.649 46.5865ZM85.3208 63.1554L81.9159 78.2606C81.4784 80.2037 80.3915 81.9403 78.8339 83.1845C77.2764 84.4287 75.3411 85.1067 73.3463 85.1067H63.9888L77.0802 46.5868C77.1045 46.5134 77.1504 46.449 77.2121 46.4022C77.2737 46.3555 77.3481 46.3284 77.4255 46.3246C77.5028 46.3209 77.5794 46.3407 77.6453 46.3813C77.7112 46.4219 77.7632 46.4815 77.7945 46.5522L85.3208 63.1554Z" fill="#0036BC"/>
<path d="M26.879 118.647V107.109H29.7634V108.365H30.1821C30.3837 107.977 30.7171 107.644 31.1823 107.365C31.6476 107.07 32.2601 106.923 33.02 106.923C33.8419 106.923 34.5009 107.086 34.9972 107.411C35.4934 107.722 35.8734 108.133 36.137 108.644H36.5557C36.8193 108.148 37.1915 107.737 37.6722 107.411C38.153 107.086 38.8353 106.923 39.7192 106.923C40.4326 106.923 41.0761 107.078 41.6499 107.388C42.2392 107.683 42.7044 108.14 43.0456 108.761C43.4023 109.365 43.5806 110.133 43.5806 111.063V118.647H40.6497V111.273C40.6497 110.637 40.4868 110.164 40.1612 109.854C39.8355 109.528 39.3781 109.365 38.7888 109.365C38.1219 109.365 37.6024 109.582 37.2303 110.017C36.8736 110.435 36.6953 111.04 36.6953 111.831V118.647H33.7643V111.273C33.7643 110.637 33.6015 110.164 33.2758 109.854C32.9502 109.528 32.4927 109.365 31.9034 109.365C31.2366 109.365 30.7171 109.582 30.3449 110.017C29.9883 110.435 29.8099 111.04 29.8099 111.831V118.647H26.879Z" fill="black"/>
<path d="M55.8551 118.833C54.9557 118.833 54.1648 118.631 53.4824 118.228C52.8156 117.809 52.2961 117.235 51.9239 116.507C51.5518 115.778 51.3657 114.94 51.3657 113.994V107.109H54.2966V113.762C54.2966 114.63 54.5059 115.282 54.9246 115.716C55.3589 116.15 55.9714 116.367 56.7623 116.367C57.6617 116.367 58.3596 116.072 58.8558 115.483C59.352 114.878 59.6002 114.041 59.6002 112.971V107.109H62.5311V118.647H59.6467V117.135H59.228C59.0419 117.522 58.693 117.902 58.1812 118.274C57.6695 118.647 56.8941 118.833 55.8551 118.833Z" fill="black"/>
<path d="M70.6774 118.647V107.109H73.5618V108.621H73.9805C74.1666 108.218 74.5155 107.838 75.0273 107.481C75.539 107.109 76.3144 106.923 77.3534 106.923C78.2529 106.923 79.036 107.132 79.7028 107.551C80.3851 107.954 80.9124 108.52 81.2846 109.249C81.6568 109.962 81.8429 110.8 81.8429 111.761V118.647H78.9119V111.994C78.9119 111.125 78.6948 110.474 78.2606 110.04C77.8419 109.606 77.2371 109.389 76.4462 109.389C75.5468 109.389 74.849 109.691 74.3527 110.296C73.8565 110.885 73.6084 111.715 73.6084 112.785V118.647H70.6774Z" fill="black"/>
<path d="M89.8962 118.647V107.109H92.8271V118.647H89.8962ZM91.3616 105.76C90.8344 105.76 90.3847 105.589 90.0125 105.248C89.6558 104.907 89.4775 104.457 89.4775 103.899C89.4775 103.341 89.6558 102.891 90.0125 102.55C90.3847 102.209 90.8344 102.038 91.3616 102.038C91.9044 102.038 92.3541 102.209 92.7108 102.55C93.0675 102.891 93.2458 103.341 93.2458 103.899C93.2458 104.457 93.0675 104.907 92.7108 105.248C92.3541 105.589 91.9044 105.76 91.3616 105.76Z" fill="black"/>
<path d="M106.38 118.972C105.263 118.972 104.247 118.74 103.332 118.274C102.433 117.809 101.72 117.135 101.192 116.251C100.665 115.367 100.402 114.297 100.402 113.041V112.715C100.402 111.459 100.665 110.389 101.192 109.505C101.72 108.621 102.433 107.946 103.332 107.481C104.247 107.016 105.263 106.783 106.38 106.783C107.481 106.783 108.427 106.977 109.218 107.365C110.008 107.753 110.644 108.288 111.125 108.97C111.621 109.637 111.947 110.397 112.102 111.25L109.264 111.854C109.202 111.389 109.062 110.97 108.845 110.598C108.628 110.226 108.318 109.931 107.915 109.714C107.527 109.497 107.039 109.389 106.449 109.389C105.86 109.389 105.325 109.52 104.844 109.784C104.379 110.032 104.007 110.412 103.728 110.924C103.464 111.42 103.332 112.033 103.332 112.762V112.994C103.332 113.723 103.464 114.343 103.728 114.855C104.007 115.351 104.379 115.731 104.844 115.995C105.325 116.243 105.86 116.367 106.449 116.367C107.333 116.367 108 116.142 108.45 115.692C108.915 115.227 109.21 114.622 109.334 113.878L112.172 114.553C111.97 115.375 111.621 116.127 111.125 116.809C110.644 117.476 110.008 118.003 109.218 118.391C108.427 118.778 107.481 118.972 106.38 118.972Z" fill="black"/>
<path d="M124.964 118.972C123.816 118.972 122.785 118.74 121.87 118.274C120.955 117.809 120.234 117.135 119.707 116.251C119.18 115.367 118.916 114.305 118.916 113.064V112.692C118.916 111.451 119.18 110.389 119.707 109.505C120.234 108.621 120.955 107.946 121.87 107.481C122.785 107.016 123.816 106.783 124.964 106.783C126.112 106.783 127.143 107.016 128.058 107.481C128.973 107.946 129.694 108.621 130.221 109.505C130.748 110.389 131.012 111.451 131.012 112.692V113.064C131.012 114.305 130.748 115.367 130.221 116.251C129.694 117.135 128.973 117.809 128.058 118.274C127.143 118.74 126.112 118.972 124.964 118.972ZM124.964 116.367C125.863 116.367 126.608 116.08 127.197 115.506C127.786 114.917 128.081 114.08 128.081 112.994V112.762C128.081 111.676 127.786 110.846 127.197 110.273C126.623 109.683 125.879 109.389 124.964 109.389C124.065 109.389 123.32 109.683 122.731 110.273C122.142 110.846 121.847 111.676 121.847 112.762V112.994C121.847 114.08 122.142 114.917 122.731 115.506C123.32 116.08 124.065 116.367 124.964 116.367Z" fill="black"/>
<path d="M138.602 118.647V107.109H141.487V108.412H141.905C142.076 107.946 142.355 107.605 142.743 107.388C143.146 107.171 143.611 107.063 144.138 107.063H145.534V109.668H144.092C143.347 109.668 142.735 109.869 142.254 110.273C141.773 110.66 141.533 111.265 141.533 112.087V118.647H138.602Z" fill="black"/>
<path d="M152.71 118.647V107.109H155.594V108.621H156.013C156.199 108.218 156.548 107.838 157.06 107.481C157.571 107.109 158.347 106.923 159.386 106.923C160.285 106.923 161.068 107.132 161.735 107.551C162.418 107.954 162.945 108.52 163.317 109.249C163.689 109.962 163.875 110.8 163.875 111.761V118.647H160.944V111.994C160.944 111.125 160.727 110.474 160.293 110.04C159.874 109.606 159.269 109.389 158.479 109.389C157.579 109.389 156.881 109.691 156.385 110.296C155.889 110.885 155.641 111.715 155.641 112.785V118.647H152.71Z" fill="black"/>
</svg>
