<svg width="191" height="139" viewBox="0 0 191 139" fill="none" xmlns="http://www.w3.org/2000/svg">
<rect width="190.754" height="138.73" rx="8.67065" fill="white"/>
<path fill-rule="evenodd" clip-rule="evenodd" d="M52.5034 68.1313V20.8096H60.991C63.0326 20.8096 64.7072 21.4494 66.0606 22.7061C67.3911 23.9628 68.0563 25.7222 68.0563 27.9844V43.3622C68.0563 45.5558 67.3911 47.1324 66.0836 48.0236C64.776 48.9147 63.1014 49.3717 61.0598 49.3717H59.2247V68.1313H52.5034ZM61.1057 43.1565C61.2204 42.7453 61.2663 42.1055 61.2663 41.1915H61.2433V29.0126C61.2433 27.2989 60.9451 26.4306 60.3028 26.4306H59.2476V43.7735H60.3946C60.7616 43.7735 60.991 43.5679 61.1057 43.1565Z" fill="#1C0E31"/>
<path d="M67.3681 77.0428V89.2215H61.2663V77.9795C61.2663 77.0428 61.1974 76.38 61.0598 75.9916C60.9221 75.6032 60.6698 75.4206 60.3028 75.4206H60.1652C59.7981 75.4206 59.5458 75.6032 59.4081 75.9916C59.2705 76.3572 59.2017 77.0656 59.2017 78.0479V83.0521C59.2017 84.583 59.4081 85.9542 59.844 87.1196C60.2799 88.3077 60.8075 89.4046 61.4727 90.4097C62.1379 91.4381 62.8261 92.3976 63.5831 93.289C64.3401 94.2029 65.0283 95.1623 65.6935 96.1679C66.3588 97.1735 66.8864 98.2927 67.3223 99.4813C67.7581 100.669 67.9646 102.04 67.9646 103.571V110.677C67.9646 111.957 67.7811 113.054 67.3911 113.968C67.0011 114.882 66.4964 115.636 65.8312 116.23C65.1889 116.801 64.4089 117.235 63.5602 117.51C62.7114 117.784 61.8168 117.921 60.9222 117.921H59.7752C58.8806 117.921 57.9859 117.784 57.1371 117.51C56.2654 117.235 55.5084 116.824 54.8203 116.23C54.1321 115.659 53.5815 114.882 53.1457 113.968C52.7098 113.031 52.5034 111.934 52.5034 110.677V98.4301H58.5823V109.672C58.5823 110.632 58.697 111.294 58.9264 111.706C59.1329 112.117 59.454 112.323 59.8669 112.323H60.0045C60.4175 112.323 60.7157 112.117 60.9222 111.706C61.1286 111.294 61.2204 110.609 61.2204 109.672V104.6C61.2204 103.069 61.0139 101.697 60.578 100.532C60.1422 99.3667 59.6146 98.2699 58.9493 97.2876C58.2841 96.3048 57.5959 95.3682 56.8389 94.4544C56.0819 93.5401 55.3937 92.5806 54.7285 91.575C54.0633 90.5471 53.5356 89.4502 53.0998 88.2849C52.6639 87.0967 52.4575 85.7255 52.4575 84.1489V77.0428C52.4575 75.7629 52.6639 74.6893 53.0769 73.7522C53.4898 72.8384 54.0174 72.0843 54.7056 71.49C55.3708 70.919 56.1278 70.4849 56.9766 70.2106C57.8253 69.9362 58.697 69.7993 59.5917 69.7993H60.2799C61.1745 69.7993 62.0462 69.9362 62.895 70.2106C63.7437 70.4849 64.4778 70.8962 65.143 71.49C65.8082 72.0615 66.3359 72.8384 66.7488 73.7522C67.1617 74.6893 67.3681 75.7862 67.3681 77.0428Z" fill="#1C0E31"/>
<path fill-rule="evenodd" clip-rule="evenodd" d="M81.4988 117.51C80.6501 117.784 79.7784 117.921 78.9296 117.921H77.5762C76.6586 117.921 75.7869 117.784 74.9611 117.51C74.1123 117.235 73.3783 116.824 72.713 116.23C72.0477 115.659 71.5202 114.882 71.1072 113.968C70.6943 113.031 70.4879 111.934 70.4879 110.677V77.0428C70.4879 75.7629 70.6943 74.6893 71.1072 73.7522C71.5202 72.8384 72.0477 72.0843 72.713 71.49C73.3783 70.919 74.1123 70.4849 74.9611 70.2106C75.8098 69.9362 76.6815 69.7993 77.5762 69.7993H78.9296C79.7784 69.7993 80.6271 69.9362 81.4988 70.2106C82.3476 70.4849 83.1046 70.8962 83.7698 71.49C84.4351 72.0615 84.9627 72.8384 85.3756 73.7522C85.7885 74.6893 85.995 75.7862 85.995 77.0428V110.677C85.995 111.957 85.7885 113.054 85.3756 113.968C84.9627 114.882 84.4351 115.636 83.7698 116.23C83.1275 116.801 82.3476 117.235 81.4988 117.51ZM79.2507 78.0707C79.2507 76.3116 78.9525 75.4206 78.3102 75.4206V75.3978H78.1267C77.5073 75.3978 77.1862 76.2888 77.1862 78.0479V109.672C77.1862 110.632 77.255 111.294 77.3926 111.706C77.5303 112.117 77.7826 112.323 78.1497 112.323H78.2873C78.6543 112.323 78.9066 112.117 79.0443 111.706C79.1819 111.294 79.2507 110.609 79.2507 109.672V78.0707Z" fill="#1C0E31"/>
<path d="M106.618 117.509V70.2105H100.516V95.6653H100.447L96.2259 70.2105H88.7477V117.532H94.3908V91.255H94.5285L99.2081 117.509H106.618Z" fill="#1C0E31"/>
<path d="M109.577 117.532V70.2105H116.298V117.532H109.577Z" fill="#1C0E31"/>
<path d="M138.297 70.1877H132.149L128.708 82.6864L125.245 70.1877H119.097L125.612 93.8372L119.097 117.487H125.245L128.708 104.988L132.149 117.487H138.297L131.782 93.8372L138.297 70.1877Z" fill="#1C0E31"/>
<path fill-rule="evenodd" clip-rule="evenodd" d="M78.7232 68.1313H85.1692L80.8795 20.8096H72.2543L68.2628 68.1313H74.0435L74.9152 56.2266H77.7597L78.7232 68.1313ZM76.2687 39.1579H76.4751L77.3468 51.1996H75.3052L76.2687 39.1579Z" fill="#1C0E31"/>
<path d="M94.2532 20.8096H101.043L95.8819 51.1996L95.8131 68.1313H89.0918V51.1996L83.8616 20.8096H90.6517L92.3492 35.9818H92.5557L94.2532 20.8096Z" fill="#1C0E31"/>
<path d="M125.589 44.8932C125.451 44.5962 125.451 44.2306 125.589 43.9107L129.465 35.6163C129.74 34.7251 128.915 33.9025 128.02 34.1767L119.693 38.0383C119.395 38.1754 119.028 38.1754 118.707 38.0383L110.38 34.1767C109.485 33.9025 108.659 34.7251 108.935 35.6163L112.72 43.7279C112.766 43.8421 112.857 43.9564 112.949 44.0478L119.533 50.6285C119.624 50.7199 119.739 50.8113 119.854 50.857L127.997 54.6272C128.892 54.9014 129.718 54.0788 129.442 53.1876L125.589 44.8932ZM113.27 46.3328C112.88 45.9443 112.261 46.0586 112.031 46.5613L108.935 53.2105C108.659 54.1017 109.485 54.9242 110.38 54.65L117.055 51.5654C117.537 51.3368 117.651 50.697 117.284 50.3315L113.27 46.3328Z" fill="#E54848"/>
</svg>
