<svg width="191" height="139" viewBox="0 0 191 139" fill="none" xmlns="http://www.w3.org/2000/svg">
<g clip-path="url(#clip0_144_227)">
<path d="M182.083 0H8.67065C3.88198 0 0 3.88198 0 8.67065V130.059C0 134.848 3.88198 138.73 8.67065 138.73H182.083C186.872 138.73 190.754 134.848 190.754 130.059V8.67065C190.754 3.88198 186.872 0 182.083 0Z" fill="white"/>
<path d="M90.9082 76.6803V66.6231H93.1628V76.6803H90.9082ZM93.1628 71.086L92.384 70.6879C92.384 69.4168 92.6573 68.3901 93.2038 67.6078C93.7641 66.8117 94.6044 66.4136 95.7249 66.4136C96.2169 66.4136 96.6609 66.5044 97.0572 66.686C97.4535 66.8676 97.8224 67.1608 98.164 67.5659L96.6882 69.1164C96.5106 68.9209 96.3125 68.7812 96.0939 68.6974C95.8752 68.6136 95.6224 68.5717 95.3355 68.5717C94.7069 68.5717 94.1876 68.7742 93.7777 69.1793C93.3678 69.5844 93.1628 70.22 93.1628 71.086Z" fill="#2726E3"/>
<path d="M103.525 76.8898C102.542 76.8898 101.653 76.6664 100.861 76.2194C100.082 75.7584 99.4603 75.1298 98.9957 74.3337C98.5447 73.5375 98.3193 72.6435 98.3193 71.6517C98.3193 70.6599 98.5447 69.773 98.9957 68.9907C99.4466 68.1946 100.055 67.5659 100.82 67.105C101.599 66.6441 102.46 66.4136 103.402 66.4136C104.318 66.4136 105.124 66.6301 105.821 67.0631C106.532 67.4961 107.085 68.0898 107.481 68.8441C107.891 69.5984 108.096 70.4574 108.096 71.4212C108.096 71.5889 108.082 71.7635 108.055 71.945C108.041 72.1127 108.014 72.3013 107.973 72.5107H99.8975V70.625H106.805L105.965 71.3793C105.937 70.7647 105.821 70.2479 105.616 69.8288C105.411 69.4098 105.117 69.0886 104.735 68.8651C104.366 68.6416 103.908 68.5298 103.361 68.5298C102.788 68.5298 102.289 68.6555 101.865 68.9069C101.442 69.1583 101.114 69.5146 100.881 69.9755C100.649 70.4225 100.533 70.9603 100.533 71.5889C100.533 72.2175 100.656 72.7692 100.902 73.2441C101.148 73.719 101.496 74.0892 101.947 74.3546C102.398 74.606 102.917 74.7317 103.505 74.7317C104.011 74.7317 104.475 74.641 104.899 74.4594C105.336 74.2777 105.705 74.0124 106.006 73.6632L107.44 75.1508C106.962 75.7235 106.381 76.1565 105.698 76.4499C105.015 76.7432 104.291 76.8898 103.525 76.8898Z" fill="#2726E3"/>
<path d="M115.17 76.8898C114.418 76.8898 113.749 76.7292 113.161 76.408C112.574 76.0727 112.109 75.6187 111.768 75.0461C111.44 74.4733 111.276 73.8238 111.276 73.0974V70.206C111.276 69.4796 111.446 68.8301 111.788 68.2574C112.13 67.6847 112.594 67.2378 113.182 66.9164C113.769 66.5812 114.432 66.4136 115.17 66.4136C116.058 66.4136 116.858 66.651 117.568 67.126C118.292 67.5869 118.859 68.2155 119.269 69.0117C119.693 69.7939 119.905 70.6809 119.905 71.6727C119.905 72.6504 119.693 73.5375 119.269 74.3337C118.859 75.1158 118.292 75.7375 117.568 76.1984C116.858 76.6593 116.058 76.8898 115.17 76.8898ZM114.801 74.7108C115.348 74.7108 115.826 74.585 116.236 74.3337C116.659 74.0683 116.987 73.7051 117.22 73.2441C117.466 72.7832 117.589 72.2523 117.589 71.6517C117.589 71.0511 117.466 70.5203 117.22 70.0593C116.987 69.5984 116.659 69.2422 116.236 68.9907C115.826 68.7253 115.348 68.5926 114.801 68.5926C114.255 68.5926 113.769 68.7253 113.346 68.9907C112.922 69.2422 112.594 69.5984 112.362 70.0593C112.13 70.5203 112.014 71.0511 112.014 71.6517C112.014 72.2523 112.13 72.7832 112.362 73.2441C112.594 73.7051 112.922 74.0683 113.346 74.3337C113.769 74.585 114.255 74.7108 114.801 74.7108ZM109.902 82.625V66.6231H112.157V69.326L111.768 71.7774L112.157 74.2079V82.625H109.902Z" fill="#2726E3"/>
<path d="M125.831 76.8898C124.997 76.8898 124.252 76.7012 123.596 76.3241C122.954 75.9469 122.449 75.4301 122.08 74.7736C121.724 74.1032 121.547 73.3348 121.547 72.4688V66.623H123.801V72.364C123.801 72.8529 123.877 73.272 124.027 73.6212C124.191 73.9565 124.423 74.2149 124.724 74.3964C125.038 74.578 125.407 74.6689 125.831 74.6689C126.487 74.6689 126.985 74.4733 127.327 74.0822C127.682 73.6771 127.86 73.1044 127.86 72.364V66.623H130.115V72.4688C130.115 73.3489 129.93 74.1241 129.561 74.7946C129.206 75.451 128.707 75.9679 128.065 76.345C127.423 76.7082 126.678 76.8898 125.831 76.8898Z" fill="#2726E3"/>
<path d="M133.878 76.6803V62.4326H136.132V76.6803H133.878ZM131.521 68.7184V66.6231H138.49V68.7184H131.521Z" fill="#2726E3"/>
<path d="M143.967 76.8898C143.079 76.8898 142.273 76.6593 141.549 76.1984C140.838 75.7375 140.271 75.1158 139.847 74.3337C139.437 73.5375 139.232 72.6504 139.232 71.6727C139.232 70.6809 139.437 69.7939 139.847 69.0117C140.271 68.2155 140.838 67.5869 141.549 67.126C142.273 66.651 143.079 66.4136 143.967 66.4136C144.719 66.4136 145.382 66.5812 145.955 66.9164C146.543 67.2378 147.007 67.6847 147.349 68.2574C147.691 68.8301 147.862 69.4796 147.862 70.206V73.0974C147.862 73.8238 147.691 74.4733 147.349 75.0461C147.021 75.6187 146.564 76.0727 145.976 76.408C145.388 76.7292 144.719 76.8898 143.967 76.8898ZM144.336 74.7108C145.17 74.7108 145.839 74.4244 146.345 73.8517C146.864 73.279 147.124 72.5457 147.124 71.6517C147.124 71.0511 147.007 70.5203 146.775 70.0593C146.543 69.5984 146.215 69.2422 145.791 68.9907C145.382 68.7253 144.896 68.5926 144.336 68.5926C143.789 68.5926 143.305 68.7253 142.881 68.9907C142.471 69.2422 142.143 69.5984 141.897 70.0593C141.665 70.5203 141.549 71.0511 141.549 71.6517C141.549 72.2523 141.665 72.7832 141.897 73.2441C142.143 73.7051 142.471 74.0683 142.881 74.3337C143.305 74.585 143.789 74.7108 144.336 74.7108ZM146.98 76.6803V73.9774L147.37 71.526L146.98 69.0955V66.6231H149.235V76.6803H146.98Z" fill="#2726E3"/>
<path d="M153.233 76.6803V62.4326H155.488V76.6803H153.233ZM150.876 68.7184V66.6231H157.845V68.7184H150.876Z" fill="#2726E3"/>
<path d="M159.504 76.6803V66.6231H161.758V76.6803H159.504ZM160.631 64.7793C160.248 64.7793 159.927 64.6466 159.668 64.3812C159.422 64.1158 159.299 63.7875 159.299 63.3964C159.299 63.0053 159.422 62.6771 159.668 62.4117C159.927 62.1463 160.248 62.0135 160.631 62.0135C161.027 62.0135 161.349 62.1463 161.594 62.4117C161.84 62.6771 161.963 63.0053 161.963 63.3964C161.963 63.7875 161.84 64.1158 161.594 64.3812C161.349 64.6466 161.027 64.7793 160.631 64.7793Z" fill="#2726E3"/>
<path d="M168.796 76.8898C167.839 76.8898 166.972 76.6593 166.193 76.1984C165.414 75.7235 164.793 75.088 164.328 74.2918C163.877 73.4955 163.651 72.6085 163.651 71.6308C163.651 70.653 163.877 69.773 164.328 68.9907C164.793 68.2085 165.414 67.5869 166.193 67.126C166.972 66.651 167.839 66.4136 168.796 66.4136C169.766 66.4136 170.641 66.6441 171.42 67.105C172.199 67.5659 172.814 68.1946 173.264 68.9907C173.729 69.773 173.961 70.653 173.961 71.6308C173.961 72.6085 173.729 73.4955 173.264 74.2918C172.814 75.088 172.199 75.7235 171.42 76.1984C170.641 76.6593 169.766 76.8898 168.796 76.8898ZM168.796 74.6689C169.356 74.6689 169.848 74.5431 170.272 74.2918C170.709 74.0264 171.043 73.6632 171.276 73.2022C171.522 72.7412 171.645 72.2175 171.645 71.6308C171.645 71.0441 171.522 70.5273 171.276 70.0803C171.03 69.6333 170.695 69.2841 170.272 69.0326C169.848 68.7672 169.356 68.6346 168.796 68.6346C168.249 68.6346 167.757 68.7672 167.32 69.0326C166.896 69.2841 166.562 69.6333 166.316 70.0803C166.084 70.5273 165.968 71.0441 165.968 71.6308C165.968 72.2175 166.084 72.7412 166.316 73.2022C166.562 73.6632 166.896 74.0264 167.32 74.2918C167.757 74.5431 168.249 74.6689 168.796 74.6689Z" fill="#2726E3"/>
<path d="M182.58 76.6803V70.8765C182.58 70.206 182.368 69.6543 181.944 69.2212C181.534 68.7882 181.001 68.5717 180.345 68.5717C179.908 68.5717 179.519 68.6694 179.178 68.8651C178.836 69.0606 178.57 69.333 178.379 69.6821C178.187 70.0314 178.092 70.4295 178.092 70.8765L177.21 70.3736C177.21 69.6053 177.374 68.9279 177.702 68.3412C178.03 67.7406 178.481 67.2726 179.055 66.9374C179.642 66.5882 180.298 66.4136 181.022 66.4136C181.76 66.4136 182.416 66.6091 182.99 67.0002C183.563 67.3774 184.014 67.8732 184.342 68.4879C184.67 69.0886 184.834 69.7171 184.834 70.3736V76.6803H182.58ZM175.837 76.6803V66.6231H178.092V76.6803H175.837Z" fill="#2726E3"/>
<path d="M95.4867 96.6242C94.5168 96.6242 93.6354 96.3937 92.8434 95.9327C92.0645 95.4718 91.4496 94.8432 90.9987 94.047C90.5477 93.2508 90.3223 92.3638 90.3223 91.3861C90.3223 90.3943 90.5477 89.5073 90.9987 88.7251C91.4496 87.9289 92.0645 87.3003 92.8434 86.8394C93.6354 86.3784 94.5168 86.1479 95.4867 86.1479C96.2525 86.1479 96.9625 86.3016 97.6184 86.6089C98.2882 86.9022 98.8556 87.3283 99.3196 87.887L97.8439 89.4165C97.5569 89.0673 97.2085 88.8089 96.7985 88.6413C96.4025 88.4597 95.9655 88.3689 95.4867 88.3689C94.9267 88.3689 94.4282 88.5016 93.9912 88.767C93.5674 89.0184 93.2328 89.3676 92.9869 89.8146C92.754 90.2616 92.6384 90.7854 92.6384 91.3861C92.6384 91.9727 92.754 92.4965 92.9869 92.9575C93.2328 93.4045 93.5674 93.7607 93.9912 94.0261C94.4282 94.2775 94.9267 94.4033 95.4867 94.4033C95.9655 94.4033 96.4025 94.3194 96.7985 94.1518C97.2085 93.9702 97.5569 93.7048 97.8439 93.3556L99.3196 94.8851C98.8556 95.4439 98.2882 95.8769 97.6184 96.1842C96.9625 96.4776 96.2525 96.6242 95.4867 96.6242Z" fill="#2726E3"/>
<path d="M102.137 96.4147V86.3575H104.391V96.4147H102.137ZM103.264 84.5136C102.881 84.5136 102.561 84.381 102.301 84.1156C102.055 83.8502 101.932 83.5219 101.932 83.1308C101.932 82.7397 102.055 82.4115 102.301 82.1461C102.561 81.8807 102.881 81.7479 103.264 81.7479C103.66 81.7479 103.981 81.8807 104.227 82.1461C104.473 82.4115 104.596 82.7397 104.596 83.1308C104.596 83.5219 104.473 83.8502 104.227 84.1156C103.981 84.381 103.66 84.5136 103.264 84.5136Z" fill="#2726E3"/>
<path d="M109.877 96.4147V82.167H112.131V96.4147H109.877ZM107.52 88.4527V86.3575H114.489V88.4527H107.52Z" fill="#2726E3"/>
<path d="M121.058 96.5195L116.856 86.3575H119.337L122.206 93.8166H121.489L124.522 86.3575H127.023L122.452 96.5195H121.058ZM118.127 100.605L121.181 94.1727L122.452 96.5195L120.628 100.605H118.127Z" fill="#2726E3"/>
<mask id="mask0_144_227" style="mask-type:luminance" maskUnits="userSpaceOnUse" x="7" y="30" width="71" height="73">
<path d="M77.0205 30H7V103H77.0205V30Z" fill="white"/>
</mask>
<g mask="url(#mask0_144_227)">
<path d="M53.679 43.93V88.6854L42.0089 92.5767L30.3389 88.6854V43.93L42.0089 40.0387L53.679 43.93Z" fill="#2726E3"/>
<path d="M77.0228 36.1477V96.4683L65.3527 100.361L53.6826 96.4683V36.1477L65.3527 32.2551L77.0228 36.1477Z" fill="#2726E3"/>
<path d="M30.3402 51.7143V80.9021L18.6701 84.7934L7 80.9021V51.7143L18.6701 47.823L30.3402 51.7143Z" fill="url(#paint0_linear_144_227)"/>
<path d="M53.6798 43.93V88.6856L42.0098 92.5769V40.0387L53.6798 43.93Z" fill="#0F0EB2"/>
<path d="M77.0187 36.1477V96.4683L65.3486 100.361V32.2551L77.0187 36.1477Z" fill="#0F0EB2"/>
<path d="M30.3419 51.7143V80.9021L18.6719 84.7934V47.823L30.3419 51.7143Z" fill="url(#paint1_linear_144_227)"/>
</g>
</g>
<defs>
<linearGradient id="paint0_linear_144_227" x1="7" y1="66.2528" x2="30.3889" y2="66.2528" gradientUnits="userSpaceOnUse">
<stop stop-color="#2726E3"/>
<stop offset="0.498619" stop-color="#2120D6"/>
<stop offset="1" stop-color="#1715C1"/>
</linearGradient>
<linearGradient id="paint1_linear_144_227" x1="15.6937" y1="66.3082" x2="40.6629" y2="66.3082" gradientUnits="userSpaceOnUse">
<stop stop-color="#2120D6"/>
<stop offset="1" stop-color="#1715C1"/>
</linearGradient>
<clipPath id="clip0_144_227">
<rect width="191" height="139" fill="white"/>
</clipPath>
</defs>
</svg>
