<svg width="191" height="139" viewBox="0 0 191 139" fill="none" xmlns="http://www.w3.org/2000/svg">
<rect width="190.754" height="138.73" rx="8.67065" fill="white"/>
<path d="M101.176 58.8616C102.931 60.8584 103.858 63.7426 103.858 67.1815V87.0082H96.7386V69.1884C96.7386 64.7309 94.8528 62.5627 90.9601 62.5627C87.269 62.5627 85.0605 65.0436 85.0605 69.1884V87.0082H77.9406V56.4715H85.0605V59.3255C86.6034 57.6918 89.3364 55.6748 93.3905 55.6748C96.658 55.6748 99.3405 56.774 101.176 58.8616ZM74.2698 76.8428C72.8881 83.1155 67.7953 87.0082 60.9276 87.0082C53.6565 87.0082 46.3248 82.1574 46.3248 71.3163C46.3248 66.3848 47.888 62.2904 50.8327 59.4869C53.4144 57.0362 56.9542 55.6849 60.7965 55.6849C64.8405 55.6849 68.2996 57.0766 70.8107 59.7188C73.7958 62.8653 75.2177 67.6454 74.9152 73.545L74.8749 74.3014H74.1185H53.7775C54.3725 77.1756 56.1272 80.201 60.8671 80.201C63.7513 80.201 65.7683 79.0715 66.8575 76.8629H74.2698V76.8428ZM53.8481 68.4522H67.5533C66.8272 64.4586 64.5379 62.4316 60.7461 62.4316C55.8953 62.4316 54.3422 66.1327 53.8481 68.4522ZM41.2219 70.6406C39.3764 69.4607 36.7443 68.8153 33.1138 68.1598L30.3707 67.6757C27.0226 67.0504 24.8241 66.5159 24.8241 64.7511C24.8241 62.4215 28.3638 62.0786 30.4817 62.0786C34.8383 62.0786 36.3812 63.8132 36.3812 65.2957H43.1381C43.1381 62.4215 41.9783 60.0012 39.7798 58.2968C37.5713 56.5824 34.3845 55.6849 30.5422 55.6849C26.8713 55.6849 23.8055 56.5219 21.6776 58.0952C19.4388 59.7491 18.2589 62.1997 18.2589 65.1848C18.2589 67.9278 19.0253 69.8641 20.6692 71.2659C22.1214 72.5063 24.3098 73.3635 27.7789 74.0493L32.7003 75.0073C36.1291 75.6528 37.2284 76.3183 37.2284 77.7605C37.2284 78.4362 37.2284 80.4934 31.3893 80.4934C25.3384 80.4934 24.6426 78.416 24.6426 76.8428H17.3412C17.3412 80.1304 18.743 82.8029 21.3953 84.5778C23.7652 86.1611 27.073 86.9981 30.9657 86.9981C35.1912 86.9981 38.4587 86.2115 40.6774 84.6685C43.1078 82.9743 44.3482 80.3623 44.3482 76.9033C44.3482 73.9888 43.3599 71.992 41.2219 70.6406ZM162.774 76.8428C161.392 83.1155 156.299 87.0082 149.442 87.0082C142.171 87.0082 134.839 82.1574 134.839 71.3163C134.839 66.3848 136.402 62.2904 139.347 59.4869C141.929 57.0362 145.468 55.6849 149.311 55.6849C153.355 55.6849 156.814 57.0766 159.325 59.7188C162.31 62.8653 163.732 67.6454 163.429 73.545L163.389 74.3014H162.633H142.282C142.877 77.1756 144.631 80.201 149.371 80.201C152.255 80.201 154.272 79.0715 155.361 76.8629H162.774V76.8428ZM142.352 68.4522H156.057C155.331 64.4586 153.042 62.4316 149.25 62.4316C144.399 62.4316 142.846 66.1327 142.352 68.4522ZM129.726 70.6406C127.88 69.4607 125.248 68.8153 121.618 68.1598L118.875 67.6757C115.527 67.0504 113.328 66.5159 113.328 64.7511C113.328 62.4215 116.868 62.0786 118.986 62.0786C123.342 62.0786 124.885 63.8132 124.885 65.2957H131.642C131.642 62.4215 130.482 60.0012 128.284 58.2968C126.075 56.5824 122.888 55.6849 119.046 55.6849C115.375 55.6849 112.31 56.5219 110.182 58.0952C107.943 59.7491 106.763 62.1997 106.763 65.1848C106.763 67.9278 107.529 69.8641 109.173 71.2659C110.625 72.5063 112.814 73.3635 116.283 74.0493L121.214 75.0275C124.643 75.6729 125.742 76.3385 125.742 77.7806C125.742 78.4563 125.742 80.5136 119.903 80.5136C113.853 80.5136 113.157 78.4362 113.157 76.8629H105.855C105.855 80.1506 107.257 82.823 109.909 84.598C112.279 86.1813 115.587 87.0183 119.48 87.0183C123.705 87.0183 126.973 86.2317 129.191 84.6887C131.622 82.9945 132.862 80.3825 132.862 76.9234C132.852 73.9888 131.854 71.992 129.726 70.6406Z" fill="url(#paint0_linear_19_1047)"/>
<path d="M169.45 59.6386C171.638 59.6386 173.413 57.8641 173.413 55.6752C173.413 53.4864 171.638 51.7119 169.45 51.7119C167.261 51.7119 165.486 53.4864 165.486 55.6752C165.486 57.8641 167.261 59.6386 169.45 59.6386Z" fill="url(#paint1_linear_19_1047)"/>
<defs>
<linearGradient id="paint0_linear_19_1047" x1="54.9019" y1="30.179" x2="124.212" y2="112.779" gradientUnits="userSpaceOnUse">
<stop offset="0.3" stop-color="#6400FF"/>
<stop offset="1" stop-color="#FF46DC"/>
</linearGradient>
<linearGradient id="paint1_linear_19_1047" x1="166.897" y1="52.6397" x2="171.995" y2="58.716" gradientUnits="userSpaceOnUse">
<stop offset="0.3" stop-color="#6400FF"/>
<stop offset="1" stop-color="#FF46DC"/>
</linearGradient>
</defs>
</svg>
