<svg width="191" height="139" viewBox="0 0 191 139" fill="none" xmlns="http://www.w3.org/2000/svg">
<rect width="190.754" height="138.73" rx="8.67065" fill="white"/>
<path d="M47.1419 17.3438H49.5005L45.7187 31.5765H42.8517L41.4895 26.4323L40.1069 20.0683H39.7409L38.3786 26.4323L37.0164 31.5765H34.1292L30.3474 17.3438H32.7059L34.5155 24.1551L35.5931 29.1772L36.6707 24.1551L38.46 17.3438H41.3878L43.1771 24.1551L44.275 29.1976L45.3526 24.1551L47.1419 17.3438Z" fill="#2E80CC"/>
<path d="M61.0165 31.5765L59.5729 27.754H53.3918L51.9482 31.5765H49.5083L55.0184 17.3438H57.9464L63.4564 31.5765H61.0165ZM54.2254 25.5784H58.7393L56.4824 19.621L54.2254 25.5784Z" fill="#2E80CC"/>
<path d="M74.3147 31.5765L70.2482 26.2697H68.0523V31.5765H65.7547V17.3438H71.6308C73.1489 17.3438 74.335 17.7572 75.189 18.584C76.043 19.3973 76.4698 20.4885 76.4698 21.8575C76.4698 23.0233 76.1582 23.9789 75.5345 24.7244C74.9111 25.4564 74.0301 25.9308 72.8914 26.1477L77.1409 31.5765H74.3147ZM68.0523 19.5396V24.2364H71.3868C72.2949 24.2364 72.9794 24.0263 73.4403 23.6061C73.9147 23.1724 74.152 22.5963 74.152 21.8779C74.152 21.1595 73.9147 20.5902 73.4403 20.1699C72.9794 19.7497 72.2949 19.5396 71.3868 19.5396H68.0523Z" fill="#2E80CC"/>
<path d="M88.7275 19.5396H81.7332V23.2198H88.2192V25.4157H81.7332V29.3805H88.7275V31.5765H79.4356V17.3438H88.7275V19.5396Z" fill="#2E80CC"/>
<path d="M100.827 17.3438H103.124V31.5765H100.827V25.3547H93.5274V31.5765H91.2298V17.3438H93.5274V23.1588H100.827V17.3438Z" fill="#2E80CC"/>
<path d="M107.944 19.2142C109.367 17.8045 111.123 17.0996 113.21 17.0996C115.298 17.0996 117.046 17.8045 118.456 19.2142C119.866 20.6239 120.577 22.3725 120.591 24.4599C120.577 26.5474 119.866 28.296 118.456 29.7057C117.046 31.1154 115.298 31.8203 113.21 31.8203C111.123 31.8203 109.367 31.1154 107.944 29.7057C106.534 28.296 105.829 26.5474 105.829 24.4599C105.829 22.3725 106.534 20.6239 107.944 19.2142ZM113.21 19.2955C111.76 19.2955 110.553 19.7903 109.591 20.7798C108.629 21.7557 108.147 22.9824 108.147 24.4599C108.147 25.9374 108.629 27.171 109.591 28.1604C110.553 29.1364 111.76 29.6244 113.21 29.6244C114.647 29.6244 115.846 29.1364 116.809 28.1604C117.771 27.171 118.252 25.9374 118.252 24.4599C118.252 22.9824 117.771 21.7557 116.809 20.7798C115.846 19.7903 114.647 19.2955 113.21 19.2955Z" fill="#2E80CC"/>
<path d="M132.467 17.3438H134.805V25.9037C134.805 27.8149 134.27 29.2789 133.199 30.2954C132.142 31.3122 130.759 31.8205 129.051 31.8205C127.343 31.8205 125.954 31.3122 124.883 30.2954C123.826 29.2789 123.297 27.8149 123.297 25.9037V17.3438H125.635V25.7614C125.635 27.0762 125.94 28.0521 126.55 28.6893C127.174 29.3128 128.007 29.6246 129.051 29.6246C130.095 29.6246 130.922 29.3128 131.532 28.6893C132.155 28.0521 132.467 27.0762 132.467 25.7614V17.3438Z" fill="#2E80CC"/>
<path d="M143.052 23.1993C144.055 23.4162 144.855 23.6263 145.451 23.8296C146.061 24.0194 146.631 24.277 147.159 24.6023C147.688 24.9276 148.061 25.3207 148.278 25.7815C148.508 26.2424 148.623 26.8118 148.623 27.4894C148.623 28.9262 148.095 30.0106 147.037 30.7427C145.994 31.4611 144.753 31.8203 143.317 31.8203C141.46 31.8203 140.03 31.3866 139.027 30.5189C138.023 29.6379 137.413 28.5196 137.197 27.1641H139.514C139.731 28.0046 140.138 28.6348 140.734 29.0551C141.344 29.4617 142.198 29.6651 143.296 29.6651C144.259 29.6651 144.997 29.4888 145.513 29.1364C146.041 28.7704 146.305 28.2554 146.305 27.5911C146.305 26.9948 146.061 26.5745 145.573 26.3305C145.086 26.0865 144.13 25.8087 142.707 25.4969C142.612 25.4833 142.544 25.4698 142.503 25.4562C141.717 25.28 141.066 25.1038 140.551 24.9276C140.036 24.7514 139.528 24.5142 139.027 24.216C138.538 23.9177 138.172 23.5382 137.928 23.0773C137.698 22.6029 137.583 22.0472 137.583 21.4101C137.583 20.0681 138.091 19.0176 139.108 18.2586C140.124 17.4859 141.358 17.0996 142.808 17.0996C144.489 17.0996 145.79 17.4791 146.712 18.2382C147.647 18.9973 148.223 19.9868 148.44 21.2067H146.122C145.675 19.9055 144.577 19.2548 142.829 19.2548C141.893 19.2548 141.168 19.4446 140.653 19.8241C140.138 20.2037 139.88 20.712 139.88 21.3491C139.88 21.8371 140.097 22.203 140.531 22.447C140.978 22.6775 141.819 22.9282 143.052 23.1993Z" fill="#2E80CC"/>
<path d="M160.407 19.5396H153.413V23.2198H159.899V25.4157H153.413V29.3805H160.407V31.5765H151.115V17.3438H160.407V19.5396Z" fill="#2E80CC"/>
<path fill-rule="evenodd" clip-rule="evenodd" d="M152.543 57.2356L30.6275 37.455L30.9951 35.1895L159.892 56.1028V58.3684L37.9335 78.1558L159.895 98.191V100.456L30.9973 121.631L30.6253 119.366L152.629 99.3234L30.6253 79.2812L30.6275 77.016L152.543 57.2356Z" fill="#2E80CC"/>
<path d="M34.7223 55.7769H32.0685V57.4089H34.5459V57.9896H32.0685V59.7614H34.7223V60.3421H31.4583V55.1962H34.7223V55.7769ZM39.1345 55.1962H39.7814L37.9288 60.3421H37.1422L35.297 55.1962H35.9439L37.5319 59.6659L39.1345 55.1962ZM43.9332 55.7769H41.2793V57.4089H43.7568V57.9896H41.2793V59.7614H43.9332V60.3421H40.6691V55.1962H43.9332V55.7769ZM48.4702 55.1962H49.0806V60.3421H48.3233L45.4194 56.0122L45.4784 58.1882V60.3421H44.8681V55.1962H45.618L48.5217 59.5262L48.4702 57.3502V55.1962ZM53.8683 55.1962V55.7769H52.207V60.3421H51.5894V55.7769H49.9353V55.1962H53.8683ZM58.7523 57.4309C59.1051 57.5094 59.3819 57.5804 59.583 57.6441C59.7887 57.7078 59.9873 57.7962 60.1785 57.9089C60.3696 58.0166 60.5043 58.1515 60.5828 58.3132C60.6662 58.4748 60.7077 58.6734 60.7077 58.9086C60.7077 59.4036 60.5265 59.7811 60.1637 60.0407C59.8011 60.2956 59.3552 60.423 58.8257 60.423C58.1788 60.423 57.6741 60.2736 57.3113 59.9745C56.9536 59.6756 56.7306 59.2836 56.6424 58.7984H57.2599C57.4315 59.4992 57.9485 59.8496 58.811 59.8496C59.213 59.8496 59.5266 59.7711 59.752 59.6144C59.9776 59.4526 60.0903 59.2247 60.0903 58.9306C60.0903 58.671 59.9873 58.4871 59.7814 58.3794C59.5756 58.2715 59.186 58.1538 58.6126 58.0264C58.3038 57.9579 58.0514 57.8917 57.8553 57.8279C57.6642 57.7642 57.478 57.681 57.2966 57.5781C57.1202 57.4702 56.9903 57.3379 56.9071 57.181C56.8236 57.0194 56.7821 56.8282 56.7821 56.6076C56.7821 56.1419 56.9585 55.7769 57.3113 55.5122C57.6691 55.2476 58.1079 55.1152 58.6273 55.1152C59.2007 55.1152 59.654 55.2402 59.9873 55.4902C60.3206 55.7401 60.5362 56.0709 60.6342 56.4827H60.0168C59.8109 55.9533 59.3502 55.6887 58.6346 55.6887C58.2523 55.6887 57.9485 55.7721 57.7231 55.9385C57.5025 56.1004 57.3923 56.3233 57.3923 56.6076C57.3923 56.8183 57.4853 56.9777 57.6716 57.0854C57.8628 57.1933 58.223 57.3085 58.7523 57.4309ZM63.8274 55.1962C64.386 55.1962 64.8221 55.3506 65.1359 55.6592C65.4495 55.9632 65.6064 56.3577 65.6064 56.8428C65.6064 57.333 65.447 57.7348 65.1284 58.0485C64.8148 58.3621 64.3811 58.519 63.8274 58.519H62.3717V60.3421H61.7615V55.1962H63.8274ZM63.8052 57.9382C64.1924 57.9382 64.4865 57.8352 64.6874 57.6295C64.8883 57.4237 64.9888 57.1638 64.9888 56.8502C64.9888 56.5365 64.8883 56.2793 64.6874 56.0782C64.4865 55.8773 64.1924 55.7769 63.8052 55.7769H62.3717V57.9382H63.8052ZM69.8065 60.3421L69.1963 58.7984H66.8072L66.197 60.3421H65.5499L67.6085 55.1962H68.395L70.4534 60.3421H69.8065ZM67.0423 58.2175H68.9685L68.0055 55.7769L67.0423 58.2175ZM73.4777 60.423C72.718 60.423 72.0858 60.1706 71.5811 59.6659C71.0811 59.161 70.8312 58.5288 70.8312 57.7692C70.8312 57.0094 71.0811 56.3773 71.5811 55.8725C72.0858 55.3676 72.718 55.1152 73.4777 55.1152C74.0512 55.1152 74.5559 55.2721 74.9921 55.5857C75.4332 55.8945 75.742 56.3111 75.9184 56.8355H75.264C75.1073 56.4875 74.8695 56.2106 74.5509 56.0047C74.2373 55.7989 73.8771 55.6959 73.4703 55.6959C72.8921 55.6959 72.4094 55.8945 72.0221 56.2915C71.6398 56.6836 71.4487 57.1761 71.4487 57.7692C71.4487 58.3622 71.6398 58.8571 72.0221 59.2541C72.4094 59.6462 72.8921 59.8423 73.4703 59.8423C73.8771 59.8423 74.2373 59.7394 74.5509 59.5335C74.8695 59.3276 75.1073 59.0508 75.264 58.7027H75.9184C75.742 59.2272 75.4332 59.6462 74.9921 59.96C74.5559 60.2686 74.0512 60.423 73.4777 60.423ZM80.1521 55.7769H77.4983V57.4089H79.9757V57.9896H77.4983V59.7614H80.1521V60.3421H76.8879V55.1962H80.1521V55.7769Z" fill="#2E80CC"/>
<path d="M34.4133 95.7893C35.0063 95.9559 35.3028 96.3922 35.3028 97.0978C35.3028 97.5438 35.1582 97.8943 34.869 98.1492C34.5848 98.3991 34.1682 98.524 33.6193 98.524H31.458V93.3779H33.5825C34.0972 93.3779 34.4843 93.4931 34.7441 93.7235C35.0087 93.949 35.141 94.2699 35.141 94.6866C35.141 95.2208 34.8985 95.5884 34.4133 95.7893ZM34.5235 94.7748C34.5235 94.5053 34.4451 94.3019 34.2883 94.1647C34.1315 94.0273 33.8717 93.9588 33.509 93.9588H32.0681V95.5834H33.4943C33.8668 95.5834 34.1315 95.5149 34.2883 95.3775C34.4451 95.2404 34.5235 95.0395 34.5235 94.7748ZM33.612 97.9433C34.3324 97.9433 34.6926 97.6467 34.6926 97.0538C34.6926 96.7548 34.6068 96.5294 34.4353 96.3774C34.2638 96.2206 33.9844 96.1421 33.5972 96.1421H32.0681V97.9433H33.612ZM40.117 93.3779L38.2129 96.6788V98.524H37.6028V96.6935L35.6987 93.3779H36.3898L37.9042 96.0099L39.4186 93.3779H40.117ZM43.2103 98.524V93.3779H43.8204V98.524H43.2103ZM48.6488 93.3779V93.9588H46.9873V98.524H46.3699V93.9588H44.7157V93.3779H48.6488ZM36.5084 102.873C36.5084 103.608 36.2634 104.228 35.7733 104.732L36.5084 105.71L35.7071 106.313L34.9426 105.306C34.5946 105.458 34.2221 105.534 33.8251 105.534C33.0655 105.534 32.4284 105.279 31.9138 104.769C31.4041 104.259 31.1492 103.627 31.1492 102.873C31.1492 102.118 31.4041 101.486 31.9138 100.976C32.4284 100.466 33.0655 100.211 33.8251 100.211C34.5848 100.211 35.2219 100.466 35.7365 100.976C36.2511 101.486 36.5084 102.118 36.5084 102.873ZM32.6636 101.682C32.3598 101.995 32.2078 102.392 32.2078 102.873C32.2078 103.353 32.3598 103.75 32.6636 104.064C32.9724 104.377 33.3595 104.534 33.8251 104.534C34.2907 104.534 34.6755 104.377 34.9793 104.064C35.2881 103.75 35.4425 103.353 35.4425 102.873C35.4425 102.392 35.2881 101.995 34.9793 101.682C34.6755 101.368 34.2907 101.211 33.8251 101.211C33.3595 101.211 32.9724 101.368 32.6636 101.682ZM40.5834 100.299H41.6494V103.365C41.6494 104.066 41.4534 104.603 41.0613 104.975C40.6692 105.348 40.157 105.534 39.5248 105.534C38.8926 105.534 38.3804 105.348 37.9884 104.975C37.5963 104.603 37.4003 104.066 37.4003 103.365V100.299H38.4662V103.306C38.4662 104.125 38.8191 104.534 39.5248 104.534C40.2306 104.534 40.5834 104.125 40.5834 103.306V100.299ZM46.0735 105.446L45.6397 104.233H43.5593L43.1183 105.446H42.0082L43.9343 100.299H45.2649L47.191 105.446H46.0735ZM43.9196 103.233H45.2722L44.5959 101.366L43.9196 103.233ZM50.9162 105.446L49.5857 103.593H49.0048V105.446H47.9536V100.299H50.1664C50.7153 100.299 51.1441 100.451 51.4529 100.755C51.7665 101.054 51.9234 101.461 51.9234 101.976C51.9234 102.387 51.823 102.723 51.6221 102.983C51.421 103.243 51.1368 103.419 50.7693 103.512L52.21 105.446H50.9162ZM49.0048 101.299V102.674H50.0487C50.3183 102.674 50.5192 102.615 50.6516 102.498C50.7888 102.375 50.8575 102.206 50.8575 101.99C50.8575 101.775 50.7888 101.606 50.6516 101.483C50.5144 101.361 50.3134 101.299 50.0487 101.299H49.0048ZM56.4606 100.299V101.299H54.9756V105.446H53.9243V101.299H52.4466V100.299H56.4606ZM60.677 101.299H58.2731V102.336H60.4786V103.336H58.2731V104.446H60.677V105.446H57.2219V100.299H60.677V101.299ZM64.5352 105.446L63.2045 103.593H62.6238V105.446H61.5726V100.299H63.7853C64.3343 100.299 64.763 100.451 65.0718 100.755C65.3854 101.054 65.5423 101.461 65.5423 101.976C65.5423 102.387 65.4419 102.723 65.2408 102.983C65.0399 103.243 64.7556 103.419 64.388 103.512L65.829 105.446H64.5352ZM62.6238 101.299V102.674H63.6677C63.9373 102.674 64.1382 102.615 64.2705 102.498C64.4077 102.375 64.4762 102.206 64.4762 101.99C64.4762 101.775 64.4077 101.606 64.2705 101.483C64.1332 101.361 63.9323 101.299 63.6677 101.299H62.6238Z" fill="#2E80CC"/>
</svg>
