<svg width="191" height="139" viewBox="0 0 191 139" fill="none" xmlns="http://www.w3.org/2000/svg">
<rect width="190.754" height="138.73" rx="8.67065" fill="white"/>
<path d="M129.032 111.999C127.96 111.999 126.998 111.82 126.146 111.463C125.295 111.088 124.623 110.577 124.129 109.93C123.635 109.266 123.363 108.509 123.312 107.657H125.712C125.78 108.355 126.104 108.926 126.683 109.368C127.279 109.811 128.053 110.032 129.007 110.032C129.892 110.032 130.59 109.837 131.101 109.445C131.612 109.053 131.867 108.56 131.867 107.964C131.867 107.351 131.595 106.9 131.05 106.61C130.505 106.304 129.662 106.006 128.522 105.716C127.483 105.444 126.632 105.172 125.968 104.899C125.321 104.61 124.759 104.193 124.282 103.648C123.822 103.086 123.593 102.354 123.593 101.451C123.593 100.736 123.805 100.081 124.231 99.4849C124.657 98.889 125.261 98.4208 126.044 98.0803C126.828 97.7227 127.721 97.5439 128.726 97.5439C130.275 97.5439 131.527 97.9355 132.48 98.7187C133.434 99.5019 133.944 100.575 134.012 101.937H131.688C131.637 101.205 131.339 100.617 130.795 100.174C130.267 99.7318 129.552 99.5104 128.649 99.5104C127.815 99.5104 127.151 99.6892 126.657 100.047C126.163 100.404 125.917 100.873 125.917 101.451C125.917 101.911 126.061 102.294 126.351 102.601C126.657 102.89 127.032 103.128 127.475 103.316C127.934 103.486 128.564 103.682 129.364 103.903C130.369 104.176 131.186 104.448 131.816 104.72C132.446 104.976 132.982 105.367 133.425 105.895C133.885 106.423 134.123 107.113 134.14 107.964C134.14 108.73 133.927 109.42 133.502 110.032C133.076 110.645 132.472 111.131 131.688 111.488C130.922 111.829 130.037 111.999 129.032 111.999Z" fill="#030BA6"/>
<path d="M120.537 97.7734V111.769H118.213V109.7C117.77 110.415 117.149 110.977 116.348 111.386C115.565 111.777 114.697 111.973 113.743 111.973C112.654 111.973 111.675 111.752 110.806 111.309C109.938 110.849 109.249 110.168 108.738 109.266C108.244 108.364 107.997 107.265 107.997 105.971V97.7734H110.296V105.665C110.296 107.044 110.645 108.108 111.343 108.857C112.041 109.589 112.994 109.956 114.203 109.956C115.446 109.956 116.425 109.572 117.14 108.806C117.855 108.04 118.213 106.925 118.213 105.461V97.7734H120.537Z" fill="#030BA6"/>
<path d="M101.305 100.047C101.713 99.2467 102.292 98.6252 103.041 98.1826C103.808 97.7399 104.736 97.5186 105.825 97.5186V99.9192H105.212C102.607 99.9192 101.305 101.332 101.305 104.159V111.769H98.9807V97.7739H101.305V100.047Z" fill="#030BA6"/>
<path d="M84.4294 100.353C84.8891 99.553 85.5701 98.889 86.4725 98.3612C87.3919 97.8164 88.4561 97.5439 89.6649 97.5439C90.9078 97.5439 92.0315 97.8419 93.036 98.4378C94.0576 99.0337 94.8578 99.8765 95.4367 100.966C96.0156 102.039 96.305 103.29 96.305 104.72C96.305 106.134 96.0156 107.393 95.4367 108.5C94.8578 109.607 94.0576 110.467 93.036 111.08C92.0315 111.693 90.9078 111.999 89.6649 111.999C88.4731 111.999 87.4175 111.735 86.4981 111.207C85.5957 110.662 84.9061 109.99 84.4294 109.19V118.409H82.1053V97.7738H84.4294V100.353ZM93.9299 104.72C93.9299 103.665 93.7171 102.745 93.2914 101.962C92.8658 101.179 92.2869 100.583 91.5548 100.174C90.8397 99.7658 90.048 99.5615 89.1797 99.5615C88.3284 99.5615 87.5366 99.7743 86.8045 100.2C86.0894 100.609 85.5106 101.213 85.0679 102.013C84.6422 102.796 84.4294 103.707 84.4294 104.746C84.4294 105.802 84.6422 106.729 85.0679 107.53C85.5106 108.313 86.0894 108.917 86.8045 109.343C87.5366 109.752 88.3284 109.956 89.1797 109.956C90.048 109.956 90.8397 109.752 91.5548 109.343C92.2869 108.917 92.8658 108.313 93.2914 107.53C93.7171 106.729 93.9299 105.793 93.9299 104.72Z" fill="#030BA6"/>
<path d="M80.1521 97.7734L71.7242 118.358H69.3235L72.0817 111.616L66.4376 97.7734H69.0171L73.4098 109.113L77.7514 97.7734H80.1521Z" fill="#030BA6"/>
<path d="M47.8844 102.856C47.8844 101.119 48.276 99.5612 49.0592 98.1821C49.8424 96.7859 50.9065 95.6963 52.2516 94.9131C53.6137 94.1299 55.1205 93.7383 56.772 93.7383C58.7129 93.7383 60.407 94.2065 61.8542 95.1429C63.3015 96.0793 64.3571 97.4074 65.0211 99.127H62.2373C61.7436 98.0544 61.0285 97.2286 60.092 96.6497C59.1726 96.0708 58.066 95.7814 56.772 95.7814C55.5291 95.7814 54.4139 96.0708 53.4264 96.6497C52.4389 97.2286 51.6642 98.0544 51.1023 99.127C50.5405 100.183 50.2595 101.425 50.2595 102.856C50.2595 104.269 50.5405 105.512 51.1023 106.584C51.6642 107.64 52.4389 108.457 53.4264 109.036C54.4139 109.615 55.5291 109.904 56.772 109.904C58.066 109.904 59.1726 109.623 60.092 109.062C61.0285 108.483 61.7436 107.657 62.2373 106.584H65.0211C64.3571 108.287 63.3015 109.606 61.8542 110.543C60.407 111.462 58.7129 111.922 56.772 111.922C55.1205 111.922 53.6137 111.539 52.2516 110.773C50.9065 109.99 49.8424 108.908 49.0592 107.529C48.276 106.15 47.8844 104.592 47.8844 102.856Z" fill="#030BA6"/>
<path fill-rule="evenodd" clip-rule="evenodd" d="M122.633 32.8518V27.5544H133.686V20.3223H114.137V48.9569C112.09 49.3176 110.173 50.0617 108.462 51.1133V20.3333H97.2468L91.3454 41.4581L85.0391 20.3333H72.8334V22.0423C77.5053 24.4713 80.8895 28.8741 81.758 34.0779V29.0448L86.7887 49.8594C85.2154 49.2386 83.5243 48.8519 81.758 48.7421V39.3793C80.8895 44.5832 77.5053 48.986 72.8334 51.415C71.9663 51.8658 71.0548 52.2487 70.1068 52.556L68.1039 53.2816V61.637H69.0498H74.1698C75.3928 58.6591 78.0758 56.5922 81.1888 56.5922C84.3017 56.5922 86.9847 58.6591 88.2077 61.637H74.4098V68.5735H69.0498H68.1039V75.9846C71.1402 79.5526 75.6637 81.8159 80.7158 81.8159C87.8047 81.8159 93.8528 77.3597 96.2119 71.0958H86.9043C85.4913 72.8392 83.4539 73.9335 81.1888 73.9335C77.967 73.9335 74.5675 72.0417 74.4098 68.5735H86.7064H88.3305H96.9377C97.1548 67.5038 97.2688 66.3967 97.2688 65.2629C97.2688 60.4668 95.2291 56.1471 91.9698 53.124H93.7623L100.798 29.0448V53.124H105.828C102.6 56.1471 100.579 60.4668 100.579 65.2629C100.579 74.4048 107.92 81.8159 116.975 81.8159C124.796 81.8159 131.338 76.2867 132.976 68.8888H123.788C122.582 71.5032 120.055 73.3029 117.133 73.3029C113.04 73.3029 109.723 69.7738 109.723 65.4205C109.723 61.0672 113.04 57.5381 117.133 57.5381C120.055 57.5381 122.582 59.3378 123.788 61.9523H133.042C132.314 58.3315 130.416 55.14 127.763 52.7977H133.686V45.5656H122.633V39.7154H132.385V32.8518H122.633ZM60.8521 68.5735V81.8159H52.9697V64.1593V62.8982C52.9697 60.4603 50.9934 58.484 48.5555 58.484H47.2944C44.8565 58.484 42.8802 60.4603 42.8802 62.8982V64.1593H42.8585L42.8802 64.6323V81.8159H33.7366V53.124H33.5036H33.4213H26.4848V81.8159H17.3412V50.9169H25.0298L17.4102 20.3333H25.8091L30.4446 41.6799L34.9203 20.3333H41.3416L46.2185 41.3646L47.0011 37.5949C47.2583 42.632 49.7461 47.0801 53.4961 49.971C55.606 51.5976 58.1154 52.7313 60.8521 53.1994V61.637H54.5462V68.5735H60.8521ZM137.469 81.8159V20.3333H144.721L157.018 40.3545V20.3333H164.9V52.9663H162.062C164.848 56.7207 164.842 62.5219 164.833 72.0853V72.0857V72.086V72.0864V72.0868V72.0872V72.0875V72.0879V72.0883V72.0887C164.83 74.9732 164.827 78.1999 164.9 81.8159H155.441V80.5547V64.1593V63.2134C155.441 60.6015 153.324 58.484 150.712 58.484H150.081C147.469 58.484 145.352 60.6015 145.352 63.2134V64.1593V80.5547V81.8159H137.469ZM145.036 53.7546V33.5757L155.599 49.971C150.082 49.3295 147.808 50.2209 145.036 53.7546ZM59.0294 20.3333L58.9718 20.6933C54.4847 22.0114 50.7815 25.1616 48.7275 29.2786L50.5846 20.3333H59.0294ZM43.3531 53.124H43.3372L38.1969 31.5438L33.9836 50.9169H42.2496L42.3904 53.9797L43.3531 53.124ZM64.478 46.5028C69.4408 46.5028 73.464 42.1268 73.464 36.7286C73.464 31.3305 69.4408 26.9545 64.478 26.9545C59.5152 26.9545 55.4921 31.3305 55.4921 36.7286C55.4921 42.1268 59.5152 46.5028 64.478 46.5028Z" fill="#030BA6"/>
<path d="M169.974 74.5693C171.889 74.6665 173.413 76.2505 173.413 78.1904L173.408 78.377C173.311 80.2927 171.727 81.8164 169.787 81.8164L169.601 81.8115C167.747 81.7176 166.26 80.231 166.166 78.377L166.161 78.1904C166.161 76.1879 167.785 74.5645 169.787 74.5645L169.974 74.5693ZM169.787 74.9111C167.976 74.9111 166.508 76.3794 166.508 78.1904C166.508 80.0014 167.976 81.4697 169.787 81.4697C171.598 81.4697 173.066 80.0014 173.066 78.1904C173.066 76.3795 171.598 74.9112 169.787 74.9111ZM170.418 76.1406C171.364 76.1411 171.994 78.0324 170.575 78.3477C171.158 78.3477 171.202 78.6173 171.33 79.4062C171.34 79.4702 171.351 79.5375 171.363 79.6084C171.365 79.6261 171.367 79.6439 171.369 79.6611C171.402 79.9841 171.426 80.2217 171.521 80.3066H170.891C170.891 78.7547 170.432 78.5764 170.418 78.5713H168.757V80.3066H168.211V76.1406H170.418ZM168.747 78.127H170.103C170.52 78.1269 170.859 77.788 170.859 77.3701C170.859 76.9522 170.52 76.6134 170.103 76.6133H168.747V78.127Z" fill="#030BA6"/>
</svg>
