<svg width="191" height="139" viewBox="0 0 191 139" fill="none" xmlns="http://www.w3.org/2000/svg">
<g clip-path="url(#clip0_450_19960)">
<path d="M182.083 0H8.67065C3.88198 0 0 3.88198 0 8.67065V130.059C0 134.848 3.88198 138.73 8.67065 138.73H182.083C186.872 138.73 190.754 134.848 190.754 130.059V8.67065C190.754 3.88198 186.872 0 182.083 0Z" fill="white"/>
<path d="M77.5769 103.993L77.1802 101.808L83.9063 100.588L85.6661 110.265L83.4244 110.673L82.0623 103.179L77.5769 103.993Z" fill="#191918"/>
<path d="M67.3081 104.453C67.5216 102.116 69.654 101.027 72.2612 101.262C74.8528 101.499 76.7537 102.954 76.5401 105.291C76.275 108.202 75.9578 111.687 75.9578 111.687L73.5911 111.472L74.0943 105.945C74.1895 104.741 73.3335 103.589 72.0458 103.473C70.7561 103.356 69.6928 104.332 69.5972 105.536C69.4272 107.412 69.092 111.063 69.092 111.063L66.739 110.849L67.3076 104.451L67.3081 104.453Z" fill="#191918"/>
<path d="M64.6768 100.153L66.8702 101.031L63.2063 110.163L61.0128 109.285L59.1527 103.046C58.9837 102.449 59.0746 101.652 59.1077 101.044L58.7219 101.024C58.6906 101.633 58.7171 102.43 58.4885 103.004L56.6676 107.544L54.4604 106.661L58.1239 97.5293L60.3316 98.4123L62.1922 104.651C62.3669 105.236 62.2618 106.028 62.2424 106.639L62.6282 106.659C62.6476 106.045 62.6329 105.253 62.8616 104.679L64.6768 100.153Z" fill="#191918"/>
<path d="M54.2605 101.415C52.3047 103.589 49.1843 103.749 46.9255 101.74C44.2994 99.4039 44.6814 97.2228 45.8234 95.7726L47.5779 97.3331C47.3398 97.8539 46.9071 98.636 48.4192 99.9824C49.6057 101.04 51.1008 101.39 52.4946 99.8267C53.8803 98.2724 53.3775 96.8289 52.201 95.7826C50.5734 94.3334 49.8253 94.8551 49.3334 95.1316L47.5789 93.5716C49.3206 91.9775 51.2035 91.8085 53.6829 94.0148C55.9829 96.0614 56.2054 99.2126 54.2605 101.415Z" fill="#191918"/>
<path d="M41.194 95.3611L39.945 93.3405L43.0939 91.3994L40.65 87.4414L37.5011 89.3825L36.2607 87.3747L44.6411 82.2095L45.8815 84.2173L42.5665 86.2626L45.0104 90.2205L48.3254 88.1753L49.5738 90.1959L41.194 95.3611Z" fill="#191918"/>
<path d="M42.0573 69.7495L41.7775 72.0926L32 70.9275L32.4517 67.1598L38.5169 65.9597C39.1428 65.8228 39.9325 65.9734 40.5598 66.0468L40.6071 65.6571C39.9798 65.5814 39.1631 65.5416 38.5993 65.2755L32.9881 62.6806L33.4364 58.9263L43.2139 60.0938L42.9336 62.4368L36.2022 61.6324C35.5887 61.5581 34.808 61.2101 34.2034 61.0539L34.1021 61.4232C34.7066 61.5799 35.5442 61.6812 36.1232 61.9345L42.6685 64.6549L42.3262 67.5154L35.3202 68.6474C34.6986 68.7563 33.8758 68.6445 33.2361 68.6673L33.2608 69.0536C33.8867 69.0299 34.7123 68.8727 35.3287 68.9471L42.0596 69.7491L42.0573 69.7495Z" fill="#191918"/>
<path d="M36.3293 52.013L37.4608 49.7642L47.9692 50.8076L46.8827 52.9679L43.3163 52.5792L42.1228 54.9531L44.6225 57.4651L43.5355 59.6254L36.3274 52.0154L36.3293 52.013ZM39.6826 51.9799C39.3238 51.9723 38.9592 51.6948 38.6335 51.532L38.4621 51.8714C38.7883 52.0367 39.2291 52.1631 39.4554 52.4334L40.7105 54.0701L41.753 51.9979L39.6831 51.9822L39.6826 51.9799Z" fill="#191918"/>
<path d="M49.0562 49.5846L43.2931 44.5993L41.69 46.4476L40.0103 44.9956L44.7626 39.5127L46.4424 40.9676L44.8393 42.8159L50.6025 47.8007L49.0562 49.5846Z" fill="#191918"/>
<path d="M54.6274 44.376L50.1269 38.2284L48.1513 39.6709L46.8394 37.878L52.6991 33.5977L54.0115 35.3901L52.0358 36.8331L56.5359 42.9807L54.6293 44.3736L54.6274 44.376Z" fill="#191918"/>
<path d="M55.478 32.107L62.1691 29.6021L62.9489 31.68L58.3911 33.3867L58.9299 34.8208L63.1572 33.2385L63.9369 35.3165L59.7096 36.8992L60.2867 38.4378L64.9089 36.7074L65.6887 38.7853L58.9327 41.3145L55.4775 32.1047L55.478 32.107Z" fill="#191918"/>
<path d="M74.1466 35.1357C74.3331 35.6948 75.165 37.4986 75.165 37.4986L72.7173 37.7623C72.2917 36.5645 71.9688 35.6811 71.893 35.4898C71.3173 33.9549 70.449 34.4303 69.9562 34.4549C69.8572 34.4644 69.7607 34.4767 69.6352 34.4895C69.3275 34.5216 68.5998 34.6012 68.7683 34.5822L69.1528 38.1449L66.8869 38.3892L65.833 28.6103L69.7071 28.1932C71.9868 27.9484 73.9236 28.1913 74.1688 30.4842C74.2934 31.6441 73.7816 32.279 73.0548 32.7387C72.5109 33.0663 71.6615 33.0729 71.0323 33.1401L71.0735 33.517C71.7027 33.4498 72.5663 33.1861 73.1207 33.4796C73.738 33.8224 73.917 34.4246 74.1485 35.1352L74.1466 35.1357ZM68.5676 32.7245L69.9533 32.5753C71.0157 32.4608 71.9015 31.6157 71.8097 30.7654C71.7141 29.8862 70.7629 29.4502 69.629 29.5733L68.2457 29.7229L68.57 32.7268L68.5676 32.7245Z" fill="#191918"/>
<path d="M83.8705 31.6125C83.0581 30.6609 82.1027 30.2102 80.7908 29.946C80.1294 29.8116 79.539 29.9668 79.4576 30.366C79.2209 31.5363 85.6592 32.6323 84.9358 36.2134C84.5944 37.9069 82.4038 38.8003 79.3156 38.1777C77.6335 37.8387 76.6544 37.2829 75.4348 35.5752L77.2869 34.4295C77.9672 35.2542 78.4236 35.7622 80.1616 36.1116C81.1823 36.3161 81.8442 36.0927 81.9465 35.5832C82.2306 34.1781 76.2392 33.0011 76.8518 29.9702C77.1378 28.5513 79.1371 27.6787 81.812 28.2156C83.1646 28.4883 84.3601 29.0309 85.6909 30.4019L83.8686 31.6125H83.8705Z" fill="#191918"/>
<path d="M158.962 67.8204C157.956 44.7047 138.386 26.7818 115.254 27.7869C93.5569 28.7285 76.4326 45.9877 75.2163 67.195L90.7991 67.9108C90.7991 67.9108 94.8228 68.6086 98.733 64.5115C102.937 60.1033 105.315 54.6242 116.305 53.9264C127.292 53.2304 133.284 60.3897 133.284 60.3897C133.284 60.3897 137.055 64.2 137.358 68.638C137.36 68.6763 137.36 68.7147 137.362 68.7554C137.362 68.7938 137.366 68.8321 137.366 68.8728C137.394 70.2595 137.077 71.6145 136.632 72.8227C135.649 75.4901 134.026 77.4435 134.026 77.4435C134.026 77.4435 128.68 85.0952 117.672 85.3551C106.664 85.6145 103.821 80.3618 99.2485 76.3347C94.9966 72.5903 91.05 73.6361 91.05 73.6361L75.587 75.7022C75.8427 77.4619 76.2063 79.1848 76.6721 80.865C81.7692 99.2401 99.0156 112.353 118.895 111.49C142.03 110.485 159.968 90.9313 158.96 67.818L158.962 67.8204Z" fill="#191918"/>
</g>
<defs>
<clipPath id="clip0_450_19960">
<rect width="191" height="139" fill="white"/>
</clipPath>
</defs>
</svg>
