<svg width="179" height="114" viewBox="0 0 179 114" fill="none" xmlns="http://www.w3.org/2000/svg">
<path d="M79.1035 13.7114C85.511 13.7114 90.7059 18.9055 90.7061 25.3129C90.7061 31.7205 85.5111 36.9155 79.1035 36.9155C72.6961 36.9153 67.502 31.7204 67.502 25.3129C67.5022 18.9057 72.6962 13.7116 79.1035 13.7114ZM79.1035 20.9623C78.9034 20.9624 78.7413 21.1246 78.7412 21.3246V29.3012C78.7412 29.5014 78.9034 29.6634 79.1035 29.6635C79.3038 29.6635 79.4658 29.5014 79.4658 29.3012V21.3246C79.4657 21.1245 79.3037 20.9623 79.1035 20.9623Z" fill="#1C7174"/>
<path d="M94.714 24.8917L98.7219 36.2827H90.7061L94.714 24.8917Z" fill="#1C7273"/>
<path d="M128.465 89.0186L124.457 77.6276L132.473 77.6276L128.465 89.0186Z" fill="#ECAE61"/>
<rect x="135.004" y="24.8917" width="10.1253" height="11.391" fill="#656565"/>
<rect x="101.253" y="24.8917" width="18.5631" height="11.391" fill="#ECAE61"/>
<rect x="67.5029" y="77.6274" width="21.9382" height="11.391" fill="#2BB5CF"/>
<path d="M178.881 30.7771C178.881 27.5267 176.246 24.8917 172.996 24.8917H147.661V30.3974C147.661 33.6478 150.296 36.2827 153.546 36.2827H178.881V30.7771Z" fill="#1C7174"/>
<path d="M123.191 83.5128C123.191 80.2624 120.556 77.6274 117.306 77.6274H90.706V83.1331C90.706 86.3835 93.3409 89.0184 96.5913 89.0184H123.191V83.5128Z" fill="#EE6958"/>
<path d="M67.5029 96.1696C67.5029 92.9192 70.1379 90.2842 73.3883 90.2842H89.4411V95.368C89.4411 98.6184 86.8062 101.253 83.5558 101.253H67.5029V96.1696Z" fill="#1C7174"/>
<path d="M158.209 89.0184C159.538 89.0184 160.855 88.7238 162.083 88.1513C163.312 87.5789 164.428 86.7398 165.368 85.6821C166.309 84.6243 167.054 83.3686 167.563 81.9866C168.072 80.6046 168.334 79.1233 168.334 77.6274L158.209 77.6274L158.209 89.0184Z" fill="#656565"/>
<path d="M67.5026 113.91C68.8323 113.91 70.1489 113.615 71.3774 113.043C72.6059 112.47 73.7221 111.631 74.6623 110.574C75.6025 109.516 76.3483 108.26 76.8572 106.878C77.366 105.496 77.6279 104.015 77.6279 102.519L67.5026 102.519L67.5026 113.91Z" fill="#656565"/>
<path d="M146.396 89.0184C147.781 89.0184 149.153 88.7238 150.432 88.1513C151.712 87.5789 152.875 86.7398 153.854 85.6821C154.834 84.6243 155.61 83.3686 156.141 81.9866C156.671 80.6046 156.943 79.1233 156.943 77.6274L146.396 77.6274L146.396 89.0184Z" fill="#1C7174"/>
<path d="M145.129 89.0184C143.8 89.0184 142.483 88.7238 141.254 88.1513C140.026 87.5789 138.91 86.7398 137.97 85.6821C137.029 84.6243 136.283 83.3686 135.775 81.9866C135.266 80.6046 135.004 79.1233 135.004 77.6274L145.129 77.6274L145.129 89.0184Z" fill="#68BA9A"/>
<path d="M67.5026 0.421936C68.9985 0.421937 70.4797 0.716572 71.8617 1.28902C73.2437 1.86147 74.4995 2.70053 75.5572 3.75828C76.615 4.81603 77.454 6.07177 78.0265 7.45378C78.5989 8.8358 78.8936 10.317 78.8936 11.8129L67.5026 11.8129L67.5026 0.421936Z" fill="#656565"/>
<path d="M121.082 24.8915C122.578 24.8915 124.059 25.1862 125.441 25.7586C126.823 26.3311 128.079 27.1701 129.136 28.2279C130.194 29.2856 131.033 30.5414 131.606 31.9234C132.178 33.3054 132.473 34.7866 132.473 36.2825L121.082 36.2825L121.082 24.8915Z" fill="#F0685A"/>
<path d="M44.65 113.91V103.665L33.751 77.6274H42.7385L49.3609 93.4204L55.9832 77.6274H64.9707L53.5561 103.665V113.91H44.65Z" fill="white"/>
<path fill-rule="evenodd" clip-rule="evenodd" d="M43.4668 0.0509776L33.7747 0.0473791L33.751 36.2674L43.4752 36.2824V25.6111H46.2067L52.2664 36.2722L63.8189 36.2824L56.9438 23.8559C60.2333 22.5703 62.7428 20.3563 64.004 17.4902C65.4712 14.156 65.2508 9.9302 63.4623 6.70792C63.3687 6.53886 63.27 6.37162 63.1663 6.20617C63.0633 6.04073 62.9545 5.8777 62.8415 5.71706C62.7284 5.55643 62.6103 5.3982 62.4878 5.24238C62.3654 5.08596 62.2393 4.93314 62.1075 4.78213C61.9757 4.63173 61.8403 4.48374 61.6998 4.33815C61.5601 4.19316 61.4153 4.05119 61.2669 3.91161C61.1186 3.77264 60.9659 3.63665 60.8096 3.50369C60.6533 3.37013 60.4927 3.2408 60.3284 3.11446C60.1649 2.98812 59.9971 2.86536 59.8257 2.74564C59.6542 2.62592 59.4799 2.5098 59.3013 2.3979C59.1227 2.2854 58.9419 2.17651 58.7575 2.07183C58.5724 1.96654 58.3851 1.86549 58.1942 1.76863C58.0041 1.67117 57.811 1.5779 57.6151 1.48886C57.4192 1.39922 57.2204 1.3138 57.0195 1.23318C56.8185 1.15136 56.6154 1.07495 56.4094 1.00155C56.2041 0.928753 55.9967 0.860768 55.7878 0.796394C52.8261 -0.0857356 49.1682 -0.0272034 45.821 0.0263582C45.0135 0.0392803 44.224 0.0519131 43.4668 0.0509776ZM45.7059 8.5883C45.2074 8.60515 43.9676 8.6213 43.524 8.62494C43.5169 9.37191 43.5071 10.1193 43.4973 10.867C43.4684 13.0747 43.4395 15.2843 43.4793 17.4892C43.9684 17.4941 45.2346 17.5119 45.7468 17.53C48.287 17.6199 51.0158 17.7165 52.9764 16.2661C54.0374 15.3053 54.5272 14.4089 54.4717 13.0697C54.4206 11.8346 54.0158 10.5862 52.8857 9.72709C51.147 8.40449 48.1765 8.50484 45.7059 8.5883Z" fill="white"/>
<path d="M67.5029 75.0962V38.8138H75.5188L83.1128 52.473L90.7068 38.8138H98.7227V75.0962H90.7068V55.867L83.1128 69.5471L75.5188 55.8879V75.0962H67.5029Z" fill="white"/>
<path d="M101.253 75.0962V38.8138H109.269L116.863 52.473L124.457 38.8138H132.473V75.0962H124.457V55.867L116.863 69.5471L109.269 55.8879V75.0962H101.253Z" fill="white"/>
<path d="M13.9273 38.9023C18.0236 38.536 22.6998 39.2904 25.9536 41.4862C29.3436 43.7738 30.7446 47.0097 31.1642 50.5241C27.3626 50.5437 23.5611 50.5426 19.7596 50.5208C19.7146 49.5478 19.5159 48.5916 18.6452 47.8765C17.7665 47.1551 16.5333 46.9158 15.333 46.9404C14.2496 46.9622 13.1802 47.2094 12.4364 47.9016C11.8121 48.4826 11.5745 49.2358 11.6584 50.0035C11.7315 50.669 12.1571 51.4071 12.8647 51.7599C13.775 52.214 14.9927 52.3264 16.0204 52.488C19.8394 53.088 23.747 53.5431 26.8424 55.6864C29.3268 57.407 30.9071 59.7449 31.1716 62.4429C31.4656 65.4473 30.4123 68.5435 28.0547 70.8545C25.5072 73.3512 21.8318 74.7475 17.9363 75.0109C17.5597 75.0506 17.1858 75.0696 16.8072 75.0819C12.3471 75.2256 7.51177 74.308 4.17343 71.7017C1.31707 69.4723 0.127546 66.3616 0 63.1609L11.3543 63.162C11.4301 64.1534 11.7403 65.1359 12.5989 65.8667C13.4507 66.5903 14.7047 66.8911 15.8989 66.8632C17.1267 66.8341 18.3344 66.4432 19.1547 65.6632C19.2286 65.5938 19.2984 65.5211 19.3642 65.4462C19.4293 65.3702 19.4904 65.2924 19.5461 65.2119C19.6011 65.1314 19.6515 65.0486 19.6971 64.9636C19.7428 64.8787 19.7831 64.7914 19.8173 64.7031C19.8522 64.6147 19.8811 64.5253 19.9046 64.4341C19.9281 64.3435 19.9462 64.2518 19.9583 64.159C19.9703 64.0667 19.9764 63.9739 19.9771 63.8811C19.9777 63.7877 19.9724 63.6949 19.9616 63.6026C19.6837 61.2793 16.1681 61.0198 14.0301 60.714C12.8969 60.5524 11.7638 60.3852 10.6581 60.1162C8.54356 59.6023 6.50148 58.7736 4.79103 57.6094C2.3596 55.9554 1.21169 53.6231 0.916987 51.0548C0.58671 48.1728 1.54532 45.1824 3.78208 42.9429C6.35112 40.3713 10.0238 39.2199 13.9273 38.9023Z" fill="white"/>
<path d="M147.661 38.8138H178.881V47.3661L168.334 47.3661V75.0962H158.208V47.3661L147.661 47.3661V38.8138Z" fill="white"/>
<path d="M135.004 38.8138H145.129V75.0962H135.004V38.8138Z" fill="white"/>
<path d="M55.803 38.8138H64.9707V60.7862C64.9707 63.3573 64.5247 65.607 63.6327 67.5352C62.7407 69.4297 61.5349 70.9182 60.0152 72.0008C58.4955 73.0495 56.8437 73.8276 55.0597 74.335C53.2757 74.8425 51.3761 75.0962 49.3609 75.0962C47.3456 75.0962 45.446 74.8425 43.662 74.335C41.878 73.8276 40.2262 73.0495 38.7065 72.0008C37.1868 70.9182 35.981 69.4297 35.089 67.5352C34.197 65.607 33.751 63.3573 33.751 60.7862V38.8138H42.9187V60.2788C42.9187 64.5751 45.0661 66.7233 49.3609 66.7233C53.6556 66.7233 55.803 64.5751 55.803 60.2788V38.8138Z" fill="white"/>
<path d="M22.052 0H31.2198V36.2824H22.052V22.4433H9.1677V36.2824H0V0H9.1677V13.891H22.052V0Z" fill="white"/>
<path d="M0 96.2657C0 93.1179 0.56731 90.318 1.70193 87.866C2.83655 85.4141 4.37892 83.4591 6.32905 82.0012C8.27917 80.5433 10.4243 79.4498 12.7645 78.7209C15.1046 77.9919 17.5689 77.6274 20.1572 77.6274C24.0575 77.6274 27.6563 78.3564 30.9538 79.8143V88.5122C28.5428 86.6235 25.5112 85.6792 21.8591 85.6792C18.5971 85.6792 15.8138 86.5738 13.5091 88.3631C11.2398 90.1192 10.1052 92.7534 10.1052 96.2657C10.1052 99.4135 11.2398 101.799 13.5091 103.423C15.7783 105.013 18.5262 105.808 21.7528 105.808C25.8303 105.808 28.986 104.798 31.2198 102.777V111.723C27.9223 113.181 24.3057 113.91 20.37 113.91C17.7107 113.91 15.1933 113.562 12.8176 112.866C10.4775 112.17 8.33236 111.143 6.38223 109.785C4.43211 108.393 2.872 106.537 1.70193 104.218C0.56731 101.899 0 99.2478 0 96.2657Z" fill="white"/>
</svg>
