<svg width="178" height="124" viewBox="0 0 178 124" fill="none" xmlns="http://www.w3.org/2000/svg">
<path d="M159.53 36.5463V26.2269L149.623 0.000488281H157.792L163.811 15.9081L169.831 0.000488281H178L167.625 26.2269V36.5463H159.53Z" fill="white"/>
<path fill-rule="evenodd" clip-rule="evenodd" d="M132.848 0.051836L124.706 0.0482113L124.686 36.5311L132.855 36.5463V25.7975H135.149L140.24 36.536L149.945 36.5463L144.169 24.0296C146.933 22.7346 149.041 20.5046 150.1 17.6176C151.333 14.2593 151.148 10.0028 149.645 6.7571C149.567 6.58682 149.484 6.41836 149.397 6.25171C149.31 6.08507 149.219 5.92085 149.124 5.75905C149.029 5.59725 148.93 5.43788 148.827 5.28093C148.724 5.12337 148.618 4.96944 148.507 4.81734C148.396 4.66584 148.283 4.51678 148.165 4.37013C148.047 4.22409 147.926 4.08108 147.801 3.9405C147.676 3.80051 147.548 3.66354 147.417 3.52961C147.286 3.39508 147.151 3.26481 147.013 3.13755C146.875 3.0103 146.734 2.88665 146.59 2.76606C146.446 2.64547 146.3 2.52851 146.15 2.4158C146 2.30248 145.848 2.1928 145.693 2.08736C145.537 1.98131 145.38 1.87952 145.22 1.78196C145.06 1.68379 144.898 1.58984 144.733 1.50016C144.569 1.40986 144.402 1.32382 144.233 1.24262C144.064 1.16021 143.893 1.08324 143.72 1.00931C143.548 0.935983 143.374 0.867505 143.198 0.802664C140.71 -0.0858697 137.637 -0.0269126 134.825 0.0270378C134.147 0.0400537 133.484 0.0527783 132.848 0.051836ZM134.729 8.65114C134.31 8.6681 133.268 8.68437 132.896 8.68804C132.89 9.44043 132.881 10.1933 132.873 10.9464C132.849 13.1701 132.825 15.3958 132.858 17.6167C133.269 17.6215 134.333 17.6395 134.763 17.6578C136.897 17.7483 139.189 17.8456 140.836 16.3847C141.728 15.4169 142.139 14.514 142.093 13.1651C142.05 11.921 141.71 10.6635 140.76 9.79819C139.3 8.46599 136.804 8.56707 134.729 8.65114Z" fill="white"/>
<path d="M105.611 0.0751768C109.149 -0.296364 112.998 0.719784 115.79 2.76854C119.514 5.50194 121.455 9.84808 121.968 14.1426C122.133 15.519 122.107 16.9062 122.102 18.289C122.087 23.0895 121.443 27.848 118.068 31.7051C117.924 31.8703 117.777 32.0336 117.625 32.1924C117.473 32.3513 117.315 32.5073 117.155 32.6592C116.994 32.811 116.829 32.9594 116.66 33.1035C116.491 33.2476 116.318 33.387 116.142 33.5234C115.966 33.6592 115.786 33.7918 115.603 33.9199C115.419 34.0475 115.232 34.1717 115.043 34.291C114.852 34.4097 114.66 34.5253 114.463 34.6357C114.268 34.7455 114.068 34.8512 113.867 34.9521C113.664 35.0537 113.459 35.1506 113.253 35.2422C113.045 35.3336 112.836 35.4205 112.625 35.5019C112.413 35.5846 112.199 35.6613 111.984 35.7334C111.768 35.8054 111.549 35.8725 111.33 35.9346C111.111 35.9965 110.89 36.0526 110.668 36.1045C110.446 36.1559 110.221 36.2028 109.996 36.2441C109.771 36.2855 109.544 36.3218 109.318 36.3525C109.091 36.3838 108.863 36.4096 108.635 36.4297C108.595 36.4356 108.555 36.4425 108.514 36.4472C104.82 36.8649 100.815 35.9471 97.8775 33.8076C94.4449 31.3076 92.693 27.3811 92.189 23.4385C91.9657 21.6887 92.0142 19.9148 92.0142 18.1562C92.0155 13.4041 92.1373 9.22631 95.4752 5.31248C98.0495 2.29431 101.389 0.549233 105.49 0.0908018C105.53 0.0855039 105.57 0.0787186 105.611 0.0751768ZM109.809 10.3183C108.789 9.63131 107.386 9.36438 106.146 9.46971C104.567 9.63174 103.32 10.1568 102.29 11.3603C100.426 13.5403 100.562 16.5228 100.564 19.1777C100.565 20.3134 100.531 21.4651 100.666 22.5947C100.88 24.397 101.613 26.4531 103.174 27.5908C104.4 28.4835 105.782 28.6477 107.264 28.5849C108.851 28.3443 110.107 27.7094 111.07 26.4463C112.745 24.2469 112.721 21.4351 112.721 18.8398C112.721 17.5902 112.728 16.3427 112.506 15.1064C112.191 13.3458 111.39 11.3831 109.809 10.3183Z" fill="white"/>
<path d="M57.6133 36.5463V0.000488281H65.7823L73.5215 13.7589L81.2606 0.000488281H89.4296V36.5463H81.2606V17.1775L73.5215 30.9569L65.7823 17.1985V36.5463H57.6133Z" fill="white"/>
<path d="M42.1346 28.3772H55.0331V36.5462H34.3955V0.000427246H55.0331V8.16949H42.1346V14.6187H55.0331V22.7878H42.1346V28.3772Z" fill="white"/>
<path d="M0 36.5462V0.000427246H8.16906L15.9082 13.7588L23.6473 0.000427246H31.8163V36.5462H23.6473V17.1775L15.9082 30.9569L8.16906 17.1985V36.5462H0Z" fill="white"/>
<path d="M162.985 38.8114C166.542 38.4238 170.602 39.2221 173.427 41.5462C176.37 43.9674 177.587 47.3922 177.951 51.1118C174.65 51.1326 171.349 51.1314 168.049 51.1083C168.01 50.0785 167.837 49.0665 167.081 48.3096C166.318 47.5461 165.248 47.2928 164.205 47.3189C163.265 47.3419 162.336 47.6035 161.69 48.3362C161.148 48.9511 160.942 49.7483 161.015 50.5609C161.078 51.2651 161.448 52.0463 162.062 52.4198C162.853 52.9003 163.91 53.0193 164.802 53.1903C168.118 53.8254 171.511 54.3071 174.198 56.5756C176.356 58.3966 177.728 60.871 177.957 63.7265C178.213 66.9064 177.298 70.1833 175.251 72.6293C173.039 75.2718 169.848 76.7496 166.466 77.0283C166.139 77.0704 165.814 77.0905 165.485 77.1035C161.613 77.2556 157.415 76.2844 154.516 73.5259C152.036 71.1663 151.003 67.874 150.893 64.4864L160.751 64.4876C160.817 65.5369 161.086 66.5768 161.832 67.3503C162.571 68.1161 163.66 68.4345 164.697 68.4049C165.763 68.3741 166.811 67.9604 167.524 67.1348C167.588 67.0615 167.648 66.9845 167.705 66.9052C167.762 66.8247 167.815 66.7425 167.863 66.6572C167.911 66.572 167.955 66.4844 167.995 66.3945C168.034 66.3045 168.069 66.2122 168.099 66.1187C168.129 66.0252 168.154 65.9305 168.175 65.834C168.195 65.7381 168.211 65.6411 168.221 65.5428C168.232 65.4452 168.237 65.347 168.238 65.2487C168.238 65.1499 168.234 65.0516 168.224 64.954C167.983 62.495 164.931 62.2204 163.074 61.8966C162.09 61.7256 161.106 61.5486 160.146 61.264C158.311 60.7201 156.537 59.843 155.052 58.6108C152.941 56.8602 151.945 54.3917 151.689 51.6735C151.402 48.6232 152.234 45.4582 154.176 43.0879C156.407 40.3661 159.596 39.1476 162.985 38.8114Z" fill="white"/>
<path fill-rule="evenodd" clip-rule="evenodd" d="M130.103 38.7718L121.547 38.768L121.526 77.1028L130.11 77.1188V65.8244H132.521L137.87 77.1079L148.068 77.1188L141.999 63.9667C144.903 62.606 147.118 60.2627 148.231 57.2293C149.526 53.7004 149.332 49.2279 147.753 45.8174C147.671 45.6385 147.583 45.4615 147.492 45.2864C147.401 45.1113 147.305 44.9387 147.205 44.7687C147.105 44.5987 147.001 44.4312 146.893 44.2663C146.785 44.1008 146.674 43.939 146.557 43.7792C146.441 43.62 146.321 43.4634 146.197 43.3093C146.074 43.1558 145.946 43.0056 145.815 42.8578C145.684 42.7108 145.549 42.5668 145.412 42.4261C145.274 42.2847 145.132 42.1479 144.987 42.0141C144.842 41.8804 144.694 41.7505 144.543 41.6238C144.392 41.4971 144.238 41.3742 144.08 41.2557C143.922 41.1367 143.763 41.0214 143.6 40.9106C143.437 40.7992 143.271 40.6923 143.103 40.5897C142.935 40.4866 142.765 40.3879 142.592 40.2936C142.419 40.1988 142.243 40.1083 142.066 40.023C141.889 39.9364 141.709 39.8555 141.527 39.7779C141.346 39.7008 141.163 39.6289 140.979 39.5607C138.364 38.6271 135.135 38.689 132.181 38.7457C131.468 38.7594 130.771 38.7728 130.103 38.7718ZM132.079 47.8076C131.639 47.8254 130.545 47.8425 130.153 47.8464C130.147 48.637 130.138 49.428 130.13 50.2193C130.104 52.556 130.079 54.8946 130.114 57.2282C130.545 57.2334 131.663 57.2523 132.115 57.2714C134.358 57.3666 136.766 57.4688 138.497 55.9337C139.434 54.9168 139.866 53.9681 139.817 52.5507C139.772 51.2434 139.415 49.9222 138.417 49.0129C136.882 47.6131 134.26 47.7193 132.079 47.8076Z" fill="white"/>
<path d="M105.265 68.535H118.818V77.1188H97.1328V38.7178H118.818V47.3016H105.265V54.0782H118.818V62.6619H105.265V68.535Z" fill="white"/>
<path d="M69.1211 38.7179H77.7048L77.7211 50.9618C78.6204 49.5059 80.0914 47.9162 80.8811 46.3977L85.8368 38.7179L94.4205 38.6962L84.2754 56.2199L94.4205 77.1188L85.8368 77.1188L77.6789 62.4996L77.6892 77.1188H69.1211V38.7179Z" fill="white"/>
<path d="M66.3838 77.1203H57.8008L55.9932 71.7141L46.5059 71.6984L44.6992 77.1203H36.1152L46.5059 38.7199L55.9932 38.718L66.3838 77.1203ZM47.8604 63.1144H54.1855L51.0234 49.5607L47.8604 63.1144Z" fill="white"/>
<path d="M0 77.1188V38.7178H8.58373L16.7157 53.1747L24.8477 38.7178H33.4314V77.1188H24.8477V56.7668L16.7157 71.2457L8.58373 56.7889V77.1188H0Z" fill="white"/>
<path d="M14.6123 79.4947C22.6821 79.4949 29.2236 86.0372 29.2236 94.107C29.2234 102.177 22.6819 108.718 14.6123 108.718C6.54251 108.718 0.000214417 102.177 0 94.107C0 86.0371 6.54237 79.4947 14.6123 79.4947ZM14.6113 88.6265C14.3592 88.6266 14.1553 88.8314 14.1553 89.0836V99.1285C14.1553 99.3806 14.3592 99.5854 14.6113 99.5855C14.8635 99.5855 15.0684 99.3807 15.0684 99.1285V89.0836C15.0684 88.8314 14.8635 88.6265 14.6113 88.6265Z" fill="white"/>
<rect x="30.5527" y="79.4946" width="19.9253" height="13.7263" fill="#2BB5CF"/>
<rect x="30.5527" y="94.5497" width="19.9253" height="13.7263" fill="white"/>
<rect x="66.8604" y="94.5496" width="13.7263" height="13.7263" fill="white"/>
<rect x="51.8057" y="109.604" width="13.7263" height="13.7263" fill="#E6E6E6"/>
<path d="M39.851 110.046L50.0351 123.33H29.667L39.851 110.046Z" fill="#EF6831"/>
<rect x="112.024" y="109.604" width="13.7263" height="13.7263" fill="white"/>
<rect x="112.024" y="79.4946" width="13.7263" height="13.7263" fill="#EFEFEF"/>
<rect x="127.079" y="109.604" width="18.1542" height="13.7263" fill="#69A73A"/>
<path d="M127.079 83.1436C127.079 81.1283 128.713 79.4946 130.728 79.4946H145.233V89.5718C145.233 91.5872 143.6 93.2209 141.584 93.2209H127.079V83.1436Z" fill="#EE6958"/>
<path d="M65.532 79.4948C63.7294 79.4948 61.9445 79.8498 60.2792 80.5397C58.6138 81.2295 57.1006 82.2405 55.826 83.5151C54.5514 84.7898 53.5403 86.3029 52.8505 87.9683C52.1607 89.6336 51.8057 91.4186 51.8057 93.2211L65.532 93.2211L65.532 79.4948Z" fill="#EEB63D"/>
<path d="M95.6414 79.4948C93.8388 79.4948 92.0539 79.8498 90.3885 80.5397C88.7232 81.2295 87.21 82.2405 85.9354 83.5151C84.6608 84.7898 83.6497 86.3029 82.9599 87.9683C82.2701 89.6336 81.915 91.4186 81.915 93.2211L95.6414 93.2211L95.6414 79.4948Z" fill="#068689"/>
<path d="M95.6414 108.276C93.8388 108.276 92.0539 107.921 90.3885 107.231C88.7232 106.541 87.21 105.53 85.9354 104.256C84.6608 102.981 83.6497 101.468 82.9599 99.8024C82.2701 98.137 81.915 96.3521 81.915 94.5496L95.6414 94.5496L95.6414 108.276Z" fill="#068689"/>
<path d="M65.532 108.276C63.7294 108.276 61.9445 107.921 60.2792 107.231C58.6138 106.541 57.1006 105.53 55.826 104.256C54.5514 102.981 53.5403 101.468 52.8505 99.8024C52.1607 98.137 51.8057 96.3521 51.8057 94.5496L65.532 94.5496L65.532 108.276Z" fill="#D9D9D9"/>
<path d="M80.5867 123.33C78.7841 123.33 76.9992 122.975 75.3338 122.285C73.6685 121.595 72.1553 120.584 70.8807 119.31C69.6061 118.035 68.595 116.522 67.9052 114.857C67.2154 113.191 66.8604 111.406 66.8604 109.604L80.5867 109.604L80.5867 123.33Z" fill="#15A87B"/>
<path d="M95.6414 123.33C93.8388 123.33 92.0539 122.975 90.3885 122.285C88.7232 121.595 87.21 120.584 85.9354 119.31C84.6608 118.035 83.6497 116.522 82.9599 114.857C82.2701 113.191 81.915 111.406 81.915 109.604L95.6414 109.604L95.6414 123.33Z" fill="#EE6833"/>
<path d="M13.7263 123.33C11.9238 123.33 10.1388 122.975 8.47349 122.285C6.80814 121.595 5.29496 120.584 4.02035 119.31C2.74574 118.035 1.73467 116.522 1.04485 114.857C0.355042 113.191 -1.57585e-07 111.406 0 109.604L13.7263 109.604L13.7263 123.33Z" fill="#FD6C33"/>
<path d="M96.97 123.33C98.7725 123.33 100.557 122.975 102.223 122.285C103.888 121.595 105.401 120.584 106.676 119.31C107.951 118.035 108.962 116.522 109.651 114.857C110.341 113.191 110.696 111.406 110.696 109.604L96.97 109.604L96.97 123.33Z" fill="#9DD72D"/>
<path d="M15.0539 123.33C16.8565 123.33 18.6414 122.975 20.3068 122.285C21.9721 121.595 23.4853 120.584 24.7599 119.31C26.0345 118.035 27.0456 116.522 27.7354 114.857C28.4252 113.191 28.7803 111.406 28.7803 109.604L15.0539 109.604L15.0539 123.33Z" fill="#FD6C33"/>
<path d="M161.615 94.5491C159.638 94.5491 157.681 94.9042 155.854 95.594C154.028 96.2838 152.368 97.2949 150.97 98.5695C149.572 99.8441 148.463 101.357 147.707 103.023C146.95 104.688 146.561 106.473 146.561 108.275L161.615 108.275L161.615 94.5491Z" fill="#F0685A"/>
<path d="M146.562 123.33C148.539 123.33 150.496 122.975 152.323 122.285C154.149 121.595 155.809 120.584 157.207 119.31C158.605 118.035 159.714 116.522 160.47 114.857C161.227 113.191 161.616 111.406 161.616 109.604L146.562 109.604L146.562 123.33Z" fill="#68BA9A"/>
<path d="M177.999 123.33C176.022 123.33 174.064 122.975 172.238 122.285C170.411 121.595 168.752 120.584 167.354 119.31C165.956 118.035 164.847 116.522 164.09 114.857C163.334 113.191 162.944 111.406 162.944 109.604L177.999 109.604L177.999 123.33Z" fill="#68BA9A"/>
<path d="M177.999 79.4948C176.022 79.4948 174.064 79.8498 172.238 80.5397C170.411 81.2295 168.752 82.2405 167.354 83.5151C165.956 84.7898 164.847 86.3029 164.09 87.9683C163.334 89.6336 162.944 91.4186 162.944 93.2211L177.999 93.2211L177.999 79.4948Z" fill="#1C7273"/>
<path d="M162.944 94.5491C164.921 94.5491 166.879 94.9042 168.706 95.594C170.532 96.2838 172.192 97.2949 173.59 98.5695C174.988 99.8441 176.096 101.357 176.853 103.023C177.61 104.688 177.999 106.473 177.999 108.275L162.944 108.275L162.944 94.5491Z" fill="#F0685A"/>
<path d="M146.562 79.4948C148.539 79.4948 150.496 79.8498 152.323 80.5397C154.149 81.2295 155.809 82.2405 157.207 83.5151C158.605 84.7898 159.714 86.3029 160.47 87.9683C161.227 89.6336 161.616 91.4186 161.616 93.2211L146.562 93.2211L146.562 79.4948Z" fill="#ECAE61"/>
<path d="M145.233 94.5491C142.849 94.5491 140.489 94.9042 138.286 95.594C136.083 96.2838 134.082 97.2949 132.396 98.5695C130.711 99.8441 129.373 101.357 128.461 103.023C127.549 104.688 127.079 106.473 127.079 108.275L145.233 108.275L145.233 94.5491Z" fill="white"/>
<path d="M80.5867 79.4948C78.7841 79.4948 76.9992 79.8498 75.3338 80.5397C73.6685 81.2295 72.1553 82.2405 70.8807 83.5151C69.6061 84.7898 68.595 86.3029 67.9052 87.9683C67.2154 89.6336 66.8604 91.4186 66.8604 93.2211L80.5867 93.2211L80.5867 79.4948Z" fill="#D5D5D5"/>
<path d="M125.751 94.5491C123.948 94.5491 122.163 94.9042 120.498 95.594C118.833 96.2838 117.319 97.2949 116.045 98.5695C114.77 99.8441 113.759 101.357 113.069 103.023C112.379 104.688 112.024 106.473 112.024 108.275L125.751 108.275L125.751 94.5491Z" fill="#E7BF1F"/>
<path d="M96.97 108.276C98.7725 108.276 100.557 107.903 102.223 107.18C103.888 106.457 105.401 105.397 106.676 104.061C107.951 102.724 108.962 101.138 109.651 99.3921C110.341 97.6462 110.696 95.7749 110.696 93.8851C110.696 91.9953 110.341 90.124 109.651 88.3781C108.962 86.6321 107.951 85.0457 106.676 83.7095C105.401 82.3732 103.888 81.3132 102.223 80.59C100.557 79.8668 98.7725 79.4946 96.97 79.4946L96.97 108.276Z" fill="#068689"/>
</svg>
