<svg width="404" height="39" viewBox="0 0 404 39" fill="none" xmlns="http://www.w3.org/2000/svg">
<g filter="url(#filter0_d_1_1249)">
<path d="M34.6206 4.67308V38.3269H26.7454V18.7596L17.8366 33.0385H16.9507L8.04187 18.7596V38.3269H0.166687V4.67308H8.04187L17.3937 19.625L26.7454 4.67308H34.6206Z" fill="url(#paint0_linear_1_1249)"/>
<path d="M48.4176 30.9231H62.1991V38.3269H40.5424V4.67308H61.953V12.0769H48.4176V17.6538H60.7225V24.9615H48.4176V30.9231Z" fill="url(#paint1_linear_1_1249)"/>
<path d="M101.096 4.67308V38.3269H93.2211V18.7596L84.3123 33.0385H83.4264L74.5176 18.7596V38.3269H66.6424V4.67308H74.5176L83.8694 19.625L93.2211 4.67308H101.096Z" fill="url(#paint2_linear_1_1249)"/>
<path d="M136.156 33.9519C132.678 37.3173 128.445 39 123.458 39C118.47 39 114.237 37.3173 110.759 33.9519C107.281 30.5865 105.541 26.4359 105.541 21.5C105.541 16.5641 107.281 12.4135 110.759 9.04808C114.237 5.68269 118.47 4 123.458 4C128.445 4 132.678 5.68269 136.156 9.04808C139.634 12.4135 141.374 16.5641 141.374 21.5C141.374 26.4359 139.634 30.5865 136.156 33.9519ZM116.271 28.7115C118.207 30.5705 120.603 31.5 123.458 31.5C126.312 31.5 128.691 30.5705 130.594 28.7115C132.53 26.8526 133.498 24.4487 133.498 21.5C133.498 18.5513 132.53 16.1474 130.594 14.2885C128.691 12.4295 126.312 11.5 123.458 11.5C120.603 11.5 118.207 12.4295 116.271 14.2885C114.368 16.1474 113.417 18.5513 113.417 21.5C113.417 24.4487 114.368 26.8526 116.271 28.7115Z" fill="url(#paint3_linear_1_1249)"/>
<path d="M163.921 38.3269L157.424 27.2692H153.683V38.3269H145.808V4.67308H159.589C162.87 4.67308 165.66 5.79487 167.957 8.03846C170.253 10.2821 171.402 13.0064 171.402 16.2115C171.402 18.2628 170.811 20.1699 169.63 21.9327C168.482 23.6635 166.956 25.0096 165.053 25.9712L172.386 38.3269H163.921ZM153.683 11.8846V20.5385H159.589C160.672 20.5385 161.591 20.1218 162.345 19.2885C163.133 18.4551 163.527 17.4295 163.527 16.2115C163.527 14.9936 163.133 13.9679 162.345 13.1346C161.591 12.3013 160.672 11.8846 159.589 11.8846H153.683Z" fill="url(#paint4_linear_1_1249)"/>
<path d="M203.183 4.67308L191.617 25.3942V38.3269H183.742V25.3942L172.175 4.67308H181.133L187.679 17.6538L194.225 4.67308H203.183Z" fill="url(#paint5_linear_1_1249)"/>
<path d="M252.89 4.67308V38.3269H245.015V18.7596L236.106 33.0385H235.22L226.311 18.7596V38.3269H218.436V4.67308H226.311L235.663 19.625L245.015 4.67308H252.89Z" fill="url(#paint6_linear_1_1249)"/>
<path d="M280.714 38.3269L278.992 33.0385H266.194L264.472 38.3269H255.858L267.573 4.67308H277.613L289.328 38.3269H280.714ZM268.557 25.8269H276.629L272.593 13.4712L268.557 25.8269Z" fill="url(#paint7_linear_1_1249)"/>
<path d="M320.124 38.3269H311.166L300.141 22.75V38.3269H292.266V4.67308H300.141V19.2885L310.674 4.67308H319.632L308.016 21.0673L320.124 38.3269Z" fill="url(#paint8_linear_1_1249)"/>
<path d="M330.951 30.9231H344.733V38.3269H323.076V4.67308H344.487V12.0769H330.951V17.6538H343.256V24.9615H330.951V30.9231Z" fill="url(#paint9_linear_1_1249)"/>
<path d="M367.289 38.3269L360.792 27.2692H357.051V38.3269H349.176V4.67308H362.958C366.239 4.67308 369.028 5.79487 371.325 8.03846C373.622 10.2821 374.771 13.0064 374.771 16.2115C374.771 18.2628 374.18 20.1699 372.999 21.9327C371.85 23.6635 370.324 25.0096 368.421 25.9712L375.755 38.3269H367.289ZM357.051 11.8846V20.5385H362.958C364.041 20.5385 364.959 20.1218 365.714 19.2885C366.502 18.4551 366.895 17.4295 366.895 16.2115C366.895 14.9936 366.502 13.9679 365.714 13.1346C364.959 12.3013 364.041 11.8846 362.958 11.8846H357.051Z" fill="url(#paint10_linear_1_1249)"/>
<path d="M391.036 39C387.525 39 384.588 38.2628 382.226 36.7885C379.896 35.2821 378.239 33.2468 377.255 30.6827L384.047 26.8365C385.425 29.9455 387.837 31.5 391.282 31.5C394.4 31.5 395.958 30.5865 395.958 28.7596C395.958 27.766 395.45 26.9968 394.432 26.4519C393.448 25.875 391.578 25.2179 388.821 24.4808C387.377 24.0962 386.114 23.6635 385.031 23.1827C383.948 22.7019 382.882 22.0769 381.832 21.3077C380.815 20.5064 380.027 19.5128 379.469 18.3269C378.944 17.141 378.682 15.7788 378.682 14.2404C378.682 11.1314 379.814 8.64744 382.078 6.78846C384.375 4.92949 387.099 4 390.249 4C393.071 4 395.564 4.65705 397.73 5.97115C399.896 7.25321 401.602 9.12821 402.849 11.5962L396.204 15.3942C395.581 14.1122 394.81 13.1506 393.891 12.5096C392.972 11.8365 391.758 11.5 390.249 11.5C389.067 11.5 388.149 11.7564 387.492 12.2692C386.869 12.75 386.557 13.343 386.557 14.0481C386.557 14.8814 386.951 15.6026 387.738 16.2115C388.559 16.8205 390.232 17.4936 392.759 18.2308C394.137 18.6474 395.203 18.984 395.958 19.2404C396.713 19.4968 397.664 19.9295 398.813 20.5385C399.994 21.1154 400.88 21.7404 401.471 22.4135C402.094 23.0545 402.636 23.9199 403.095 25.0096C403.587 26.0673 403.833 27.2853 403.833 28.6635C403.833 31.8686 402.652 34.4006 400.289 36.2596C397.927 38.0865 394.842 39 391.036 39Z" fill="url(#paint11_linear_1_1249)"/>
</g>
<defs>
<filter id="filter0_d_1_1249" x="0.166687" y="0" width="403.667" height="39" filterUnits="userSpaceOnUse" color-interpolation-filters="sRGB">
<feFlood flood-opacity="0" result="BackgroundImageFix"/>
<feColorMatrix in="SourceAlpha" type="matrix" values="0 0 0 0 0 0 0 0 0 0 0 0 0 0 0 0 0 0 127 0" result="hardAlpha"/>
<feOffset dy="-4"/>
<feComposite in2="hardAlpha" operator="out"/>
<feColorMatrix type="matrix" values="0 0 0 0 0.286275 0 0 0 0 0.121569 0 0 0 0 0.262745 0 0 0 1 0"/>
<feBlend mode="normal" in2="BackgroundImageFix" result="effect1_dropShadow_1_1249"/>
<feBlend mode="normal" in="SourceGraphic" in2="effect1_dropShadow_1_1249" result="shape"/>
</filter>
<linearGradient id="paint0_linear_1_1249" x1="0.166687" y1="21.5" x2="403.833" y2="21.5" gradientUnits="userSpaceOnUse">
<stop stop-color="#7F008B"/>
<stop offset="1" stop-color="#A7E5CB"/>
</linearGradient>
<linearGradient id="paint1_linear_1_1249" x1="0.166687" y1="21.5" x2="403.833" y2="21.5" gradientUnits="userSpaceOnUse">
<stop stop-color="#7F008B"/>
<stop offset="1" stop-color="#A7E5CB"/>
</linearGradient>
<linearGradient id="paint2_linear_1_1249" x1="0.166687" y1="21.5" x2="403.833" y2="21.5" gradientUnits="userSpaceOnUse">
<stop stop-color="#7F008B"/>
<stop offset="1" stop-color="#A7E5CB"/>
</linearGradient>
<linearGradient id="paint3_linear_1_1249" x1="0.166687" y1="21.5" x2="403.833" y2="21.5" gradientUnits="userSpaceOnUse">
<stop stop-color="#7F008B"/>
<stop offset="1" stop-color="#A7E5CB"/>
</linearGradient>
<linearGradient id="paint4_linear_1_1249" x1="0.166687" y1="21.5" x2="403.833" y2="21.5" gradientUnits="userSpaceOnUse">
<stop stop-color="#7F008B"/>
<stop offset="1" stop-color="#A7E5CB"/>
</linearGradient>
<linearGradient id="paint5_linear_1_1249" x1="0.166687" y1="21.5" x2="403.833" y2="21.5" gradientUnits="userSpaceOnUse">
<stop stop-color="#7F008B"/>
<stop offset="1" stop-color="#A7E5CB"/>
</linearGradient>
<linearGradient id="paint6_linear_1_1249" x1="0.166687" y1="21.5" x2="403.833" y2="21.5" gradientUnits="userSpaceOnUse">
<stop stop-color="#7F008B"/>
<stop offset="1" stop-color="#A7E5CB"/>
</linearGradient>
<linearGradient id="paint7_linear_1_1249" x1="0.166687" y1="21.5" x2="403.833" y2="21.5" gradientUnits="userSpaceOnUse">
<stop stop-color="#7F008B"/>
<stop offset="1" stop-color="#A7E5CB"/>
</linearGradient>
<linearGradient id="paint8_linear_1_1249" x1="0.166687" y1="21.5" x2="403.833" y2="21.5" gradientUnits="userSpaceOnUse">
<stop stop-color="#7F008B"/>
<stop offset="1" stop-color="#A7E5CB"/>
</linearGradient>
<linearGradient id="paint9_linear_1_1249" x1="0.166687" y1="21.5" x2="403.833" y2="21.5" gradientUnits="userSpaceOnUse">
<stop stop-color="#7F008B"/>
<stop offset="1" stop-color="#A7E5CB"/>
</linearGradient>
<linearGradient id="paint10_linear_1_1249" x1="0.166687" y1="21.5" x2="403.833" y2="21.5" gradientUnits="userSpaceOnUse">
<stop stop-color="#7F008B"/>
<stop offset="1" stop-color="#A7E5CB"/>
</linearGradient>
<linearGradient id="paint11_linear_1_1249" x1="0.166687" y1="21.5" x2="403.833" y2="21.5" gradientUnits="userSpaceOnUse">
<stop stop-color="#7F008B"/>
<stop offset="1" stop-color="#A7E5CB"/>
</linearGradient>
</defs>
</svg>
