<svg width="179" height="75" viewBox="0 0 179 75" fill="none" xmlns="http://www.w3.org/2000/svg">
<path d="M87.4357 69.2283L83.6341 61.6252H91.2373L87.4357 69.2283Z" fill="#0C4076"/>
<rect x="109.646" y="61.6252" width="19.6082" height="7.60316" fill="#0C4076"/>
<path d="M68.0949 61.6252C66.9535 61.6252 66.0283 62.5504 66.0283 63.6917L66.0283 74.8307L71.565 74.8307C72.7063 74.8307 73.6315 73.9054 73.6315 72.7641L73.6315 61.6252L68.0949 61.6252Z" fill="#0C4076"/>
<path d="M165.269 63.6917C165.269 62.5504 164.343 61.6252 163.202 61.6252H148.061V67.1618C148.061 68.3031 148.987 69.2283 150.128 69.2283H165.269V63.6917Z" fill="#C6363C"/>
<path d="M178.074 32.9955C178.074 31.7897 177.097 30.8122 175.891 30.8122H155.265V36.2321C155.265 37.4379 156.242 38.4154 157.448 38.4154H178.074V32.9955Z" fill="#00966E"/>
<path d="M127.653 36.2324C127.653 37.4382 126.676 38.4157 125.47 38.4157H112.447V32.9959C112.447 31.79 113.424 30.8125 114.63 30.8125H127.653V36.2324Z" fill="#D57800"/>
<path d="M74.8304 69.2283C75.8289 69.2283 76.8176 69.0317 77.74 68.6496C78.6625 68.2675 79.5007 67.7074 80.2067 67.0014C80.9127 66.2954 81.4727 65.4572 81.8548 64.5348C82.2369 63.6123 82.4336 62.6236 82.4336 61.6252L74.8304 61.6252V69.2283Z" fill="#D57800"/>
<path d="M100.043 69.2283C99.0442 69.2283 98.0555 69.0317 97.133 68.6496C96.2106 68.2675 95.3724 67.7074 94.6664 67.0014C93.9604 66.2954 93.4003 65.4572 93.0182 64.5348C92.6361 63.6123 92.4395 62.6236 92.4395 61.6252L100.043 61.6252V69.2283Z" fill="#00966E"/>
<path d="M137.658 30.8125C138.656 30.8125 139.645 31.0092 140.567 31.3913C141.49 31.7734 142.328 32.3334 143.034 33.0395C143.74 33.7455 144.3 34.5836 144.682 35.5061C145.064 36.4286 145.261 37.4172 145.261 38.4157L137.658 38.4157V30.8125Z" fill="#4E5B31"/>
<path d="M166.469 69.2283C167.468 69.2283 168.456 69.0317 169.379 68.6496C170.301 68.2675 171.139 67.7074 171.845 67.0014C172.551 66.2954 173.111 65.4572 173.494 64.5348C173.876 63.6123 174.072 62.6236 174.072 61.6252L166.469 61.6252V69.2283Z" fill="#4E5B31"/>
<path d="M100.842 69.2283C101.841 69.2283 102.829 69.0317 103.752 68.6496C104.674 68.2675 105.512 67.7074 106.218 67.0014C106.924 66.2954 107.484 65.4572 107.867 64.5348C108.249 63.6123 108.445 62.6236 108.445 61.6252L100.842 61.6252V69.2283Z" fill="#C6363C"/>
<path d="M136.458 30.8125C135.459 30.8125 134.471 31.0092 133.548 31.3913C132.626 31.7734 131.787 32.3334 131.081 33.0395C130.375 33.7455 129.815 34.5836 129.433 35.5061C129.051 36.4286 128.854 37.4172 128.854 38.4157L136.458 38.4157V30.8125Z" fill="#C6363C"/>
<path d="M130.454 69.2283C131.453 69.2283 132.442 69.0317 133.364 68.6496C134.287 68.2675 135.125 67.7074 135.831 67.0014C136.537 66.2954 137.097 65.4572 137.479 64.5348C137.861 63.6123 138.058 62.6236 138.058 61.6252L130.454 61.6252V69.2283Z" fill="#FCD116"/>
<path d="M139.258 69.2283C140.257 69.2283 141.245 69.0317 142.168 68.6496C143.09 68.2675 143.928 67.7074 144.634 67.0014C145.34 66.2954 145.9 65.4572 146.283 64.5348C146.665 63.6123 146.861 62.6236 146.861 61.6252L139.258 61.6252V69.2283Z" fill="#D57800"/>
<path d="M96.874 23.2095C101.092 23.2095 104.512 26.6139 104.512 30.813C104.512 35.012 101.092 38.4156 96.874 38.4156C92.6563 38.4155 89.2375 35.012 89.2373 30.813C89.2373 26.6139 92.6562 23.2096 96.874 23.2095ZM96.874 27.9615C96.7423 27.9616 96.6357 28.068 96.6357 28.1997V33.4243C96.6357 33.5561 96.7423 33.6635 96.874 33.6636C97.0058 33.6636 97.1133 33.5562 97.1133 33.4243V28.1997C97.1133 28.0679 97.0058 27.9615 96.874 27.9615Z" fill="#C6363C"/>
<path d="M107.367 30.8122L111.169 38.4154H103.565L107.367 30.8122Z" fill="#C6363C"/>
<rect x="146.461" y="30.8122" width="7.60318" height="7.60316" fill="#C6363C"/>
<path d="M89.2718 14.3015C90.2703 14.3015 91.259 14.4982 92.1814 14.8803C93.1039 15.2624 93.9421 15.8224 94.6481 16.5284C95.3541 17.2345 95.9141 18.0726 96.2962 18.9951C96.6783 19.9175 96.875 20.9062 96.875 21.9047L89.2718 21.9047V14.3015Z" fill="#0C4076"/>
<path d="M179 45.4869H174.073L174.073 60.4247H168.1L168.1 45.4869H163.173H179Z" fill="white"/>
<path d="M155.289 39.6162H161.262V60.4246H155.289V39.6162Z" fill="white"/>
<path d="M152.301 39.6162L152.301 60.4246H146.329L146.329 50.4142L141.671 58.2381H141.133L136.474 50.4142L136.474 60.4246H130.502L130.502 39.6162H136.474L141.402 48.2045L146.329 39.6162H152.301Z" fill="white"/>
<path d="M127.513 39.6162L127.513 60.4246H121.541V50.4142L116.882 58.2381H116.345L111.686 50.4142V60.4246H105.714V39.6162H111.686L116.614 48.2044L121.541 39.6162H127.513Z" fill="white"/>
<path d="M100.656 58.3367C99.0828 59.7103 97.0323 60.3972 94.5039 60.3972C91.9756 60.3972 89.925 59.7103 88.3523 58.3367C86.7795 56.963 85.9932 55.1614 85.9932 52.9316V39.6162H91.9656V52.2747C91.9656 53.8275 92.8117 54.6039 94.5039 54.6039C96.1961 54.6039 97.0422 53.8275 97.0422 52.2747V39.6162H103.015V52.9316C103.015 55.1614 102.228 56.963 100.656 58.3367Z" fill="white"/>
<path d="M76.314 60.4246C74.0533 60.4246 72.1693 59.9793 70.6621 59.0886C69.1549 58.1789 68.1435 56.9566 67.6279 55.4215L72.7147 52.6072C73.4088 54.2939 74.6581 55.1372 76.4628 55.1372C77.8113 55.1372 78.4856 54.7961 78.4856 54.1139C78.4856 53.9244 78.436 53.7538 78.3368 53.6022C78.2377 53.4506 78.0493 53.3179 77.7716 53.2042C77.494 53.0905 77.2461 53.0052 77.028 52.9484C76.8297 52.8726 76.4727 52.7683 75.9571 52.6357C75.4415 52.503 75.0548 52.3988 74.7969 52.323C70.6522 51.129 68.5798 48.997 68.5798 45.9269C68.5798 44.1076 69.264 42.601 70.6324 41.4071C72.0206 40.2131 73.8351 39.6162 76.0761 39.6162C77.841 39.6162 79.4176 40.0141 80.8058 40.8101C82.2139 41.606 83.2451 42.7526 83.8995 44.2497L78.9615 47.0072C78.3864 45.6048 77.4345 44.9036 76.1058 44.9036C75.5902 44.9036 75.1936 45.0078 74.9159 45.2163C74.6581 45.4058 74.5292 45.6521 74.5292 45.9554C74.5292 46.3723 74.7573 46.6945 75.2134 46.9219C75.6894 47.1493 76.5917 47.443 77.9204 47.8031C78.9119 48.0874 79.725 48.3622 80.3596 48.6275C80.9942 48.8739 81.6586 49.2339 82.3527 49.7077C83.0468 50.1625 83.5624 50.7595 83.8995 51.4986C84.2565 52.2187 84.435 53.0716 84.435 54.057C84.435 56.0848 83.7012 57.6578 82.2337 58.7759C80.786 59.875 78.8128 60.4246 76.314 60.4246Z" fill="white"/>
<path d="M178.074 40.9735C178.074 40.2239 177.467 39.6162 176.717 39.6162H163.668V43.0608C163.668 43.8105 164.276 44.4182 165.026 44.4182H178.074V40.9735Z" fill="white"/>
<path d="M88.0371 17.3642C88.0371 15.7304 86.7127 14.4059 85.0789 14.4059H70.8299V19.0509C70.8299 20.6847 72.1544 22.0091 73.7882 22.0091H88.0371V17.3642Z" fill="white"/>
<path d="M18.2305 15.042L27.2109 0.000976562V0H36.415L45.3955 15.042L54.4248 0H71.4297L71.4287 0.00292969C74.4798 0.0399529 77.272 0.744086 79.8057 2.11719C82.4416 3.52834 84.5155 5.43645 86.0264 7.8418L77.8291 12.5078C76.479 10.4552 74.3247 9.42871 71.3672 9.42871C68.9563 9.42875 66.9952 10.1989 65.4844 11.7383C64.0058 13.2776 63.2667 15.2659 63.2666 17.7031C63.2666 20.0121 63.9577 22.0328 65.3398 23.7646C66.7221 25.4644 68.8599 26.3144 71.7529 26.3145C75.0702 26.3145 77.2952 25.1461 78.4287 22.8096H87.9863C87.3186 25.7694 85.9097 28.3329 83.7598 30.5C80.6738 33.643 76.6074 35.2148 71.5605 35.2148C66.2887 35.2148 61.9809 33.5471 58.6377 30.2119C55.2945 26.8444 53.623 22.6584 53.623 17.6553C53.623 17.6263 53.6229 17.5973 53.623 17.5684L45.8496 30.3848H44.9424L36.415 16.2998V35.2148H27.2109V16.3008L18.6846 30.3848H17.7764L9.60156 16.249V22.4092H9.60449V33.8184C5.41019 31.3918 2.03569 27.706 0 23.2764V0H9.60156L18.2305 15.042ZM54.0225 26.1514C55.9208 30.2826 59.3712 33.5527 63.627 35.2148H54.0225V26.1514ZM0 26.1514C1.89806 30.2817 5.34684 33.5516 9.60156 35.2139H0V26.1514Z" fill="white"/>
<path d="M65.0771 74.7535H53.8457L48.751 64.6559C53.8706 64.5642 57.1983 63.3275 58.6699 62.6364L65.0771 74.7535Z" fill="white"/>
<path d="M57.7504 61.0558C57.7504 61.0558 54.4236 63.2076 47.9361 63.2076C42.249 63.2076 45.312 63.2076 45.312 63.2076V74.7538H34.8154V38.0159H49.5106C53.5343 38.0159 56.8582 39.2055 59.4824 41.5848C62.1065 43.929 63.4186 47.043 63.4186 50.9267C63.4186 53.096 62.9112 55.0553 61.8966 56.8047C60.9169 58.5542 59.5348 59.9712 57.7504 61.0558ZM45.312 47.6728V54.4955H49.3007C50.4203 54.5305 51.295 54.2506 51.9248 53.6558C52.5896 53.061 52.922 52.2213 52.922 51.1366C52.922 50.052 52.5896 49.2122 51.9248 48.6174C51.295 47.9876 50.4203 47.6728 49.3007 47.6728H45.312Z" fill="white"/>
<path d="M10.4043 51.2211H18.4072V61.226H10.4043V74.8315H0V38.016H10.4043V51.2211Z" fill="white"/>
<path d="M30.0127 71.628C30.0127 73.3971 28.5786 74.8312 26.8095 74.8312H19.6083V41.219C19.6083 39.4499 21.0424 38.0158 22.8115 38.0158H30.0127V71.628Z" fill="white"/>
</svg>
