<svg width="141" height="103" viewBox="0 0 141 103" fill="none" xmlns="http://www.w3.org/2000/svg">
<path d="M79.5823 0.0414429C99.7511 0.0414429 115.389 15.6795 115.389 35.1175C115.389 54.5555 99.7511 70.1935 79.5823 70.1935H64.2366V102.347H40.8525V0.0414429H79.5823ZM79.5823 48.271C86.7437 48.271 92.0051 42.5712 92.0051 35.1175C92.0051 27.6638 86.7437 21.964 79.5823 21.964H64.2366V48.271H79.5823Z" fill="url(#paint0_linear_25_33053)"/>
<path d="M64.2363 83.2289L44.4404 102.346H42.3359L64.2363 81.1967V83.2289ZM64.2363 87.2934L48.6494 102.346H46.5439L64.2363 85.2602V87.2934ZM64.2363 91.3559L52.8555 102.346H50.7529L64.2363 89.3246V91.3559ZM64.2363 95.4194L57.0645 102.346H54.959L64.2363 93.3871V95.4194ZM64.2363 99.4838L61.2725 102.346H59.168L64.2363 97.4506V99.4838ZM64.2363 102.346H63.376L64.2363 101.515V102.346ZM64.2363 79.1645L40.8525 101.747V99.7153L64.2363 77.1332V79.1645ZM64.2363 75.101L40.8525 97.6821V95.6508L64.2363 73.0688V75.101ZM112.875 22.0356C113.073 22.5272 113.259 23.0244 113.435 23.5268L65.1104 70.1938H64.2363V71.0375L40.8525 93.6186V91.5883L112.875 22.0356ZM40.8525 89.5561V87.5248L81.6758 48.102C82.7595 47.9247 83.7849 47.6099 84.7393 47.1752L40.8525 89.5561ZM79.3975 48.2709L40.8525 85.4916V83.4614L77.2939 48.2709H79.3975ZM75.1904 48.2709L40.8525 81.4301V79.3969L73.0859 48.2709H75.1904ZM70.9814 48.2709L40.8525 77.3657V75.3344L68.8779 48.2709H70.9814ZM66.7725 48.2709L40.8525 73.3012V71.27L64.6689 48.2709H66.7725ZM113.935 25.0746C114.093 25.6063 114.239 26.143 114.372 26.685L69.3184 70.1938H67.2139L113.935 25.0746ZM114.74 28.3608C114.852 28.9388 114.95 29.5219 115.033 30.1098L73.5264 70.1938H71.4229L114.74 28.3608ZM115.245 31.9389C115.302 32.5731 115.342 33.2122 115.364 33.8559L77.7354 70.1938H75.6309L115.245 31.9389ZM64.2363 46.6567L40.8525 69.2377V67.2075L64.2363 44.6254V46.6567ZM64.2363 42.5942L40.8525 65.1752V63.144L64.2363 40.562V42.5942ZM64.2363 38.5297L40.8525 61.1118V59.0795L64.2363 36.4985V38.5297ZM64.2363 34.4662L40.8525 57.0483V55.017L64.2363 32.435V34.4662ZM64.2363 30.4028L40.8525 52.9848V50.9536L64.2363 28.3715V30.4028ZM64.2363 26.3393L40.8525 48.9203V46.8891L64.2363 24.308V26.3393ZM84.7871 0.397888C85.3926 0.481318 85.9926 0.579017 86.5869 0.690857L64.5596 21.9643H64.2363V22.2758L40.8525 44.8569V42.8246L84.7871 0.397888ZM111.591 19.2123C111.824 19.6686 112.048 20.1305 112.261 20.5981L90.4824 41.6293C90.98 40.6591 91.3669 39.6089 91.625 38.4936L111.591 19.2123ZM80.9219 0.0668335C81.5872 0.0898405 82.2471 0.130223 82.9014 0.186951L40.8525 40.7934V38.7631L80.9219 0.0668335ZM40.8525 36.7309V34.6987L76.7412 0.0414429H78.8457L40.8525 36.7309ZM110.101 16.5883C110.366 17.0121 110.623 17.4417 110.87 17.8774L91.9717 36.1264C91.9933 35.794 92.0049 35.4577 92.0049 35.1176C92.0049 34.7733 91.9928 34.4326 91.9707 34.0961L110.101 16.5883ZM40.8525 32.6674V30.6362L72.5352 0.0414429H74.6377L40.8525 32.6674ZM108.422 14.1459C108.718 14.5393 109.006 14.9392 109.285 15.3452L91.7402 32.2885C91.6334 31.728 91.4954 31.1824 91.3271 30.6537L108.422 14.1459ZM106.56 11.8803C106.885 12.2442 107.203 12.6145 107.513 12.9916L90.7568 29.1733C90.5451 28.7064 90.3083 28.2569 90.0479 27.8256L106.56 11.8803ZM40.8525 28.6039V26.5727L68.3262 0.0414429H70.4307L40.8525 28.6039ZM104.521 9.78363C104.876 10.1188 105.224 10.4607 105.563 10.81L89.21 26.603C88.9088 26.2161 88.5867 25.8488 88.2441 25.5034L104.521 9.78363ZM40.8525 24.5395V0.0414429H66.2217L40.8525 24.5395ZM102.308 7.8598C102.691 8.16581 103.067 8.48004 103.437 8.80121L87.1514 24.5278C86.7614 24.2207 86.3521 23.9377 85.9248 23.6811L102.308 7.8598ZM99.9131 6.10883C100.327 6.38526 100.735 6.66855 101.135 6.96136L84.5527 22.975C84.058 22.76 83.5448 22.5769 83.0146 22.4282L99.9131 6.10883ZM97.3311 4.53851C97.7757 4.78366 98.2144 5.03727 98.6465 5.30023L81.2773 22.0737C80.7258 22.0015 80.1601 21.9643 79.582 21.9643H79.2871L97.3311 4.53851ZM94.5527 3.15863C95.0306 3.37011 95.502 3.59263 95.9678 3.82367L77.1836 21.9643H75.0801L94.5527 3.15863ZM91.5527 1.99164C92.068 2.16634 92.5776 2.35177 93.0811 2.54828L72.9756 21.9643H70.8721L91.5527 1.99164ZM88.3105 1.05902C88.8673 1.19171 89.4185 1.33627 89.9639 1.49359L68.7676 21.9643H66.6631L88.3105 1.05902Z" fill="white"/>
<path d="M140.233 102.342H114.662L102.265 65.9615C111.725 59.8984 117.93 49.5534 118.293 37.6822L140.233 102.342Z" fill="url(#paint1_linear_25_33053)"/>
<path d="M115.389 35.1172C115.389 54.5552 99.7508 70.1934 79.582 70.1934H78.7334L115.387 34.9893C115.387 35.0319 115.389 35.0746 115.389 35.1172Z" fill="#14534F"/>
<path d="M38.0497 0.0414429V22.5486H0V0.0414429H38.0497Z" fill="url(#paint2_linear_25_33053)"/>
<path d="M64.2872 0.0415955L40.8525 22.5487V0.0415955H64.2872Z" fill="#848484"/>
<defs>
<linearGradient id="paint0_linear_25_33053" x1="54.0759" y1="11.7447" x2="97.4416" y2="52.7663" gradientUnits="userSpaceOnUse">
<stop stop-color="#898989"/>
<stop offset="0.276042" stop-color="white"/>
<stop offset="0.697917" stop-color="white"/>
<stop offset="1" stop-color="#14534F"/>
</linearGradient>
<linearGradient id="paint1_linear_25_33053" x1="126.421" y1="102.84" x2="111.072" y2="53.8752" gradientUnits="userSpaceOnUse">
<stop stop-color="#61AEAA"/>
<stop offset="1" stop-color="#14534F"/>
</linearGradient>
<linearGradient id="paint2_linear_25_33053" x1="-4.48399e-07" y1="0.533844" x2="37.999" y2="22.4564" gradientUnits="userSpaceOnUse">
<stop stop-color="white"/>
<stop offset="1" stop-color="#575757"/>
</linearGradient>
</defs>
</svg>
