<svg width="738" height="296" viewBox="0 0 738 296" fill="none" xmlns="http://www.w3.org/2000/svg">
<path d="M737.738 145.511C737.738 131.82 726.64 120.721 712.948 120.721H593.544V159.645C593.544 173.336 604.643 184.435 618.334 184.435H737.738V145.511Z" fill="url(#paint0_linear_510_3215)"/>
<path d="M0 219.158C15.9086 253.773 44.8191 281.172 80.4785 295.099H0V219.158Z" fill="url(#paint1_linear_510_3215)"/>
<path d="M452.703 219.16C468.612 253.774 497.523 281.172 533.182 295.099H452.703V219.16Z" fill="url(#paint2_linear_510_3215)"/>
<path d="M152.769 126.048L228.028 0H305.155L380.415 126.048L456.077 0H598.573L598.569 0.0136719C624.135 0.324763 647.533 6.23267 668.763 17.7383C690.852 29.5635 708.227 45.5544 720.888 65.7109L652.195 104.815C640.881 87.615 622.832 79.0146 598.049 79.0146C577.845 79.0147 561.413 85.4649 548.752 98.3652C536.36 111.266 530.165 127.929 530.165 148.354C530.165 167.705 535.957 184.637 547.54 199.149C559.124 213.394 577.038 220.516 601.282 220.516C629.081 220.516 647.728 210.723 657.226 191.142H737.312C731.717 215.946 719.913 237.429 701.896 255.589C676.036 281.927 641.959 295.097 599.666 295.097C555.487 295.097 519.39 281.121 491.374 253.17C463.358 224.95 449.35 189.877 449.35 147.951C449.35 147.717 449.352 147.484 449.353 147.25L384.219 254.626H376.61L305.155 136.587V295.097H228.028V136.588L156.572 254.626H148.964L80.46 136.166V187.789H80.4805V283.407C45.3331 263.075 17.0591 232.183 0 195.066V0H80.46L152.769 126.048Z" fill="url(#paint3_linear_510_3215)"/>
<defs>
<linearGradient id="paint0_linear_510_3215" x1="738" y1="207" x2="14.5" y2="-2.17855e-05" gradientUnits="userSpaceOnUse">
<stop stop-color="#00966E"/>
<stop offset="1" stop-color="#6B0079"/>
</linearGradient>
<linearGradient id="paint1_linear_510_3215" x1="738" y1="207" x2="14.5" y2="-2.17855e-05" gradientUnits="userSpaceOnUse">
<stop stop-color="#00966E"/>
<stop offset="1" stop-color="#6B0079"/>
</linearGradient>
<linearGradient id="paint2_linear_510_3215" x1="738" y1="207" x2="14.5" y2="-2.17855e-05" gradientUnits="userSpaceOnUse">
<stop stop-color="#00966E"/>
<stop offset="1" stop-color="#6B0079"/>
</linearGradient>
<linearGradient id="paint3_linear_510_3215" x1="738" y1="207" x2="14.5" y2="-2.17855e-05" gradientUnits="userSpaceOnUse">
<stop stop-color="#00966E"/>
<stop offset="1" stop-color="#6B0079"/>
</linearGradient>
</defs>
</svg>
